<svg xmlns="http://www.w3.org/2000/svg" width="100" height="100" viewBox="0 0 100 100">
  <g id="img_100px_02" transform="translate(-342 -865)">
    <g id="그룹_40543" data-name="그룹 40543" transform="translate(349.889 874.334)">
      <path id="패스_95618" data-name="패스 95618" d="M40.459,82.176H7.284a3.047,3.047,0,0,1-3.047-3.047V20.4L22.348,4.432,40.459,20.4Z" transform="translate(-0.691 -1.664)" fill="#fff"/>
      <path id="패스_95619" data-name="패스 95619" d="M62.222,90.136l7.257-4.044A3.346,3.346,0,0,0,71.2,83.17V25.942l-8.974-.3Z" transform="translate(-22.454 -9.624)" fill="#d3dcef"/>
      <path id="패스_95620" data-name="패스 95620" d="M61.92,14.519,46.769.418A1.554,1.554,0,0,0,45.707,0H33.239l5.356,6.047,2.067,2.334,4.207,4.75,8.609,7.639,7.959-3.666h0a1.553,1.553,0,0,0,.485-2.586" transform="translate(-11.576 -0.001)" fill="#0072ff"/>
      <path id="패스_95621" data-name="패스 95621" d="M39.579,21.389a1.931,1.931,0,0,1-1.319-.518l-17.5-16.29-17.5,16.29A1.936,1.936,0,1,1,.617,18.036L19.439.519a1.937,1.937,0,0,1,2.638,0L40.9,18.036a1.936,1.936,0,0,1-1.319,3.353" transform="translate(0.899 -0.001)" fill="#87baf8"/>
      <path id="패스_95622" data-name="패스 95622" d="M98.374,97.7H62.152V61.927L80.264,45.955,98.374,61.927Z" transform="translate(-22.428 -17.248)" fill="#fff"/>
      <path id="패스_95623" data-name="패스 95623" d="M120.137,105.656l7.257-4.044a3.346,3.346,0,0,0,1.717-2.923V67.465l-8.974-.3Z" transform="translate(-44.191 -25.208)" fill="#ded3ef"/>
      <path id="패스_95624" data-name="패스 95624" d="M119.836,56.042l-15.152-14.1a1.557,1.557,0,0,0-1.062-.417H91.155l5.356,6.048,2.067,2.334,4.207,4.75,8.609,7.639,7.959-3.666h0a1.553,1.553,0,0,0,.485-2.586" transform="translate(-33.313 -15.585)" fill="#7918c8"/>
      <path id="패스_95625" data-name="패스 95625" d="M97.494,62.912a1.931,1.931,0,0,1-1.319-.518L78.673,46.1l-17.5,16.29a1.936,1.936,0,1,1-2.638-2.835L77.354,42.042a1.937,1.937,0,0,1,2.638,0L98.814,59.559a1.936,1.936,0,0,1-1.319,3.353" transform="translate(-20.838 -15.585)" fill="#af7bf3"/>
      <g id="그룹_40544" data-name="그룹 40544" transform="translate(11.102 23.722)">
        <path id="패스_95626" data-name="패스 95626" d="M20.46,43.354H17.581A1.249,1.249,0,0,1,16.332,42.1V39.225a1.25,1.25,0,0,1,1.249-1.249H20.46a1.249,1.249,0,0,1,1.249,1.249V42.1a1.249,1.249,0,0,1-1.249,1.249" transform="translate(-16.332 -37.976)" fill="#ffcd46"/>
        <path id="패스_95627" data-name="패스 95627" d="M32.373,43.354H29.494A1.249,1.249,0,0,1,28.245,42.1V39.225a1.25,1.25,0,0,1,1.249-1.249h2.879a1.249,1.249,0,0,1,1.249,1.249V42.1a1.249,1.249,0,0,1-1.249,1.249" transform="translate(-20.803 -37.976)" fill="#ffcd46"/>
        <path id="패스_95628" data-name="패스 95628" d="M44.286,43.354H41.407A1.249,1.249,0,0,1,40.158,42.1V39.225a1.25,1.25,0,0,1,1.249-1.249h2.879a1.249,1.249,0,0,1,1.249,1.249V42.1a1.249,1.249,0,0,1-1.249,1.249" transform="translate(-25.274 -37.976)" fill="#ffcd46"/>
        <path id="패스_95629" data-name="패스 95629" d="M20.46,55.3H17.581a1.249,1.249,0,0,1-1.249-1.249V51.171a1.25,1.25,0,0,1,1.249-1.249H20.46a1.249,1.249,0,0,1,1.249,1.249V54.05A1.249,1.249,0,0,1,20.46,55.3" transform="translate(-16.332 -42.46)" fill="#ffcd46"/>
        <path id="패스_95630" data-name="패스 95630" d="M32.373,55.3H29.494a1.249,1.249,0,0,1-1.249-1.249V51.171a1.25,1.25,0,0,1,1.249-1.249h2.879a1.249,1.249,0,0,1,1.249,1.249V54.05A1.249,1.249,0,0,1,32.373,55.3" transform="translate(-20.803 -42.46)" fill="#ffcd46"/>
        <path id="패스_95631" data-name="패스 95631" d="M44.286,55.3H41.407a1.249,1.249,0,0,1-1.249-1.249V51.171a1.25,1.25,0,0,1,1.249-1.249h2.879a1.249,1.249,0,0,1,1.249,1.249V54.05A1.249,1.249,0,0,1,44.286,55.3" transform="translate(-25.274 -42.46)" fill="#ffcd46"/>
        <path id="패스_95632" data-name="패스 95632" d="M20.46,74.192H17.581a1.249,1.249,0,0,1-1.249-1.249V70.063a1.25,1.25,0,0,1,1.249-1.249H20.46a1.249,1.249,0,0,1,1.249,1.249v2.879a1.249,1.249,0,0,1-1.249,1.249" transform="translate(-16.332 -49.55)" fill="#ffcd46"/>
        <path id="패스_95633" data-name="패스 95633" d="M32.373,74.192H29.494a1.249,1.249,0,0,1-1.249-1.249V70.063a1.25,1.25,0,0,1,1.249-1.249h2.879a1.249,1.249,0,0,1,1.249,1.249v2.879a1.249,1.249,0,0,1-1.249,1.249" transform="translate(-20.803 -49.55)" fill="#ffcd46"/>
        <path id="패스_95634" data-name="패스 95634" d="M44.286,74.192H41.407a1.249,1.249,0,0,1-1.249-1.249V70.063a1.25,1.25,0,0,1,1.249-1.249h2.879a1.249,1.249,0,0,1,1.249,1.249v2.879a1.249,1.249,0,0,1-1.249,1.249" transform="translate(-25.274 -49.55)" fill="#ffcd46"/>
        <path id="패스_95635" data-name="패스 95635" d="M20.46,86.138H17.581a1.249,1.249,0,0,1-1.249-1.249V82.009a1.25,1.25,0,0,1,1.249-1.249H20.46a1.249,1.249,0,0,1,1.249,1.249v2.879a1.249,1.249,0,0,1-1.249,1.249" transform="translate(-16.332 -54.034)" fill="#ffcd46"/>
        <path id="패스_95636" data-name="패스 95636" d="M32.373,86.138H29.494a1.249,1.249,0,0,1-1.249-1.249V82.009a1.25,1.25,0,0,1,1.249-1.249h2.879a1.249,1.249,0,0,1,1.249,1.249v2.879a1.249,1.249,0,0,1-1.249,1.249" transform="translate(-20.803 -54.034)" fill="#ffcd46"/>
        <path id="패스_95637" data-name="패스 95637" d="M44.286,86.138H41.407a1.249,1.249,0,0,1-1.249-1.249V82.009a1.25,1.25,0,0,1,1.249-1.249h2.879a1.249,1.249,0,0,1,1.249,1.249v2.879a1.249,1.249,0,0,1-1.249,1.249" transform="translate(-25.274 -54.034)" fill="#ffcd46"/>
        <path id="패스_95638" data-name="패스 95638" d="M79.065,83.595H76.186a1.249,1.249,0,0,1-1.249-1.249V79.466a1.25,1.25,0,0,1,1.249-1.249h2.879a1.249,1.249,0,0,1,1.249,1.249v2.879a1.249,1.249,0,0,1-1.249,1.249" transform="translate(-38.328 -53.079)" fill="#ffcd46"/>
        <path id="패스_95639" data-name="패스 95639" d="M90.978,83.595H88.1a1.249,1.249,0,0,1-1.249-1.249V79.466A1.25,1.25,0,0,1,88.1,78.217h2.879a1.249,1.249,0,0,1,1.249,1.249v2.879a1.249,1.249,0,0,1-1.249,1.249" transform="translate(-42.799 -53.079)" fill="#ffcd46"/>
        <path id="패스_95640" data-name="패스 95640" d="M102.891,83.595h-2.879a1.249,1.249,0,0,1-1.249-1.249V79.466a1.25,1.25,0,0,1,1.249-1.249h2.879a1.249,1.249,0,0,1,1.249,1.249v2.879a1.249,1.249,0,0,1-1.249,1.249" transform="translate(-47.27 -53.079)" fill="#ffcd46"/>
        <path id="패스_95641" data-name="패스 95641" d="M79.065,95.541H76.186a1.249,1.249,0,0,1-1.249-1.249V91.412a1.25,1.25,0,0,1,1.249-1.249h2.879a1.249,1.249,0,0,1,1.249,1.249v2.879a1.249,1.249,0,0,1-1.249,1.249" transform="translate(-38.328 -57.563)" fill="#ffcd46"/>
        <path id="패스_95642" data-name="패스 95642" d="M90.978,95.541H88.1a1.249,1.249,0,0,1-1.249-1.249V91.412A1.25,1.25,0,0,1,88.1,90.163h2.879a1.249,1.249,0,0,1,1.249,1.249v2.879a1.249,1.249,0,0,1-1.249,1.249" transform="translate(-42.799 -57.563)" fill="#ffcd46"/>
        <path id="패스_95643" data-name="패스 95643" d="M102.891,95.541h-2.879a1.249,1.249,0,0,1-1.249-1.249V91.412a1.25,1.25,0,0,1,1.249-1.249h2.879a1.249,1.249,0,0,1,1.249,1.249v2.879a1.249,1.249,0,0,1-1.249,1.249" transform="translate(-47.27 -57.563)" fill="#ffcd46"/>
      </g>
      <g id="그룹_40545" data-name="그룹 40545" transform="translate(0 69.53)">
        <path id="패스_95607" data-name="패스 95607" d="M25.287,85.376H4.562a3.236,3.236,0,0,1-3.236-3.236V79.983A6.544,6.544,0,0,1,7.87,73.439h14.11a6.544,6.544,0,0,1,6.544,6.544v2.158a3.236,3.236,0,0,1-3.236,3.236" transform="translate(-1.326 -73.439)" fill="#41c872"/>
        <path id="패스_95610" data-name="패스 95610" d="M63.484,85.376H35.529a3.236,3.236,0,0,1-3.236-3.236V79.983a6.544,6.544,0,0,1,6.544-6.544H60.176a6.544,6.544,0,0,1,6.544,6.544v2.158a3.236,3.236,0,0,1-3.236,3.236" transform="translate(11.721 -73.439)" fill="#41c872"/>
        <path id="패스_95616" data-name="패스 95616" d="M23.961,3.236H3.236A3.236,3.236,0,0,1,0,0V2.078A3.236,3.236,0,0,0,3.236,5.313H23.961A3.236,3.236,0,0,0,27.2,2.078V0a3.236,3.236,0,0,1-3.236,3.236" transform="translate(0 6.624)" fill="#7edb7b"/>
        <path id="패스_95617" data-name="패스 95617" d="M70.647,3.236H42.695A3.236,3.236,0,0,1,39.459,0V2.078a3.236,3.236,0,0,0,3.236,3.236H70.647a3.236,3.236,0,0,0,3.236-3.236V0a3.236,3.236,0,0,1-3.236,3.236" transform="translate(4.555 6.624)" fill="#7edb7b"/>
      </g>
    </g>
    <rect id="area" width="100" height="100" transform="translate(342 865)" fill="none"/>
  </g>
</svg>
