<svg xmlns="http://www.w3.org/2000/svg" width="100" height="100" viewBox="0 0 100 100">
  <g id="img_100px_14" transform="translate(-607.997 -1023.999)">
    <g id="그룹_40575" data-name="그룹 40575" transform="translate(628.72 1038.788)">
      <g id="그룹_38857" data-name="그룹 38857" transform="translate(64.25 12.672) rotate(60)">
        <rect id="사각형_152844" data-name="사각형 152844" width="22.619" height="36.757" rx="3" fill="#41c872"/>
        <path id="사각형_152845" data-name="사각형 152845" d="M2.667,0H16.573A2.67,2.67,0,0,1,19.24,2.667V30.711a2.67,2.67,0,0,1-2.667,2.667H2.667A2.67,2.67,0,0,1,0,30.711V2.667A2.67,2.67,0,0,1,2.667,0ZM16.573,32.044a1.335,1.335,0,0,0,1.333-1.333V2.667a1.335,1.335,0,0,0-1.333-1.333H2.667A1.335,1.335,0,0,0,1.333,2.667V30.711a1.335,1.335,0,0,0,1.333,1.333Z" transform="translate(1.69 1.69)" fill="#fff" style="mix-blend-mode: soft-light;isolation: isolate"/>
        <path id="SYMBOL" d="M9.969,5.7a2.786,2.786,0,0,1-1.3,1.552A4.59,4.59,0,0,0,9.6,2.014c-.354-.628.1-.905.1-.905a.829.829,0,0,0-.711,1.112,4.272,4.272,0,0,1,.238,2.857l-.34-.191L8.89,4.88A3.582,3.582,0,0,0,6.412.6V0h-.7V3.932L8.939,5.77q-.088.178-.186.337L5.516,4.232,2.263,6.108q-.1-.159-.186-.337L5.3,3.932V0H4.609V.6A3.582,3.582,0,0,0,2.13,4.883l.005.008-.34.191a4.272,4.272,0,0,1,.238-2.857.829.829,0,0,0-.711-1.112s.453.274.1.905a4.59,4.59,0,0,0,.935,5.236A2.785,2.785,0,0,1,1.051,5.7.946.946,0,0,0,0,5.236a1.06,1.06,0,0,1,.464.669A4.029,4.029,0,0,0,3.852,8.462V9.687H5.172V7.881A3.669,3.669,0,0,1,2.7,6.692L3.032,6.5A4.024,4.024,0,0,0,5.5,7.524h.016A4.024,4.024,0,0,0,7.985,6.5l.332.194A3.669,3.669,0,0,1,5.845,7.881v1.8H7.167V8.462a4.029,4.029,0,0,0,3.389-2.556,1.06,1.06,0,0,1,.463-.669.946.946,0,0,0-1.05.462M8.246,4.529h0L6.425,3.514l-.01-2.176h.01A2.715,2.715,0,0,1,8.246,4.528M4.593,1.338H4.6l-.01,2.176L2.775,4.532h0A2.715,2.715,0,0,1,4.593,1.338m.922,3.717,1.81,1.06h0l-.016-.009a2.87,2.87,0,0,1-1.8.683,2.87,2.87,0,0,1-1.8-.679l-.016.009h0Z" transform="translate(16.153 12.869) rotate(90)" fill="#fff" style="mix-blend-mode: soft-light;isolation: isolate"/>
      </g>
      <g id="그룹_38858" data-name="그룹 38858" transform="translate(52.606 4.321) rotate(33)">
        <rect id="사각형_152844-2" data-name="사각형 152844" width="21.951" height="35.67" rx="3" transform="translate(0 0)" fill="#7edb7b"/>
        <path id="사각형_152845-2" data-name="사각형 152845" d="M2.667,0H15.9a2.67,2.67,0,0,1,2.667,2.667V29.5A2.67,2.67,0,0,1,15.9,32.168H2.667A2.67,2.67,0,0,1,0,29.5V2.667A2.67,2.67,0,0,1,2.667,0ZM15.9,30.834A1.335,1.335,0,0,0,17.231,29.5V2.667A1.335,1.335,0,0,0,15.9,1.333H2.667A1.335,1.335,0,0,0,1.333,2.667V29.5a1.335,1.335,0,0,0,1.333,1.333Z" transform="translate(1.585 1.54)" fill="#fff" style="mix-blend-mode: soft-light;isolation: isolate"/>
        <path id="SYMBOL-2" data-name="SYMBOL" d="M9.593,5.484A2.68,2.68,0,0,1,8.339,6.977a4.417,4.417,0,0,0,.9-5.039c-.341-.6.093-.871.093-.871a.8.8,0,0,0-.684,1.07,4.111,4.111,0,0,1,.229,2.749L8.549,4.7l0-.007A3.447,3.447,0,0,0,6.17.575V0H5.5V3.784L8.6,5.552q-.085.172-.179.325l-3.115-1.8-3.131,1.8Q2.084,5.724,2,5.552L5.1,3.784V0H4.435V.575A3.447,3.447,0,0,0,2.05,4.7l0,.007-.327.184A4.111,4.111,0,0,1,1.956,2.14a.8.8,0,0,0-.684-1.07s.435.264.093.871a4.417,4.417,0,0,0,.9,5.039A2.68,2.68,0,0,1,1.011,5.487.911.911,0,0,0,0,5.039a1.02,1.02,0,0,1,.446.644,3.877,3.877,0,0,0,3.261,2.46V9.321h1.27V7.583A3.531,3.531,0,0,1,2.6,6.44l.32-.187a3.872,3.872,0,0,0,2.376.987h.016a3.872,3.872,0,0,0,2.374-.987L8,6.44A3.531,3.531,0,0,1,5.625,7.584V9.32H6.9V8.142a3.877,3.877,0,0,0,3.261-2.46,1.02,1.02,0,0,1,.445-.644.91.91,0,0,0-1.01.444M7.935,4.358h0L6.183,3.381,6.173,1.287h.009a2.613,2.613,0,0,1,1.752,3.07M4.42,1.287h.01L4.42,3.381l-1.75.98h0A2.613,2.613,0,0,1,4.42,1.287m.887,3.576,1.742,1.02h0l-.016-.009A2.761,2.761,0,0,1,5.3,6.532a2.761,2.761,0,0,1-1.734-.654l-.016.009h0Z" transform="translate(15.527 12.322) rotate(90)" fill="#fff" style="mix-blend-mode: soft-light;isolation: isolate"/>
      </g>
      <g id="그룹_40051" data-name="그룹 40051" transform="translate(0 0)">
        <g id="그룹_39691" data-name="그룹 39691" transform="translate(48.527) rotate(90)">
          <path id="패스_95952" data-name="패스 95952" d="M5.333,0h36.35a5.333,5.333,0,0,1,5.333,5.333V65.193a5.333,5.333,0,0,1-5.333,5.333H5.333A5.333,5.333,0,0,1,0,65.193V5.333A5.333,5.333,0,0,1,5.333,0Z" transform="translate(70.526) rotate(90)" fill="#994bff"/>
          <path id="패스_95950" data-name="패스 95950" d="M5.333,0h36.35a5.333,5.333,0,0,1,5.333,5.333V65.193a5.333,5.333,0,0,1-5.333,5.333H5.333A5.333,5.333,0,0,1,0,65.193V5.333A5.333,5.333,0,0,1,5.333,0Z" transform="translate(71.533 1.51) rotate(90)" fill="#af7bf3"/>
          <g id="그룹_36326" data-name="그룹 36326" transform="translate(8.843 20.449)">
            <path id="패스_96006" data-name="패스 96006" d="M1.333,0H11.726A1.333,1.333,0,0,1,13.06,1.333V7.809a1.333,1.333,0,0,1-1.333,1.333H1.333A1.333,1.333,0,0,1,0,7.809V1.333A1.333,1.333,0,0,1,1.333,0Z" transform="translate(0 0)" fill="#fff" opacity="0.9"/>
            <path id="패스_96005" data-name="패스 96005" d="M0,0H.6V9.142H0Z" transform="translate(3.561)" fill="#ddd"/>
            <path id="패스_96004" data-name="패스 96004" d="M0,0H.6V9.142H0Z" transform="translate(8.868 0)" fill="#ddd"/>
            <path id="패스_96003" data-name="패스 96003" d="M0,0H.6V3.877H0Z" transform="translate(3.88 5.588) rotate(90)" fill="#ddd"/>
            <path id="패스_96002" data-name="패스 96002" d="M0,0H.6V3.613H0Z" transform="translate(13.06 5.588) rotate(90)" fill="#ddd"/>
            <path id="패스_96001" data-name="패스 96001" d="M0,0H.6V3.877H0Z" transform="translate(3.88 2.958) rotate(90)" fill="#ddd"/>
            <path id="패스_96000" data-name="패스 96000" d="M0,0H.6V3.613H0Z" transform="translate(13.06 2.958) rotate(90)" fill="#ddd"/>
          </g>
        </g>
        <g id="그룹_39694" data-name="그룹 39694" transform="translate(38.7 37.294)">
          <path id="패스_95701" data-name="패스 95701" d="M.5,14.044A13.387,13.387,0,0,1,13.724.5,13.386,13.386,0,0,1,26.948,14.044c0,9.075-10.672,19.489-13.224,19.489S.5,23.115.5,14.044Z" transform="translate(0.706 -0.5)" fill="#fbae0b"/>
          <path id="패스_93634" data-name="패스 93634" d="M.5,14.044A13.387,13.387,0,0,1,13.724.5,13.386,13.386,0,0,1,26.948,14.044c0,9.075-10.672,19.489-13.224,19.489S.5,23.115.5,14.044Z" transform="translate(-0.5 0.706)" fill="#fdca00"/>
          <g id="그룹_39690" data-name="그룹 39690" transform="translate(2.852 15.74) rotate(-45)">
            <rect id="사각형_153329" data-name="사각형 153329" width="2.642" height="14.177" rx="1.321" transform="translate(14.177 5.768) rotate(90)" fill="#fff"/>
            <path id="패스_95954" data-name="패스 95954" d="M1.982,0A1.982,1.982,0,1,1,0,1.982,1.982,1.982,0,0,1,1.982,0Z" transform="translate(5.107 0)" fill="#fff"/>
            <path id="패스_95953" data-name="패스 95953" d="M1.982,0A1.982,1.982,0,1,1,0,1.982,1.982,1.982,0,0,1,1.982,0Z" transform="translate(5.107 10.214)" fill="#fff"/>
          </g>
        </g>
      </g>
    </g>
    <rect id="area" width="100" height="100" transform="translate(607.997 1023.999)" fill="none"/>
  </g>
</svg>
