<svg xmlns="http://www.w3.org/2000/svg" xmlns:xlink="http://www.w3.org/1999/xlink" width="100" height="100" viewBox="0 0 100 100">
  <defs>
    <linearGradient id="linear-gradient" x1="0.5" x2="0.5" y2="1" gradientUnits="objectBoundingBox">
      <stop offset="0" stop-color="#ff8da4"/>
      <stop offset="1" stop-color="#ffedbc"/>
    </linearGradient>
  </defs>
  <g id="img_100px_08" transform="translate(-2234 -237.999)">
    <rect id="area" width="100" height="100" transform="translate(2234 237.999)" fill="none"/>
    <g id="그룹_40472" data-name="그룹 40472" transform="translate(2246.25 250.197)">
      <g id="그룹_40533" data-name="그룹 40533" transform="translate(9.42 0)">
        <g id="그룹_39217" data-name="그룹 39217" transform="translate(0 0)">
          <path id="패스_93712" data-name="패스 93712" d="M9.69,16.532a7.318,7.318,0,0,0-3.252-4.217A3.088,3.088,0,0,0,3.4,12.082a3.8,3.8,0,0,0-.972.848c1.607,3.544,6.642,4.091,6.642,4.091l-1.1,1.394c.24-.054.438-.106.571-.145Z" transform="translate(-1.588 -7.7)" fill="#f5b8d3"/>
          <path id="패스_93713" data-name="패스 93713" d="M.843,15.092a3.8,3.8,0,0,0-.821,1.883,3.19,3.19,0,0,0,2.561,3.648,7.891,7.891,0,0,0,3.8-.046l1.1-1.394S2.45,18.636.843,15.092" transform="translate(-0.001 -9.862)" fill="#f1a0c3"/>
          <path id="패스_93714" data-name="패스 93714" d="M137.718,7.371a3.8,3.8,0,0,0-1.94-2.1,3.086,3.086,0,0,0-2.993.554,7.245,7.245,0,0,0-2.754,4.426c1.209.133,5.736.392,7.687-2.881" transform="translate(-84.969 -3.323)" fill="#f5b8d3"/>
          <path id="패스_93715" data-name="패스 93715" d="M131.262,16.281a8.6,8.6,0,0,0,4.37-.275,3.19,3.19,0,0,0,2.159-3.9,3.773,3.773,0,0,0-.134-.426c-1.95,3.272-6.477,3.014-7.687,2.881-.01.039-.022.074-.032.113Z" transform="translate(-84.908 -7.633)" fill="#f1a0c3"/>
          <path id="패스_93716" data-name="패스 93716" d="M60.234,16.886a19.023,19.023,0,0,0-8.68-13.266A26.076,26.076,0,0,0,36.84.022q-2.374.09-4.534.387c-6.67.918-11.8,3.321-15.28,7.167a18.41,18.41,0,0,0-2.742,3.972c-.2,2.668-3.536,23.79,19.176,29.123.213,0,.426.009.644.01,10.276.056,18.071-2.71,22.541-8,3.44-4.07,4.681-9.532,3.589-15.8" transform="translate(-9.173 0)" fill="#f5b8d3"/>
          <path id="패스_93717" data-name="패스 93717" d="M10.518,33.322A21.5,21.5,0,0,0,8.311,44.173h0c.333,5.4,3.1,17.884,21.385,18.271C9.507,55.787,10.314,35.99,10.518,33.322" transform="translate(-5.407 -21.774)" fill="#f1a0c3"/>
        </g>
        <path id="패스_93668" data-name="패스 93668" d="M75.678,110.443a1.209,1.209,0,1,0,1.367,1.026,1.209,1.209,0,0,0-1.367-1.026" transform="translate(-58.533 -92.704)" fill="#2a0e1a"/>
        <path id="패스_93669" data-name="패스 93669" d="M136.295,109.627a1.209,1.209,0,1,0-1.367-1.026,1.209,1.209,0,0,0,1.367,1.026" transform="translate(-97.921 -90.608)" fill="#2a0e1a"/>
        <path id="패스_93670" data-name="패스 93670" d="M97.593,123.172c3.2-.545,4.967-2.2,5.012-4.742.058-3.251-2.311-5.226-6.338-5.283-2.971-.043-5.421.834-6.721,2.406a4.446,4.446,0,0,0-.918,3.73c.367,2.055,1.98,4.425,7.586,4.049a13.8,13.8,0,0,0,1.38-.16" transform="translate(-67.619 -94.478)" fill="#f1a0c3"/>
        <path id="패스_93671" data-name="패스 93671" d="M97.637,118.418c3.2-.545,4.967-2.2,5.012-4.742.058-3.251-2.312-5.226-6.338-5.283-2.971-.043-5.421.834-6.722,2.406a4.446,4.446,0,0,0-.918,3.73c.367,2.055,1.981,4.425,7.586,4.049a13.777,13.777,0,0,0,1.38-.16" transform="translate(-67.648 -91.372)" fill="#fff"/>
        <path id="패스_93672" data-name="패스 93672" d="M115.24,120.893a1.55,1.55,0,1,0-1.777-1.283,1.549,1.549,0,0,0,1.777,1.283" transform="translate(-83.89 -97.528)" fill="#df8595"/>
        <path id="패스_93673" data-name="패스 93673" d="M98.457,118.7a1.55,1.55,0,1,0,1.777,1.283,1.549,1.549,0,0,0-1.777-1.283" transform="translate(-73.246 -98.095)" fill="#df8595"/>
        <path id="패스_93674" data-name="패스 93674" d="M139.849,117.507h0c2.06-.213,3.782.166,4.721,1.039a2.308,2.308,0,0,1,.726,2.086c-.279,2.229-2.865,2.771-4.984,2.834-1.946.057-4.305-.324-4.5-2.465-.175-1.938,1.3-3.212,4.035-3.494" transform="translate(-98.499 -97.29)" fill="#ee808d" opacity="0.7"/>
        <path id="패스_93675" data-name="패스 93675" d="M58.332,120.824h0c2.06-.213,3.782.166,4.721,1.039a2.308,2.308,0,0,1,.726,2.086c-.279,2.229-2.865,2.771-4.984,2.834-1.946.057-4.305-.324-4.5-2.465-.175-1.938,1.3-3.212,4.035-3.494" transform="translate(-45.231 -99.458)" fill="#ee808d" opacity="0.7"/>
      </g>
      <g id="그룹_38854" data-name="그룹 38854" transform="translate(0 28.272)">
        <path id="패스_95602" data-name="패스 95602" d="M3.7,0H70.316a3.733,3.733,0,0,1,3.7,3.765V46.684a3.733,3.733,0,0,1-3.7,3.765H3.7A3.733,3.733,0,0,1,0,46.684V3.765A3.733,3.733,0,0,1,3.7,0Z" fill="#2983ca"/>
        <path id="패스_93599" data-name="패스 93599" d="M3.7,0H70.316a3.733,3.733,0,0,1,3.7,3.765V46.684a3.733,3.733,0,0,1-3.7,3.765H3.7A3.733,3.733,0,0,1,0,46.684V3.765A3.733,3.733,0,0,1,3.7,0Z" transform="translate(0 1.333)" fill="#53c0ff"/>
        <path id="패스_95961" data-name="패스 95961" d="M0,0H74.017V9.629H0Z" transform="translate(0 10.222)" fill="#2678a7" opacity="0.6" style="mix-blend-mode: multiply;isolation: isolate"/>
      </g>
      <g id="그룹_40534" data-name="그룹 40534" transform="matrix(1, 0.017, -0.017, 1, 9.552, 23.419)">
        <path id="패스_93840" data-name="패스 93840" d="M3.528.381A5.934,5.934,0,0,0,.01.182c-.03,1.55-.19,4.681,3.477,5.845A2.635,2.635,0,0,0,5.748,4.352c.609-1.9-.251-3.284-2.22-3.972" transform="translate(47.005 0.929) rotate(-9)" fill="#f5b8d3"/>
        <path id="패스_93841" data-name="패스 93841" d="M2.01,0A2.554,2.554,0,0,0,.032,2.156C-.246,4.288,1.33,5.27,3.007,5.7a6.141,6.141,0,0,0,2.48.149A6.23,6.23,0,0,1,2.01,0" transform="translate(45.058 1.422) rotate(-9)" fill="#f1a0c3"/>
        <path id="패스_93842" data-name="패스 93842" d="M5.377,5.273A2.637,2.637,0,0,0,6.867,2.887C6.738.9,5.43-.078,3.346,0A5.936,5.936,0,0,0,0,1.109C.541,2.562.349,5.192,5.377,5.273" transform="translate(1.131 1.373)" fill="#f5b8d3"/>
        <path id="패스_93843" data-name="패스 93843" d="M1.131,0A2.554,2.554,0,0,0,.081,2.731C.6,4.816,2.43,5.153,4.146,4.934a6.143,6.143,0,0,0,2.362-.77A6.229,6.229,0,0,1,1.131,0" transform="translate(0 2.482)" fill="#f1a0c3"/>
      </g>
      <g id="그룹_40535" data-name="그룹 40535" transform="translate(56.246 34.627) rotate(3)">
        <path id="패스_94100" data-name="패스 94100" d="M2.841,16.458C.193,7.567,6.124,1.444,8.193,1.55A1.605,1.605,0,0,0,6.726.008C4.741-.255-2.062,6.268.616,15.261a11.964,11.964,0,0,0,3.856,6.111c-.924-1.145-1.282-2.632-1.858-4.567" transform="translate(0 11.857)" fill="#e84632"/>
        <path id="패스_94101" data-name="패스 94101" d="M6.686,17.632a5.817,5.817,0,0,1-1.639-1.694C.639,8.734,3.919,5.185,5.491,3.225A4.708,4.708,0,0,0,6.652,0C4.583-.105-2.032,6.366.616,15.257a13.152,13.152,0,0,0,2.315,4.566,10.224,10.224,0,0,0,6.651,2.241l.606-1.853.326-.994a10.621,10.621,0,0,1-3.828-1.585" transform="translate(1.541 13.406)" fill="#db372e"/>
        <path id="패스_94102" data-name="패스 94102" d="M.932,23.613s7.828.642,10.507-8.352S7.314-.255,5.33.008,3.452,2.814,5.024,4.773s4.851,5.509.443,12.714C3.865,20.106,0,20.766,0,20.766" transform="translate(16.869 12.286)" fill="#e84632"/>
        <path id="패스_94103" data-name="패스 94103" d="M.961,0A1.517,1.517,0,0,0,0,.445,2.923,2.923,0,0,1,.164,2.437,1.871,1.871,0,0,0,.961,0" transform="translate(20.936 37.6)" fill="#e84632"/>
        <path id="패스_94104" data-name="패스 94104" d="M1.606.6A1.176,1.176,0,0,0,1.368.279a.92.92,0,0,0-1.2-.1L0,3.2a.992.992,0,0,0,.755.351A1.163,1.163,0,0,0,1.77,2.594,2.921,2.921,0,0,0,1.606.6" transform="translate(19.33 37.443)" fill="#d1292b"/>
        <path id="패스_94105" data-name="패스 94105" d="M.019.039.037.017C0-.01-.012-.007.019.039" transform="translate(15.5 44.062)" fill="#e12d24"/>
        <path id="패스_94106" data-name="패스 94106" d="M.982,0,0,1.211a6.718,6.718,0,0,0,7.564.768A2.988,2.988,0,0,0,7.731.916C4.457,1.364,1.779.581.982,0" transform="translate(15.536 42.868)" fill="#e84632"/>
        <path id="패스_94107" data-name="패스 94107" d="M6.749,3.933a2.74,2.74,0,0,0-.2-.989S4.018,3.205,2.446,0L0,3.017a6.641,6.641,0,0,0,6.749.916" transform="translate(16.518 39.851)" fill="#db372e"/>
        <path id="패스_94108" data-name="패스 94108" d="M.353,0C.1,3.283,0,6.5,0,6.5a4.15,4.15,0,0,0,2,.325c1.737-2.2,3.572-5.1,3.572-5.1Z" transform="translate(8.053 41.509)" fill="#db372e"/>
        <path id="패스_94109" data-name="패스 94109" d="M4.053,11.426a8.87,8.87,0,0,0,1.877.374C7.74,10.975,12.4,8.033,9.8.328L1.9,0S-3.567,9.042,4.053,11.426" transform="translate(7.405 32.868)" fill="#e84632"/>
        <path id="패스_94110" data-name="패스 94110" d="M1.262,7.009A9.9,9.9,0,0,0,0,0,10.13,10.13,0,0,1,1.262,7.009" transform="translate(18.725 33.26)" fill="#c4181f"/>
        <path id="패스_94111" data-name="패스 94111" d="M0,11.472a5.961,5.961,0,0,0,6.654-4.4A10.13,10.13,0,0,0,5.392.063L3.873,0C6.467,7.705,1.81,10.647,0,11.472" transform="translate(13.333 33.196)" fill="#e12d24"/>
        <path id="패스_94127" data-name="패스 94127" d="M10.729,5.16S9.329-.978,3.785.135c-5.563,1.117-6.116,11.8,6.071,16.549C22.621,13.819,23.681,3.178,18.349,1.237,13.036-.7,10.729,5.16,10.729,5.16" transform="translate(4.227 0)" fill="url(#linear-gradient)"/>
        <path id="패스_94112" data-name="패스 94112" d="M0,11.472a5.961,5.961,0,0,0,6.654-4.4A10.13,10.13,0,0,0,5.392.063L3.873,0C6.467,7.705,1.81,10.647,0,11.472" transform="translate(13.333 33.196)" fill="#db372e"/>
        <path id="패스_94113" data-name="패스 94113" d="M21.965,3.836C20.111,1.93,17.02.392,11.93.035a12.332,12.332,0,0,0-5.9.958A10.4,10.4,0,0,0,.283,8.442C-1.268,15.379,3.662,20.274,12.54,20.795c11.608-3.506,9.735-15.352,9.424-16.959" transform="translate(2.119 13.748)" fill="#e84632"/>
        <path id="패스_94114" data-name="패스 94114" d="M0,16.959c.248.015.5.027.75.035,9.768.295,11.08-6.8,11.27-9.37A9.813,9.813,0,0,0,9.424,0C9.735,1.607,11.608,13.453,0,16.959" transform="translate(14.66 17.583)" fill="#e12d24"/>
        <path id="패스_94115" data-name="패스 94115" d="M0,16.959c.248.015.5.027.75.035,9.768.295,11.08-6.8,11.27-9.37A9.813,9.813,0,0,0,9.424,0C9.735,1.607,11.608,13.453,0,16.959" transform="translate(14.66 17.583)" fill="#db372e"/>
        <path id="패스_94116" data-name="패스 94116" d="M3.112,1.241C1.638-.463.273-.532.047,1.785-.156,3.86.275,4.53,1.9,4.529s3.533-.61,1.216-3.288" transform="translate(23.066 16.07)" fill="#d1292b"/>
        <path id="패스_94117" data-name="패스 94117" d="M1.739.617C3.687-.514,5-.135,4.46,2.129,3.975,4.157,3.35,4.65,1.818,4.122s-3.142-1.727-.079-3.5" transform="translate(4.226 13.468)" fill="#d1292b"/>
        <path id="패스_94118" data-name="패스 94118" d="M3.9.019C1.736-.139.183.688.012,2.568c-.138,1.51.931,2.585,3.321,2.951,1.781.273,3.963.144,4.545-1.812C8.494,1.636,6.6.215,3.9.019" transform="translate(10.696 19.299)" fill="#db372e"/>
        <path id="패스_94119" data-name="패스 94119" d="M3.9.019C1.736-.139.183.688.012,2.568c-.138,1.51.931,2.585,3.321,2.951,1.781.273,3.963.144,4.545-1.812C8.494,1.636,6.6.215,3.9.019" transform="translate(10.57 18.418)" fill="#fff"/>
        <path id="패스_94120" data-name="패스 94120" d="M1.587.89A.8.8,0,1,1,.89.006a.8.8,0,0,1,.7.884" transform="translate(12.269 20.117)" fill="#d1292b"/>
        <path id="패스_94121" data-name="패스 94121" d="M1.587.89A.8.8,0,1,1,.89.006a.8.8,0,0,1,.7.884" transform="translate(15.127 20.454)" fill="#d1292b"/>
        <path id="패스_94122" data-name="패스 94122" d="M1.134.573A.567.567,0,1,1,.573,0a.567.567,0,0,1,.562.573" transform="translate(9.094 18.022)" fill="#2a0e1a"/>
        <path id="패스_94123" data-name="패스 94123" d="M1.134.573A.567.567,0,1,1,.573,0a.567.567,0,0,1,.562.573" transform="translate(19.613 19.628)" fill="#2a0e1a"/>
        <path id="패스_94124" data-name="패스 94124" d="M2.618.041h0a3.377,3.377,0,0,1,2.4,1.151A1.271,1.271,0,0,1,5.144,2.4c-.43,1.16-1.884,1.125-3.028.892C1.066,3.079-.15,2.578.015,1.406.165.345,1.114-.152,2.618.041" transform="translate(19.572 21.633)" fill="#f19cc1" opacity="0.6"/>
        <path id="패스_94125" data-name="패스 94125" d="M2.618.041h0a3.377,3.377,0,0,1,2.4,1.151A1.271,1.271,0,0,1,5.144,2.4c-.43,1.16-1.884,1.125-3.028.892C1.066,3.079-.15,2.578.015,1.406.165.345,1.114-.152,2.618.041" transform="translate(4.156 19.292)" fill="#f19cc1" opacity="0.6"/>
        <path id="패스_94126" data-name="패스 94126" d="M3.858,1.855s-.5-2.207-2.5-1.807S-.838,4.29,3.544,6C8.134,4.969,8.515,1.143,6.6.445s-2.74,1.411-2.74,1.411" transform="translate(9.679 35.655)" fill="#fff"/>
      </g>
    </g>
  </g>
</svg>
