<svg id="img_100px_커피쿠폰" xmlns="http://www.w3.org/2000/svg" xmlns:xlink="http://www.w3.org/1999/xlink" width="100" height="100" viewBox="0 0 100 100">
  <defs>
    <filter id="패스_93707" x="52.716" y="51.006" width="17.682" height="17.852" filterUnits="userSpaceOnUse">
      <feOffset dy="2" input="SourceAlpha"/>
      <feGaussianBlur stdDeviation="2.5" result="blur"/>
      <feFlood flood-opacity="0.102"/>
      <feComposite operator="in" in2="blur"/>
      <feComposite in="SourceGraphic"/>
    </filter>
    <filter id="사각형_152890" x="52.89" y="50.571" width="17.942" height="18.852" filterUnits="userSpaceOnUse">
      <feOffset dy="2" input="SourceAlpha"/>
      <feGaussianBlur stdDeviation="2.5" result="blur-2"/>
      <feFlood flood-opacity="0.102"/>
      <feComposite operator="in" in2="blur-2"/>
      <feComposite in="SourceGraphic"/>
    </filter>
    <filter id="패스_93710" x="44.949" y="50.499" width="17.718" height="17.863" filterUnits="userSpaceOnUse">
      <feOffset dy="2" input="SourceAlpha"/>
      <feGaussianBlur stdDeviation="2.5" result="blur-3"/>
      <feFlood flood-opacity="0.102"/>
      <feComposite operator="in" in2="blur-3"/>
      <feComposite in="SourceGraphic"/>
    </filter>
    <filter id="사각형_152891" x="44.039" y="50.302" width="18.493" height="18.126" filterUnits="userSpaceOnUse">
      <feOffset dy="2" input="SourceAlpha"/>
      <feGaussianBlur stdDeviation="2.5" result="blur-4"/>
      <feFlood flood-opacity="0.102"/>
      <feComposite operator="in" in2="blur-4"/>
      <feComposite in="SourceGraphic"/>
    </filter>
    <filter id="패스_93713" x="43.64" y="51.332" width="27.15" height="25.373" filterUnits="userSpaceOnUse">
      <feOffset dy="2" input="SourceAlpha"/>
      <feGaussianBlur stdDeviation="2.5" result="blur-5"/>
      <feFlood flood-opacity="0.102"/>
      <feComposite operator="in" in2="blur-5"/>
      <feComposite in="SourceGraphic"/>
    </filter>
    <filter id="사각형_152892" x="49.414" y="52.353" width="22.773" height="24.541" filterUnits="userSpaceOnUse">
      <feOffset dy="2" input="SourceAlpha"/>
      <feGaussianBlur stdDeviation="2.5" result="blur-6"/>
      <feFlood flood-opacity="0.102"/>
      <feComposite operator="in" in2="blur-6"/>
      <feComposite in="SourceGraphic"/>
    </filter>
    <filter id="사각형_152893" x="47.247" y="56.499" width="19.624" height="18.525" filterUnits="userSpaceOnUse">
      <feOffset dy="2" input="SourceAlpha"/>
      <feGaussianBlur stdDeviation="2.5" result="blur-7"/>
      <feFlood flood-opacity="0.102"/>
      <feComposite operator="in" in2="blur-7"/>
      <feComposite in="SourceGraphic"/>
    </filter>
    <filter id="사각형_152895" x="44.333" y="57.216" width="18.386" height="17.499" filterUnits="userSpaceOnUse">
      <feOffset dy="2" input="SourceAlpha"/>
      <feGaussianBlur stdDeviation="2.5" result="blur-8"/>
      <feFlood flood-opacity="0.102"/>
      <feComposite operator="in" in2="blur-8"/>
      <feComposite in="SourceGraphic"/>
    </filter>
    <filter id="사각형_152894" x="51.419" y="57.16" width="18.386" height="17.499" filterUnits="userSpaceOnUse">
      <feOffset dy="2" input="SourceAlpha"/>
      <feGaussianBlur stdDeviation="2.5" result="blur-9"/>
      <feFlood flood-opacity="0.102"/>
      <feComposite operator="in" in2="blur-9"/>
      <feComposite in="SourceGraphic"/>
    </filter>
  </defs>
  <rect id="사각형_152646" data-name="사각형 152646" width="100" height="100" fill="none"/>
  <g id="그룹_37020" data-name="그룹 37020" transform="translate(28.361 8.605)">
    <g id="그룹_37019" data-name="그룹 37019" transform="translate(0)">
      <path id="패스_93228" data-name="패스 93228" d="M14758.242,20804.537l-7.181-66.557a2.849,2.849,0,0,1-.062-.588c0-4.633,11.668-8.393,26.059-8.393s26.068,3.76,26.068,8.393a2.668,2.668,0,0,1-.067.588l-7.177,66.557c0,3.1-8.425,5.6-18.824,5.6S14758.242,20807.635,14758.242,20804.537Z" transform="translate(-14748.2 -20724.805)" fill="#eee"/>
      <path id="패스_93229" data-name="패스 93229" d="M14751,20743.391v-4.193h3.863c4.99-2.51,14.318-4.2,25-4.2s20.006,1.688,24.99,4.2h3.867v4.193c0,4.639-12.924,8.395-28.857,8.395S14751,20748.029,14751,20743.391Z" transform="translate(-14750.998 -20725.207)" fill="#1b8a00"/>
      <path id="패스_93230" data-name="패스 93230" d="M28.859,0C44.8,0,57.719,3.758,57.719,8.393S44.8,16.786,28.859,16.786,0,13.028,0,8.393,12.921,0,28.859,0Z" transform="translate(0.003 5.595)" fill="#0e7119"/>
      <path id="패스_93231" data-name="패스 93231" d="M14751,20742v-4.205h4.937c4.5-1.7,11.658-2.795,19.725-2.795s15.223,1.1,19.726,2.795h4.934V20742c0,3.859-11.04,6.992-24.659,6.992S14751,20745.859,14751,20742Z" transform="translate(-14746.8 -20730.805)" fill="#1b8a00"/>
      <path id="패스_93232" data-name="패스 93232" d="M24.663,0C38.284,0,49.326,3.131,49.326,6.994s-11.042,6.994-24.663,6.994S0,10.857,0,6.994,11.042,0,24.663,0Z" transform="translate(4.199)" fill="#0e7119"/>
    </g>
    <path id="패스_93234" data-name="패스 93234" d="M2.549,23.557c1.173,3.2,10.315,5.692,21.434,5.692s20.248-2.483,21.433-5.684L47.952.1C46.773,3.717,36.5,6.538,23.983,6.538,11.359,6.538,1.026,3.662,0,0Z" transform="translate(4.876 35.164)" fill="#62421d"/>
    <path id="패스_95200" data-name="패스 95200" d="M47.7,0l-.1.938H47.6a2.036,2.036,0,0,1-.544,1.305c-2.31,2.749-11.761,4.809-23.076,4.809C12.676,7.052,3.235,5,.91,2.254A2.044,2.044,0,0,1,.356.938H.346l-.1-.93A2,2,0,0,0,0,.938l.039.367a2.381,2.381,0,0,0,.449.949c2.232,2.98,11.9,5.222,23.487,5.222h.008l.387,0c11.425-.051,20.9-2.28,23.09-5.23a2.258,2.258,0,0,0,.48-1.178c0-.042.011-.085.011-.127A2,2,0,0,0,47.7,0" transform="translate(4.876 34.295)" fill="#916837"/>
    <g id="그룹_39292" data-name="그룹 39292" transform="translate(23.281 47.894)" opacity="0.75" style="mix-blend-mode: screen;isolation: isolate">
      <g id="그룹_39248" data-name="그룹 39248" transform="translate(9.075 0.507)">
        <g id="그룹_40095" data-name="그룹 40095" transform="translate(0 0)">
          <path id="패스_93705" data-name="패스 93705" d="M.689,1.825S1.772,1.653,1.671.67A.786.786,0,0,0,.559.071,1.172,1.172,0,0,0,0,1.3" fill="#fff"/>
        </g>
      </g>
      <path id="패스_93708" data-name="패스 93708" d="M1.52,1.562A1.113,1.113,0,0,0,1.143.094.787.787,0,0,0,.012.657,1.172,1.172,0,0,0,.7,1.818" transform="translate(1.312 0)" fill="#fff"/>
      <path id="패스_93711" data-name="패스 93711" d="M4.838.05A4.985,4.985,0,0,0,.018,4.691C-.244,8,2.436,9.9,6.659,9.432c4.412-.491,4.55-3.764,4.471-4.934-.1-1.538-.993-4.95-6.291-4.448" transform="translate(0 0.699)" fill="#fff"/>
      <g id="그룹_39269" data-name="그룹 39269" transform="translate(3.593 5.195)">
        <path id="패스_93715" data-name="패스 93715" d="M1.586.009C.6.079-.043.552,0,1.408c.036.688.586,1.1,1.685,1.111.819.007,1.791-.193,1.926-1.11.143-.971-.8-1.487-2.027-1.4" transform="translate(0 0)" fill="#e8e8e8"/>
        <path id="패스_93717" data-name="패스 93717" d="M.723.352A.362.362,0,1,1,.352,0,.362.362,0,0,1,.723.352" transform="translate(0.75 0.976)" fill="#c2c2c2"/>
        <path id="패스_93718" data-name="패스 93718" d="M.723.352A.362.362,0,1,1,.352,0,.362.362,0,0,1,.723.352" transform="translate(2.057 0.938)" fill="#c2c2c2"/>
      </g>
    </g>
  </g>
  <g id="그룹_37021" data-name="그룹 37021" transform="translate(8.283 37.319)">
    <path id="합치기_104" data-name="합치기 104" d="M0,16.313A16.183,16.183,0,0,1,16.05,0,16.183,16.183,0,0,1,32.1,16.313a16.527,16.527,0,0,1-.954,5.553l1.531,2.89a1,1,0,0,1-.884,1.468H28.8a15.937,15.937,0,0,1-12.75,6.4A16.183,16.183,0,0,1,0,16.313Z" transform="translate(0 0)" fill="#fd0"/>
    <path id="합치기_103" data-name="합치기 103" d="M19.231,0A.565.565,0,0,1,19.8.565V8.2a.566.566,0,0,1-.565.566ZM18.1,8.771V0h.565V8.771Zm-2.828,0V0h2.263V8.771Zm-1.7,0V0h.566V8.771Zm-1.131,0V0h.566V8.771Zm-1.7,0V0h1.131V8.771Zm-2.828,0V0H9.05V8.771Zm-1.131,0V0h.565V8.771Zm-2.829,0V0h1.7V8.771Zm-1.13,0V0h.565V8.771Zm-1.131,0V0h.565V8.771ZM0,7.639V1.131A1.131,1.131,0,0,1,1.131,0V8.771A1.132,1.132,0,0,1,0,7.639Z" transform="translate(6.324 12.298)" fill="#684822"/>
  </g>
</svg>
