<svg xmlns="http://www.w3.org/2000/svg" xmlns:xlink="http://www.w3.org/1999/xlink" width="100" height="100" viewBox="0 0 100 100">
  <defs>
    <linearGradient id="linear-gradient" x1="0.703" y1="1" x2="0.134" y2="0.053" gradientUnits="objectBoundingBox">
      <stop offset="0" stop-color="#fb1"/>
      <stop offset="1" stop-color="#f9a807"/>
    </linearGradient>
    <filter id="타원_9957">
      <feOffset dx="3" dy="3" input="SourceAlpha"/>
      <feGaussianBlur stdDeviation="1" result="blur"/>
      <feFlood flood-opacity="0.039" result="color"/>
      <feComposite operator="out" in="SourceGraphic" in2="blur"/>
      <feComposite operator="in" in="color"/>
      <feComposite operator="in" in2="SourceGraphic"/>
    </filter>
  </defs>
  <g id="img_100px_11" transform="translate(-112 -932.999)">
    <g id="그룹_40566" data-name="그룹 40566" transform="translate(121.29 950.252)">
      <g id="그룹_40560" data-name="그룹 40560" transform="translate(0 0)">
        <path id="패스_95669" data-name="패스 95669" d="M81.6,7.706a5.309,5.309,0,0,0-5.3-5.557H15.784a5.308,5.308,0,0,0-5.3,5.06l-.457,9.74H81.17Z" transform="translate(-3.372 -0.723)" fill="#c23232"/>
        <path id="패스_95670" data-name="패스 95670" d="M9.159,24.454,7.46,62.028a5.308,5.308,0,0,0,5.3,5.557H73.279a5.308,5.308,0,0,0,5.3-5.06L80.3,24.454Z" transform="translate(-2.508 -8.227)" fill="#d9b6b6"/>
        <path id="패스_95671" data-name="패스 95671" d="M79.758,9.467a5.309,5.309,0,0,0-5.3-5.557H13.939a5.308,5.308,0,0,0-5.3,5.06l-.457,9.74H79.325Z" transform="translate(-2.752 -1.315)" fill="#db3838"/>
        <path id="패스_95672" data-name="패스 95672" d="M7.314,26.215l-1.7,38.238a5.308,5.308,0,0,0,5.3,5.557H71.434a5.308,5.308,0,0,0,5.3-5.06l1.723-38.735Z" transform="translate(-1.887 -8.82)" fill="#e8c4c4"/>
        <path id="패스_95673" data-name="패스 95673" d="M77.763,11.277a5.309,5.309,0,0,0-5.3-5.557H11.944a5.308,5.308,0,0,0-5.3,5.06l-.457,9.74H77.33Z" transform="translate(-2.081 -1.924)" fill="#e54545"/>
        <path id="패스_95674" data-name="패스 95674" d="M5.32,28.024l-1.7,38.9a5.308,5.308,0,0,0,5.3,5.557H69.44a5.308,5.308,0,0,0,5.3-5.06l1.723-39.4Z" transform="translate(-1.216 -9.428)" fill="#efd3d3"/>
        <path id="패스_95675" data-name="패스 95675" d="M75.994,13.054a5.309,5.309,0,0,0-5.3-5.557H10.175a5.308,5.308,0,0,0-5.3,5.06L4.415,22.3H75.561Z" transform="translate(-1.485 -2.522)" fill="#ef5252"/>
        <path id="패스_95676" data-name="패스 95676" d="M3.551,29.8l-1.7,38.9a5.308,5.308,0,0,0,5.3,5.557H67.671a5.308,5.308,0,0,0,5.3-5.06L74.7,29.8Z" transform="translate(-0.621 -10.027)" fill="#ffecec"/>
        <path id="패스_95677" data-name="패스 95677" d="M74.149,14.815a5.309,5.309,0,0,0-5.3-5.557H8.33a5.308,5.308,0,0,0-5.3,5.06l-.457,9.74H73.716Z" transform="translate(-0.865 -3.115)" fill="#f56161"/>
        <path id="패스_95678" data-name="패스 95678" d="M1.705,31.563l-1.7,38.9a5.308,5.308,0,0,0,5.3,5.557H65.825a5.308,5.308,0,0,0,5.3-5.06l1.723-39.4Z" transform="translate(0 -10.619)" fill="#fff"/>
        <g id="그룹_40561" data-name="그룹 40561" transform="translate(7.581)">
          <path id="패스_95679" data-name="패스 95679" d="M12.589,13.442a1.394,1.394,0,1,1,1.393,1.394,1.394,1.394,0,0,1-1.393-1.394" transform="translate(-11.816 -4.054)" fill="#c12445"/>
          <path id="패스_95681" data-name="패스 95681" d="M22.152,13.442a1.394,1.394,0,1,1,1.393,1.394,1.394,1.394,0,0,1-1.393-1.394" transform="translate(-15.033 -4.054)" fill="#c12445"/>
          <path id="패스_95683" data-name="패스 95683" d="M31.715,13.442a1.394,1.394,0,1,1,1.393,1.394,1.394,1.394,0,0,1-1.393-1.394" transform="translate(-18.251 -4.054)" fill="#c12445"/>
          <path id="패스_95685" data-name="패스 95685" d="M41.278,13.442a1.394,1.394,0,1,1,1.393,1.394,1.394,1.394,0,0,1-1.393-1.394" transform="translate(-21.468 -4.054)" fill="#c12445"/>
          <path id="패스_95687" data-name="패스 95687" d="M50.84,13.442a1.394,1.394,0,1,1,1.393,1.394,1.394,1.394,0,0,1-1.393-1.394" transform="translate(-24.685 -4.054)" fill="#c12445"/>
          <path id="패스_95689" data-name="패스 95689" d="M60.4,13.442A1.394,1.394,0,1,1,61.8,14.837,1.394,1.394,0,0,1,60.4,13.442" transform="translate(-27.903 -4.054)" fill="#c12445"/>
          <path id="패스_95691" data-name="패스 95691" d="M69.966,13.442a1.394,1.394,0,1,1,1.393,1.394,1.394,1.394,0,0,1-1.393-1.394" transform="translate(-31.12 -4.054)" fill="#c12445"/>
          <path id="패스_95693" data-name="패스 95693" d="M79.529,13.442a1.394,1.394,0,1,1,1.393,1.394,1.394,1.394,0,0,1-1.393-1.394" transform="translate(-34.337 -4.054)" fill="#c12445"/>
          <path id="패스_95695" data-name="패스 95695" d="M89.091,13.442a1.394,1.394,0,1,1,1.393,1.394,1.394,1.394,0,0,1-1.393-1.394" transform="translate(-37.554 -4.054)" fill="#c12445"/>
          <path id="패스_95697" data-name="패스 95697" d="M98.654,13.442a1.394,1.394,0,1,1,1.393,1.394,1.394,1.394,0,0,1-1.393-1.394" transform="translate(-40.772 -4.054)" fill="#c12445"/>
          <path id="패스_95680" data-name="패스 95680" d="M17.8.894A2.866,2.866,0,0,0,15.9.005a3.778,3.778,0,0,0-2.73,1.117,4.642,4.642,0,0,0-.818.973,6.4,6.4,0,0,0-.922,3.726,5.227,5.227,0,0,0,1.788,4,.664.664,0,0,0,.785-1.07A4.042,4.042,0,0,1,12.758,5.76a4.584,4.584,0,0,1,1.3-3.645,3.306,3.306,0,0,1,1.106-.689,1.59,1.59,0,0,1,1.129,0H18.3Z" transform="translate(-11.424 0)" fill="#ffcd46"/>
          <path id="패스_95682" data-name="패스 95682" d="M27.364.894a2.866,2.866,0,0,0-1.9-.889,3.778,3.778,0,0,0-2.73,1.117,4.642,4.642,0,0,0-.818.973,6.4,6.4,0,0,0-.922,3.726,5.227,5.227,0,0,0,1.788,4,.664.664,0,0,0,.785-1.07A4.042,4.042,0,0,1,22.321,5.76a4.584,4.584,0,0,1,1.3-3.645,3.306,3.306,0,0,1,1.106-.689,1.59,1.59,0,0,1,1.129,0H27.86Z" transform="translate(-14.642 0)" fill="#ffcd46"/>
          <path id="패스_95684" data-name="패스 95684" d="M36.927.894a2.866,2.866,0,0,0-1.9-.889A3.778,3.778,0,0,0,32.3,1.123a4.642,4.642,0,0,0-.818.973,6.4,6.4,0,0,0-.922,3.726,5.227,5.227,0,0,0,1.788,4,.664.664,0,1,0,.785-1.07A4.042,4.042,0,0,1,31.884,5.76a4.584,4.584,0,0,1,1.3-3.645,3.306,3.306,0,0,1,1.106-.689,1.59,1.59,0,0,1,1.129,0h2.007Z" transform="translate(-17.859 0)" fill="#ffcd46"/>
          <path id="패스_95686" data-name="패스 95686" d="M46.491.894a2.866,2.866,0,0,0-1.9-.889,3.778,3.778,0,0,0-2.73,1.117,4.642,4.642,0,0,0-.818.973,6.4,6.4,0,0,0-.922,3.726,5.227,5.227,0,0,0,1.788,4,.664.664,0,0,0,.785-1.07A4.042,4.042,0,0,1,41.447,5.76a4.584,4.584,0,0,1,1.3-3.645,3.306,3.306,0,0,1,1.106-.689,1.59,1.59,0,0,1,1.129,0h2.007Z" transform="translate(-21.076 0)" fill="#ffcd46"/>
          <path id="패스_95688" data-name="패스 95688" d="M56.054.894a2.866,2.866,0,0,0-1.9-.889,3.778,3.778,0,0,0-2.73,1.117,4.642,4.642,0,0,0-.818.973,6.4,6.4,0,0,0-.922,3.726,5.227,5.227,0,0,0,1.788,4,.664.664,0,0,0,.785-1.07A4.042,4.042,0,0,1,51.01,5.76a4.584,4.584,0,0,1,1.3-3.645,3.306,3.306,0,0,1,1.106-.689,1.59,1.59,0,0,1,1.129,0h2.007Z" transform="translate(-24.294 0)" fill="#ffcd46"/>
          <path id="패스_95690" data-name="패스 95690" d="M65.615.894a2.866,2.866,0,0,0-1.9-.889,3.778,3.778,0,0,0-2.73,1.117,4.642,4.642,0,0,0-.818.973,6.4,6.4,0,0,0-.922,3.726,5.227,5.227,0,0,0,1.788,4,.664.664,0,1,0,.785-1.07A4.042,4.042,0,0,1,60.572,5.76a4.584,4.584,0,0,1,1.3-3.645,3.306,3.306,0,0,1,1.106-.689,1.59,1.59,0,0,1,1.129,0h2.007Z" transform="translate(-27.511 0)" fill="#ffcd46"/>
          <path id="패스_95692" data-name="패스 95692" d="M75.179.894a2.866,2.866,0,0,0-1.9-.889,3.778,3.778,0,0,0-2.73,1.117,4.642,4.642,0,0,0-.818.973,6.4,6.4,0,0,0-.922,3.726,5.227,5.227,0,0,0,1.788,4,.664.664,0,1,0,.785-1.07A4.042,4.042,0,0,1,70.135,5.76a4.584,4.584,0,0,1,1.3-3.645,3.306,3.306,0,0,1,1.106-.689,1.59,1.59,0,0,1,1.129,0h2.007Z" transform="translate(-30.728 0)" fill="#ffcd46"/>
          <path id="패스_95694" data-name="패스 95694" d="M84.742.894a2.866,2.866,0,0,0-1.9-.889,3.778,3.778,0,0,0-2.73,1.117,4.642,4.642,0,0,0-.818.973,6.4,6.4,0,0,0-.922,3.726,5.227,5.227,0,0,0,1.788,4,.664.664,0,0,0,.785-1.07A4.042,4.042,0,0,1,79.7,5.76a4.584,4.584,0,0,1,1.3-3.645A3.305,3.305,0,0,1,82.1,1.426a1.59,1.59,0,0,1,1.129,0h2.007Z" transform="translate(-33.945 0)" fill="#ffcd46"/>
          <path id="패스_95696" data-name="패스 95696" d="M94.3.894A2.866,2.866,0,0,0,92.4.005a3.778,3.778,0,0,0-2.73,1.117,4.642,4.642,0,0,0-.818.973,6.4,6.4,0,0,0-.922,3.726,5.227,5.227,0,0,0,1.788,4,.664.664,0,0,0,.785-1.07A4.042,4.042,0,0,1,89.261,5.76a4.584,4.584,0,0,1,1.3-3.645,3.306,3.306,0,0,1,1.106-.689,1.59,1.59,0,0,1,1.129,0H94.8Z" transform="translate(-37.163 0)" fill="#ffcd46"/>
          <path id="패스_95698" data-name="패스 95698" d="M103.867.894a2.868,2.868,0,0,0-1.9-.889,3.779,3.779,0,0,0-2.73,1.117,4.642,4.642,0,0,0-.818.973A6.4,6.4,0,0,0,97.5,5.822a5.227,5.227,0,0,0,1.788,4,.664.664,0,0,0,.786-1.07A4.04,4.04,0,0,1,98.823,5.76a4.586,4.586,0,0,1,1.3-3.645,3.318,3.318,0,0,1,1.106-.689,1.59,1.59,0,0,1,1.129,0h2.007Z" transform="translate(-40.38 0)" fill="#ffcd46"/>
        </g>
        <path id="패스_95171" data-name="패스 95171" d="M1858.064,8740.751a2.149,2.149,0,0,1-1.48-.59l-7.287-6.88a2.156,2.156,0,1,1,2.961-3.136l5.757,5.435,12.72-12.832a2.156,2.156,0,1,1,3.063,3.036l-14.2,14.327A2.148,2.148,0,0,1,1858.064,8740.751Z" transform="translate(-1823.984 -8692.229)" fill="#f56161"/>
      </g>
      <g id="그룹_40562" data-name="그룹 40562" transform="translate(40.224 46.371)">
        <g id="그룹_40065" data-name="그룹 40065" transform="translate(16.69 9.953)">
          <path id="패스_95224" data-name="패스 95224" d="M.5,8.5v2.815c0,2.581,5.38,4.673,12.017,4.673S24.533,13.9,24.533,11.315V8.5Z" transform="translate(-0.5 -3.827)" fill="#fbae0b"/>
          <ellipse id="타원_9956" data-name="타원 9956" cx="12.017" cy="4.673" rx="12.017" ry="4.673" transform="translate(0)" fill="#ffe45f"/>
          <ellipse id="타원_9957-2" data-name="타원 9957" cx="9.012" cy="3.171" rx="9.012" ry="3.171" transform="translate(3.004 1.502)" fill="#fbae0b"/>
          <path id="패스_95225" data-name="패스 95225" d="M10.374,1.445a.506.506,0,0,0-.167-.107,1.1,1.1,0,0,0-.248-.067,1.537,1.537,0,0,0-.288-.019l-.013,0H8.635L9.262.444A.176.176,0,0,0,9.314.316.2.2,0,0,0,9.247.19a.525.525,0,0,0-.168-.1A1.126,1.126,0,0,0,8.832.019,1.555,1.555,0,0,0,8.548,0a1.443,1.443,0,0,0-.278.035.9.9,0,0,0-.225.081A.373.373,0,0,0,7.912.23l-1.248,1.6-.777-1A.537.537,0,0,0,5.624.679a1.482,1.482,0,0,0-.828,0,.537.537,0,0,0-.262.156l-.777,1L2.511.231A.373.373,0,0,0,2.377.117.916.916,0,0,0,2.15.036,1.472,1.472,0,0,0,1.869,0a1.518,1.518,0,0,0-.286.017,1.09,1.09,0,0,0-.247.067.52.52,0,0,0-.169.1A.193.193,0,0,0,1.1.316a.176.176,0,0,0,.052.128l.627.806H.762a1.537,1.537,0,0,0-.288.019,1.1,1.1,0,0,0-.248.067.506.506,0,0,0-.167.107.17.17,0,0,0,0,.258.506.506,0,0,0,.167.107,1.1,1.1,0,0,0,.248.067,1.537,1.537,0,0,0,.288.019H2.286l.794,1.02a.52.52,0,0,0,.262.162,1.483,1.483,0,0,0,.846,0,.52.52,0,0,0,.262-.162l.774-1,.774,1a.537.537,0,0,0,.262.156,1.479,1.479,0,0,0,.828,0,.537.537,0,0,0,.262-.156l.794-1.019H9.672a1.537,1.537,0,0,0,.288-.019,1.1,1.1,0,0,0,.248-.067.506.506,0,0,0,.167-.107.187.187,0,0,0,.059-.128.187.187,0,0,0-.059-.128" transform="translate(6.8 3.488)" fill="#ffde00"/>
        </g>
        <g id="그룹_40563" data-name="그룹 40563" transform="translate(16.69 6.636)">
          <path id="패스_95224-2" data-name="패스 95224" d="M.5,8.5v2.815c0,2.581,5.38,4.673,12.017,4.673S24.533,13.9,24.533,11.315V8.5Z" transform="translate(-0.5 -3.827)" fill="#fbae0b"/>
          <ellipse id="타원_9956-2" data-name="타원 9956" cx="12.017" cy="4.673" rx="12.017" ry="4.673" transform="translate(0)" fill="#ffe45f"/>
          <ellipse id="타원_9957-3" data-name="타원 9957" cx="9.012" cy="3.171" rx="9.012" ry="3.171" transform="translate(3.004 1.502)" fill="#fbae0b"/>
          <path id="패스_95225-2" data-name="패스 95225" d="M10.374,1.445a.506.506,0,0,0-.167-.107,1.1,1.1,0,0,0-.248-.067,1.537,1.537,0,0,0-.288-.019l-.013,0H8.635L9.262.444A.176.176,0,0,0,9.314.316.2.2,0,0,0,9.247.19a.525.525,0,0,0-.168-.1A1.126,1.126,0,0,0,8.832.019,1.555,1.555,0,0,0,8.548,0a1.443,1.443,0,0,0-.278.035.9.9,0,0,0-.225.081A.373.373,0,0,0,7.912.23l-1.248,1.6-.777-1A.537.537,0,0,0,5.624.679a1.482,1.482,0,0,0-.828,0,.537.537,0,0,0-.262.156l-.777,1L2.511.231A.373.373,0,0,0,2.377.117.916.916,0,0,0,2.15.036,1.472,1.472,0,0,0,1.869,0a1.518,1.518,0,0,0-.286.017,1.09,1.09,0,0,0-.247.067.52.52,0,0,0-.169.1A.193.193,0,0,0,1.1.316a.176.176,0,0,0,.052.128l.627.806H.762a1.537,1.537,0,0,0-.288.019,1.1,1.1,0,0,0-.248.067.506.506,0,0,0-.167.107.17.17,0,0,0,0,.258.506.506,0,0,0,.167.107,1.1,1.1,0,0,0,.248.067,1.537,1.537,0,0,0,.288.019H2.286l.794,1.02a.52.52,0,0,0,.262.162,1.483,1.483,0,0,0,.846,0,.52.52,0,0,0,.262-.162l.774-1,.774,1a.537.537,0,0,0,.262.156,1.479,1.479,0,0,0,.828,0,.537.537,0,0,0,.262-.156l.794-1.019H9.672a1.537,1.537,0,0,0,.288-.019,1.1,1.1,0,0,0,.248-.067.506.506,0,0,0,.167-.107.187.187,0,0,0,.059-.128.187.187,0,0,0-.059-.128" transform="translate(6.8 3.488)" fill="#ffde00"/>
        </g>
        <g id="그룹_40565" data-name="그룹 40565" transform="translate(16.69 3.318)">
          <path id="패스_95224-3" data-name="패스 95224" d="M.5,8.5v2.815c0,2.581,5.38,4.673,12.017,4.673S24.533,13.9,24.533,11.315V8.5Z" transform="translate(-0.5 -3.827)" fill="#fbae0b"/>
          <ellipse id="타원_9956-3" data-name="타원 9956" cx="12.017" cy="4.673" rx="12.017" ry="4.673" transform="translate(0)" fill="#ffe45f"/>
          <ellipse id="타원_9957-4" data-name="타원 9957" cx="9.012" cy="3.171" rx="9.012" ry="3.171" transform="translate(3.004 1.502)" fill="#fbae0b"/>
          <path id="패스_95225-3" data-name="패스 95225" d="M10.374,1.445a.506.506,0,0,0-.167-.107,1.1,1.1,0,0,0-.248-.067,1.537,1.537,0,0,0-.288-.019l-.013,0H8.635L9.262.444A.176.176,0,0,0,9.314.316.2.2,0,0,0,9.247.19a.525.525,0,0,0-.168-.1A1.126,1.126,0,0,0,8.832.019,1.555,1.555,0,0,0,8.548,0a1.443,1.443,0,0,0-.278.035.9.9,0,0,0-.225.081A.373.373,0,0,0,7.912.23l-1.248,1.6-.777-1A.537.537,0,0,0,5.624.679a1.482,1.482,0,0,0-.828,0,.537.537,0,0,0-.262.156l-.777,1L2.511.231A.373.373,0,0,0,2.377.117.916.916,0,0,0,2.15.036,1.472,1.472,0,0,0,1.869,0a1.518,1.518,0,0,0-.286.017,1.09,1.09,0,0,0-.247.067.52.52,0,0,0-.169.1A.193.193,0,0,0,1.1.316a.176.176,0,0,0,.052.128l.627.806H.762a1.537,1.537,0,0,0-.288.019,1.1,1.1,0,0,0-.248.067.506.506,0,0,0-.167.107.17.17,0,0,0,0,.258.506.506,0,0,0,.167.107,1.1,1.1,0,0,0,.248.067,1.537,1.537,0,0,0,.288.019H2.286l.794,1.02a.52.52,0,0,0,.262.162,1.483,1.483,0,0,0,.846,0,.52.52,0,0,0,.262-.162l.774-1,.774,1a.537.537,0,0,0,.262.156,1.479,1.479,0,0,0,.828,0,.537.537,0,0,0,.262-.156l.794-1.019H9.672a1.537,1.537,0,0,0,.288-.019,1.1,1.1,0,0,0,.248-.067.506.506,0,0,0,.167-.107.187.187,0,0,0,.059-.128.187.187,0,0,0-.059-.128" transform="translate(6.8 3.488)" fill="#ffde00"/>
        </g>
        <g id="그룹_40564" data-name="그룹 40564" transform="translate(16.69 0)">
          <path id="패스_95224-4" data-name="패스 95224" d="M.5,8.5v2.815c0,2.581,5.38,4.673,12.017,4.673S24.533,13.9,24.533,11.315V8.5Z" transform="translate(-0.5 -3.827)" fill="#fbae0b"/>
          <ellipse id="타원_9956-4" data-name="타원 9956" cx="12.017" cy="4.673" rx="12.017" ry="4.673" transform="translate(0)" fill="#ffe45f"/>
          <ellipse id="타원_9957-5" data-name="타원 9957" cx="9.012" cy="3.171" rx="9.012" ry="3.171" transform="translate(3.004 1.502)" fill="#fbae0b"/>
          <path id="패스_95225-4" data-name="패스 95225" d="M10.374,1.445a.506.506,0,0,0-.167-.107,1.1,1.1,0,0,0-.248-.067,1.537,1.537,0,0,0-.288-.019l-.013,0H8.635L9.262.444A.176.176,0,0,0,9.314.316.2.2,0,0,0,9.247.19a.525.525,0,0,0-.168-.1A1.126,1.126,0,0,0,8.832.019,1.555,1.555,0,0,0,8.548,0a1.443,1.443,0,0,0-.278.035.9.9,0,0,0-.225.081A.373.373,0,0,0,7.912.23l-1.248,1.6-.777-1A.537.537,0,0,0,5.624.679a1.482,1.482,0,0,0-.828,0,.537.537,0,0,0-.262.156l-.777,1L2.511.231A.373.373,0,0,0,2.377.117.916.916,0,0,0,2.15.036,1.472,1.472,0,0,0,1.869,0a1.518,1.518,0,0,0-.286.017,1.09,1.09,0,0,0-.247.067.52.52,0,0,0-.169.1A.193.193,0,0,0,1.1.316a.176.176,0,0,0,.052.128l.627.806H.762a1.537,1.537,0,0,0-.288.019,1.1,1.1,0,0,0-.248.067.506.506,0,0,0-.167.107.17.17,0,0,0,0,.258.506.506,0,0,0,.167.107,1.1,1.1,0,0,0,.248.067,1.537,1.537,0,0,0,.288.019H2.286l.794,1.02a.52.52,0,0,0,.262.162,1.483,1.483,0,0,0,.846,0,.52.52,0,0,0,.262-.162l.774-1,.774,1a.537.537,0,0,0,.262.156,1.479,1.479,0,0,0,.828,0,.537.537,0,0,0,.262-.156l.794-1.019H9.672a1.537,1.537,0,0,0,.288-.019,1.1,1.1,0,0,0,.248-.067.506.506,0,0,0,.167-.107.187.187,0,0,0,.059-.128.187.187,0,0,0-.059-.128" transform="translate(6.8 3.488)" fill="#ffde00"/>
        </g>
        <g id="그룹_40089" data-name="그룹 40089" transform="translate(0 13.291)">
          <path id="패스_95224-5" data-name="패스 95224" d="M.5,8.5v2.815c0,2.581,5.38,4.673,12.016,4.673S24.533,13.9,24.533,11.315V8.5Z" transform="translate(-0.5 -3.827)" fill="#fbae0b"/>
          <ellipse id="타원_9956-5" data-name="타원 9956" cx="12.016" cy="4.673" rx="12.016" ry="4.673" fill="#ffe45f"/>
          <g data-type="innerShadowGroup">
            <ellipse id="타원_9957-6" data-name="타원 9957" cx="9.012" cy="3.171" rx="9.012" ry="3.171" transform="translate(3.004 1.502)" fill="url(#linear-gradient)"/>
            <g transform="matrix(1, 0, 0, 1, -49.51, -76.92)" filter="url(#타원_9957)">
              <ellipse id="타원_9957-7" data-name="타원 9957" cx="9.012" cy="3.171" rx="9.012" ry="3.171" transform="translate(52.52 78.42)" fill="#fff"/>
            </g>
          </g>
          <path id="패스_95225-5" data-name="패스 95225" d="M10.374,1.445a.506.506,0,0,0-.167-.107,1.1,1.1,0,0,0-.248-.067,1.537,1.537,0,0,0-.288-.019l-.013,0H8.635L9.262.444A.176.176,0,0,0,9.314.316.2.2,0,0,0,9.247.19a.525.525,0,0,0-.168-.1A1.126,1.126,0,0,0,8.832.019,1.555,1.555,0,0,0,8.548,0a1.443,1.443,0,0,0-.278.035.9.9,0,0,0-.225.081A.373.373,0,0,0,7.912.23l-1.248,1.6-.777-1A.537.537,0,0,0,5.624.679a1.482,1.482,0,0,0-.828,0,.537.537,0,0,0-.262.156l-.777,1L2.511.231A.373.373,0,0,0,2.377.117.916.916,0,0,0,2.15.036,1.472,1.472,0,0,0,1.869,0a1.518,1.518,0,0,0-.286.017,1.09,1.09,0,0,0-.247.067.52.52,0,0,0-.169.1A.193.193,0,0,0,1.1.316a.176.176,0,0,0,.052.128l.627.806H.762a1.537,1.537,0,0,0-.288.019,1.1,1.1,0,0,0-.248.067.506.506,0,0,0-.167.107.17.17,0,0,0,0,.258.506.506,0,0,0,.167.107,1.1,1.1,0,0,0,.248.067,1.537,1.537,0,0,0,.288.019H2.286l.794,1.02a.52.52,0,0,0,.262.162,1.483,1.483,0,0,0,.846,0,.52.52,0,0,0,.262-.162l.774-1,.774,1a.537.537,0,0,0,.262.156,1.479,1.479,0,0,0,.828,0,.537.537,0,0,0,.262-.156l.794-1.019H9.672a1.537,1.537,0,0,0,.288-.019,1.1,1.1,0,0,0,.248-.067.506.506,0,0,0,.167-.107.187.187,0,0,0,.059-.128.187.187,0,0,0-.059-.128" transform="translate(6.8 3.488)" fill="#ffde00"/>
        </g>
        <g id="그룹_40088" data-name="그룹 40088" transform="translate(0 9.953)">
          <path id="패스_95224-6" data-name="패스 95224" d="M.5,8.5v2.815c0,2.581,5.38,4.673,12.017,4.673S24.533,13.9,24.533,11.315V8.5Z" transform="translate(-0.5 -3.71)" fill="#fbae0b"/>
          <ellipse id="타원_9956-6" data-name="타원 9956" cx="12.016" cy="4.621" rx="12.016" ry="4.621" fill="#ffe45f"/>
          <ellipse id="타원_9957-8" data-name="타원 9957" cx="8.943" cy="3.171" rx="8.943" ry="3.171" transform="translate(2.823 1.619)" fill="#fbae0b"/>
          <path id="패스_95225-6" data-name="패스 95225" d="M10.374,1.445a.506.506,0,0,0-.167-.107,1.1,1.1,0,0,0-.248-.067,1.537,1.537,0,0,0-.288-.019l-.013,0H8.635L9.262.444A.176.176,0,0,0,9.314.316.2.2,0,0,0,9.247.19a.525.525,0,0,0-.168-.1A1.126,1.126,0,0,0,8.832.019,1.555,1.555,0,0,0,8.548,0a1.443,1.443,0,0,0-.278.035.9.9,0,0,0-.225.081A.373.373,0,0,0,7.912.23l-1.248,1.6-.777-1A.537.537,0,0,0,5.624.679a1.482,1.482,0,0,0-.828,0,.537.537,0,0,0-.262.156l-.777,1L2.511.231A.373.373,0,0,0,2.377.117.916.916,0,0,0,2.15.036,1.472,1.472,0,0,0,1.869,0a1.518,1.518,0,0,0-.286.017,1.09,1.09,0,0,0-.247.067.52.52,0,0,0-.169.1A.193.193,0,0,0,1.1.316a.176.176,0,0,0,.052.128l.627.806H.762a1.537,1.537,0,0,0-.288.019,1.1,1.1,0,0,0-.248.067.506.506,0,0,0-.167.107.17.17,0,0,0,0,.258.506.506,0,0,0,.167.107,1.1,1.1,0,0,0,.248.067,1.537,1.537,0,0,0,.288.019H2.286l.794,1.02a.52.52,0,0,0,.262.162,1.483,1.483,0,0,0,.846,0,.52.52,0,0,0,.262-.162l.774-1,.774,1a.537.537,0,0,0,.262.156,1.479,1.479,0,0,0,.828,0,.537.537,0,0,0,.262-.156l.794-1.019H9.672a1.537,1.537,0,0,0,.288-.019,1.1,1.1,0,0,0,.248-.067.506.506,0,0,0,.167-.107.187.187,0,0,0,.059-.128.187.187,0,0,0-.059-.128" transform="translate(6.551 3.604)" fill="#ffde00"/>
        </g>
      </g>
    </g>
    <rect id="area" width="100" height="100" transform="translate(112 932.999)" fill="none"/>
  </g>
</svg>
