<svg xmlns="http://www.w3.org/2000/svg" xmlns:xlink="http://www.w3.org/1999/xlink" width="100" height="100" viewBox="0 0 100 100">
  <defs>
    <linearGradient id="linear-gradient" x1="0.703" y1="1" x2="0.134" y2="0.053" gradientUnits="objectBoundingBox">
      <stop offset="0" stop-color="#fb1"/>
      <stop offset="1" stop-color="#f9a807"/>
    </linearGradient>
    <filter id="타원_9957">
      <feOffset dx="3" dy="3" input="SourceAlpha"/>
      <feGaussianBlur stdDeviation="1" result="blur"/>
      <feFlood flood-opacity="0.039" result="color"/>
      <feComposite operator="out" in="SourceGraphic" in2="blur"/>
      <feComposite operator="in" in="color"/>
      <feComposite operator="in" in2="SourceGraphic"/>
    </filter>
  </defs>
  <g id="img_100px_05" transform="translate(-356 -1188)">
    <g id="그룹_40580" data-name="그룹 40580" transform="translate(361.637 1195.406)">
      <g id="그룹_40578" data-name="그룹 40578" transform="translate(0 0)">
        <path id="합치기_142" data-name="합치기 142" d="M47.151,43.434H31.868L33.843,12.42H63.966L61.784,43.434Zm-30.564,0H0L2.183,12.42h31.66L31.868,43.434ZM2.183,12.42l.553-7.868A4.894,4.894,0,0,1,7.619,0H59.591a4.9,4.9,0,0,1,4.884,5.239l-.508,7.181Z" transform="translate(15.871 19.187)" fill="#bdf" stroke="rgba(0,0,0,0)" stroke-miterlimit="10" stroke-width="1"/>
        <path id="패스_95702" data-name="패스 95702" d="M62.825,81.172H1.226a1.224,1.224,0,0,1-.733-2.2L11.15,71H72.83l-6.073,8.192a4.893,4.893,0,0,1-3.932,1.98" transform="translate(4.72 -7.767)" fill="#529df3"/>
        <path id="패스_95703" data-name="패스 95703" d="M63.616,79.164H2.431A1.223,1.223,0,0,1,1.8,76.891L11.618,71H73.3L67.21,77.59a4.892,4.892,0,0,1-3.595,1.573" transform="translate(3.64 -7.767)" fill="#88c4ff"/>
        <path id="패스_95704" data-name="패스 95704" d="M64.682,77.328H4.251A1.223,1.223,0,0,1,3.736,75l8.589-4H74l-6.175,5.183a4.9,4.9,0,0,1-3.146,1.145" transform="translate(2.321 -7.767)" fill="#eff4ff"/>
        <path id="패스_95705" data-name="패스 95705" d="M84.087,5.238A4.894,4.894,0,0,0,79.205,0H27.232A4.894,4.894,0,0,0,22.35,4.55L21.8,12.419H83.581Z" transform="translate(-4.966 19.836)" fill="#fff"/>
        <path id="패스_95706" data-name="패스 95706" d="M47.321,20.3,45.346,51.315H60.627L62.6,20.3Z" transform="translate(-14.11 11.918)" fill="#88c4ff"/>
        <path id="패스_95707" data-name="패스 95707" d="M20.41,20.3,18.227,51.315h16.59L36.791,20.3Z" transform="translate(-3.581 11.918)" fill="#63abfe"/>
        <path id="패스_95708" data-name="패스 95708" d="M112.123,20.3H97.282L95.307,51.315h14.633Z" transform="translate(-33.508 11.918)" fill="#88c4ff"/>
        <path id="패스_95709" data-name="패스 95709" d="M72.3,20.3,70.327,51.315H85.608L87.583,20.3Z" transform="translate(-23.81 11.918)" fill="#63abfe"/>
        <path id="패스_95960" data-name="패스 95960" d="M23.691.167H-.166A.334.334,0,0,1-.5-.166.334.334,0,0,1-.166-.5H23.691a.334.334,0,0,1,.334.334A.334.334,0,0,1,23.691.167Z" transform="translate(16.815 65.541)" fill="#b2cdff"/>
        <path id="패스_95959" data-name="패스 95959" d="M14.515.167H-.166A.334.334,0,0,1-.5-.166.334.334,0,0,1-.166-.5H14.515a.334.334,0,0,1,.334.334A.334.334,0,0,1,14.515.167Z" transform="translate(14.368 67.376)" fill="#b2cdff"/>
        <g id="그룹_40602" data-name="그룹 40602" transform="translate(12.189 7.18) rotate(-25)">
          <path id="패스_95224" data-name="패스 95224" d="M0,0,.056,1.745c0,3.021,3.747,5.441,8.438,5.441s8.4-2.52,8.4-5.542L16.989,0Z" transform="translate(0 6.121)" fill="#fbae0b"/>
          <path id="패스_95958" data-name="패스 95958" d="M8.494,0c4.691,0,8.494,2.742,8.494,6.124s-3.8,6.124-8.494,6.124S0,9.506,0,6.124,3.8,0,8.494,0Z" transform="translate(0 0)" fill="#ffdb22"/>
          <path id="패스_95957" data-name="패스 95957" d="M6.717,0c3.709,0,6.717,2.078,6.717,4.642S10.426,9.285,6.717,9.285,0,7.206,0,4.642,3.007,0,6.717,0Z" transform="translate(1.778 1.284)" fill="#fbae0b"/>
          <path id="패스_95225" data-name="패스 95225" d="M7.291,1.716a.4.4,0,0,0-.117-.127A.547.547,0,0,0,7,1.51a.65.65,0,0,0-.2-.022l-.009,0h-.72L6.509.527A.3.3,0,0,0,6.546.376.3.3,0,0,0,6.5.226.408.408,0,0,0,6.381.1.562.562,0,0,0,6.207.023.657.657,0,0,0,6.008,0a.629.629,0,0,0-.2.041.5.5,0,0,0-.158.1.368.368,0,0,0-.094.135l-.877,1.9L4.137.992A.4.4,0,0,0,3.953.807a.639.639,0,0,0-.582,0,.4.4,0,0,0-.184.185L2.64,2.174,1.765.274A.368.368,0,0,0,1.671.139a.507.507,0,0,0-.16-.1.649.649,0,0,0-.4-.021A.544.544,0,0,0,.939.1.4.4,0,0,0,.821.225a.3.3,0,0,0-.047.15A.3.3,0,0,0,.81.526l.441.957H.535a.65.65,0,0,0-.2.023.546.546,0,0,0-.174.079.4.4,0,0,0-.117.127.3.3,0,0,0,0,.306.4.4,0,0,0,.117.127.547.547,0,0,0,.174.079.65.65,0,0,0,.2.022H1.607l.558,1.211a.4.4,0,0,0,.184.192.641.641,0,0,0,.594,0,.4.4,0,0,0,.184-.192l.544-1.181.544,1.181a.4.4,0,0,0,.184.185.638.638,0,0,0,.582,0,.4.4,0,0,0,.184-.185l.558-1.209H6.8A.649.649,0,0,0,7,2.226a.547.547,0,0,0,.174-.079.4.4,0,0,0,.117-.127.3.3,0,0,0,0-.3" transform="translate(4.828 4.263)" fill="#ffde00"/>
        </g>
        <g id="그룹_40603" data-name="그룹 40603" transform="translate(6.009 17.353) rotate(22)">
          <path id="패스_95224-2" data-name="패스 95224" d="M0,0,.068,2.037c0,3.66,4.539,6.591,10.222,6.591S20.471,5.574,20.471,1.914L20.58,0Z" transform="translate(0 7.414)" fill="#fbae0b"/>
          <path id="패스_95956" data-name="패스 95956" d="M10.29,0c5.683,0,10.29,3.321,10.29,7.418s-4.607,7.418-10.29,7.418S0,11.515,0,7.418,4.607,0,10.29,0Z" transform="translate(0 0)" fill="#ffdb22"/>
          <path id="패스_95955" data-name="패스 95955" d="M8.136,0c4.494,0,8.136,2.518,8.136,5.623s-3.643,5.623-8.136,5.623S0,8.729,0,5.623,3.643,0,8.136,0Z" transform="translate(2.154 1.555)" fill="#fbae0b"/>
          <path id="패스_95225-2" data-name="패스 95225" d="M8.832,2.078a.486.486,0,0,0-.142-.154.662.662,0,0,0-.211-.1A.787.787,0,0,0,8.234,1.8l-.011,0H7.352L7.885.639A.36.36,0,0,0,7.93.455.368.368,0,0,0,7.873.274.494.494,0,0,0,7.73.123a.681.681,0,0,0-.21-.1A.8.8,0,0,0,7.278,0a.762.762,0,0,0-.236.05A.6.6,0,0,0,6.85.167a.445.445,0,0,0-.114.164l-1.063,2.3L5.012,1.2A.488.488,0,0,0,4.788.977a.774.774,0,0,0-.705,0A.488.488,0,0,0,3.86,1.2L3.2,2.633,2.138.332A.445.445,0,0,0,2.024.168.614.614,0,0,0,1.83.052.786.786,0,0,0,1.348.026a.659.659,0,0,0-.21.1A.489.489,0,0,0,.994.273.365.365,0,0,0,.937.454.36.36,0,0,0,.982.638L1.515,1.8H.648A.788.788,0,0,0,.4,1.825a.662.662,0,0,0-.211.1.486.486,0,0,0-.142.154.366.366,0,0,0,0,.371A.486.486,0,0,0,.192,2.6a.662.662,0,0,0,.211.1.787.787,0,0,0,.245.027h1.3l.676,1.467a.486.486,0,0,0,.223.232.776.776,0,0,0,.72,0,.486.486,0,0,0,.223-.232l.659-1.431.659,1.431a.488.488,0,0,0,.223.224.773.773,0,0,0,.7,0,.488.488,0,0,0,.223-.224l.676-1.465h1.3A.787.787,0,0,0,8.479,2.7a.662.662,0,0,0,.211-.1.486.486,0,0,0,.142-.154.365.365,0,0,0,0-.369" transform="translate(5.849 5.164)" fill="#ffde00"/>
        </g>
      </g>
      <g id="그룹_40584" data-name="그룹 40584" transform="translate(43.071 55.423)">
        <g id="그룹_40065" data-name="그룹 40065" transform="translate(16.777 10.005)">
          <path id="패스_95224-3" data-name="패스 95224" d="M.5,8.5v2.83c0,2.594,5.408,4.7,12.079,4.7s12.079-2.1,12.079-4.7V8.5Z" transform="translate(-0.5 -3.803)" fill="#fbae0b"/>
          <ellipse id="타원_9956" data-name="타원 9956" cx="12.079" cy="4.697" rx="12.079" ry="4.697" transform="translate(0)" fill="#ffdb22"/>
          <ellipse id="타원_9957-2" data-name="타원 9957" cx="9.059" cy="3.188" rx="9.059" ry="3.188" transform="translate(3.02 1.51)" fill="#fbae0b"/>
          <path id="패스_95225-3" data-name="패스 95225" d="M10.428,1.453a.509.509,0,0,0-.168-.107,1.1,1.1,0,0,0-.249-.067,1.545,1.545,0,0,0-.289-.019l-.013,0H8.68L9.31.446A.177.177,0,0,0,9.363.318.2.2,0,0,0,9.3.191.527.527,0,0,0,9.127.086,1.132,1.132,0,0,0,8.878.019,1.563,1.563,0,0,0,8.593,0a1.451,1.451,0,0,0-.279.035.9.9,0,0,0-.226.081.375.375,0,0,0-.134.115L6.7,1.842l-.781-1A.54.54,0,0,0,5.654.683a1.489,1.489,0,0,0-.833,0,.54.54,0,0,0-.264.156l-.781,1L2.524.232A.375.375,0,0,0,2.39.117.921.921,0,0,0,2.161.036,1.479,1.479,0,0,0,1.879,0a1.526,1.526,0,0,0-.287.017,1.1,1.1,0,0,0-.248.067.523.523,0,0,0-.17.105.194.194,0,0,0-.067.127.177.177,0,0,0,.052.128l.63.811H.766a1.545,1.545,0,0,0-.289.019,1.1,1.1,0,0,0-.249.067A.509.509,0,0,0,.06,1.45a.171.171,0,0,0,0,.259.509.509,0,0,0,.168.107,1.1,1.1,0,0,0,.249.067A1.545,1.545,0,0,0,.765,1.9H2.3l.8,1.025a.522.522,0,0,0,.263.162,1.491,1.491,0,0,0,.85,0,.522.522,0,0,0,.263-.162l.778-1,.778,1a.54.54,0,0,0,.264.156,1.487,1.487,0,0,0,.832,0,.54.54,0,0,0,.264-.156l.8-1.024H9.722a1.545,1.545,0,0,0,.289-.019,1.1,1.1,0,0,0,.249-.067.509.509,0,0,0,.168-.107.188.188,0,0,0,.059-.129.188.188,0,0,0-.059-.129" transform="translate(6.835 3.506)" fill="#ffde00"/>
        </g>
        <g id="그룹_40563" data-name="그룹 40563" transform="translate(16.777 6.67)">
          <path id="패스_95224-4" data-name="패스 95224" d="M.5,8.5v2.83c0,2.594,5.408,4.7,12.079,4.7s12.079-2.1,12.079-4.7V8.5Z" transform="translate(-0.5 -3.803)" fill="#fbae0b"/>
          <ellipse id="타원_9956-2" data-name="타원 9956" cx="12.079" cy="4.697" rx="12.079" ry="4.697" transform="translate(0)" fill="#ffdb22"/>
          <ellipse id="타원_9957-3" data-name="타원 9957" cx="9.059" cy="3.188" rx="9.059" ry="3.188" transform="translate(3.02 1.51)" fill="#fbae0b"/>
          <path id="패스_95225-4" data-name="패스 95225" d="M10.428,1.453a.509.509,0,0,0-.168-.107,1.1,1.1,0,0,0-.249-.067,1.545,1.545,0,0,0-.289-.019l-.013,0H8.68L9.31.446A.177.177,0,0,0,9.363.318.2.2,0,0,0,9.3.191.527.527,0,0,0,9.127.086,1.132,1.132,0,0,0,8.878.019,1.563,1.563,0,0,0,8.593,0a1.451,1.451,0,0,0-.279.035.9.9,0,0,0-.226.081.375.375,0,0,0-.134.115L6.7,1.842l-.781-1A.54.54,0,0,0,5.654.683a1.489,1.489,0,0,0-.833,0,.54.54,0,0,0-.264.156l-.781,1L2.524.232A.375.375,0,0,0,2.39.117.921.921,0,0,0,2.161.036,1.479,1.479,0,0,0,1.879,0a1.526,1.526,0,0,0-.287.017,1.1,1.1,0,0,0-.248.067.523.523,0,0,0-.17.105.194.194,0,0,0-.067.127.177.177,0,0,0,.052.128l.63.811H.766a1.545,1.545,0,0,0-.289.019,1.1,1.1,0,0,0-.249.067A.509.509,0,0,0,.06,1.45a.171.171,0,0,0,0,.259.509.509,0,0,0,.168.107,1.1,1.1,0,0,0,.249.067A1.545,1.545,0,0,0,.765,1.9H2.3l.8,1.025a.522.522,0,0,0,.263.162,1.491,1.491,0,0,0,.85,0,.522.522,0,0,0,.263-.162l.778-1,.778,1a.54.54,0,0,0,.264.156,1.487,1.487,0,0,0,.832,0,.54.54,0,0,0,.264-.156l.8-1.024H9.722a1.545,1.545,0,0,0,.289-.019,1.1,1.1,0,0,0,.249-.067.509.509,0,0,0,.168-.107.188.188,0,0,0,.059-.129.188.188,0,0,0-.059-.129" transform="translate(6.835 3.506)" fill="#ffde00"/>
        </g>
        <g id="그룹_40565" data-name="그룹 40565" transform="translate(16.777 3.335)">
          <path id="패스_95224-5" data-name="패스 95224" d="M.5,8.5v2.83c0,2.594,5.408,4.7,12.079,4.7s12.079-2.1,12.079-4.7V8.5Z" transform="translate(-0.5 -3.803)" fill="#fbae0b"/>
          <ellipse id="타원_9956-3" data-name="타원 9956" cx="12.079" cy="4.697" rx="12.079" ry="4.697" transform="translate(0)" fill="#ffdb22"/>
          <ellipse id="타원_9957-4" data-name="타원 9957" cx="9.059" cy="3.188" rx="9.059" ry="3.188" transform="translate(3.02 1.51)" fill="#fbae0b"/>
          <path id="패스_95225-5" data-name="패스 95225" d="M10.428,1.453a.509.509,0,0,0-.168-.107,1.1,1.1,0,0,0-.249-.067,1.545,1.545,0,0,0-.289-.019l-.013,0H8.68L9.31.446A.177.177,0,0,0,9.363.318.2.2,0,0,0,9.3.191.527.527,0,0,0,9.127.086,1.132,1.132,0,0,0,8.878.019,1.563,1.563,0,0,0,8.593,0a1.451,1.451,0,0,0-.279.035.9.9,0,0,0-.226.081.375.375,0,0,0-.134.115L6.7,1.842l-.781-1A.54.54,0,0,0,5.654.683a1.489,1.489,0,0,0-.833,0,.54.54,0,0,0-.264.156l-.781,1L2.524.232A.375.375,0,0,0,2.39.117.921.921,0,0,0,2.161.036,1.479,1.479,0,0,0,1.879,0a1.526,1.526,0,0,0-.287.017,1.1,1.1,0,0,0-.248.067.523.523,0,0,0-.17.105.194.194,0,0,0-.067.127.177.177,0,0,0,.052.128l.63.811H.766a1.545,1.545,0,0,0-.289.019,1.1,1.1,0,0,0-.249.067A.509.509,0,0,0,.06,1.45a.171.171,0,0,0,0,.259.509.509,0,0,0,.168.107,1.1,1.1,0,0,0,.249.067A1.545,1.545,0,0,0,.765,1.9H2.3l.8,1.025a.522.522,0,0,0,.263.162,1.491,1.491,0,0,0,.85,0,.522.522,0,0,0,.263-.162l.778-1,.778,1a.54.54,0,0,0,.264.156,1.487,1.487,0,0,0,.832,0,.54.54,0,0,0,.264-.156l.8-1.024H9.722a1.545,1.545,0,0,0,.289-.019,1.1,1.1,0,0,0,.249-.067.509.509,0,0,0,.168-.107.188.188,0,0,0,.059-.129.188.188,0,0,0-.059-.129" transform="translate(6.835 3.506)" fill="#ffde00"/>
        </g>
        <g id="그룹_40564" data-name="그룹 40564" transform="translate(16.777 0)">
          <path id="패스_95224-6" data-name="패스 95224" d="M.5,8.5v2.83c0,2.594,5.408,4.7,12.079,4.7s12.079-2.1,12.079-4.7V8.5Z" transform="translate(-0.5 -3.803)" fill="#fbae0b"/>
          <ellipse id="타원_9956-4" data-name="타원 9956" cx="12.079" cy="4.697" rx="12.079" ry="4.697" transform="translate(0)" fill="#ffdb22"/>
          <ellipse id="타원_9957-5" data-name="타원 9957" cx="9.059" cy="3.188" rx="9.059" ry="3.188" transform="translate(3.02 1.51)" fill="#fbae0b"/>
          <path id="패스_95225-6" data-name="패스 95225" d="M10.428,1.453a.509.509,0,0,0-.168-.107,1.1,1.1,0,0,0-.249-.067,1.545,1.545,0,0,0-.289-.019l-.013,0H8.68L9.31.446A.177.177,0,0,0,9.363.318.2.2,0,0,0,9.3.191.527.527,0,0,0,9.127.086,1.132,1.132,0,0,0,8.878.019,1.563,1.563,0,0,0,8.593,0a1.451,1.451,0,0,0-.279.035.9.9,0,0,0-.226.081.375.375,0,0,0-.134.115L6.7,1.842l-.781-1A.54.54,0,0,0,5.654.683a1.489,1.489,0,0,0-.833,0,.54.54,0,0,0-.264.156l-.781,1L2.524.232A.375.375,0,0,0,2.39.117.921.921,0,0,0,2.161.036,1.479,1.479,0,0,0,1.879,0a1.526,1.526,0,0,0-.287.017,1.1,1.1,0,0,0-.248.067.523.523,0,0,0-.17.105.194.194,0,0,0-.067.127.177.177,0,0,0,.052.128l.63.811H.766a1.545,1.545,0,0,0-.289.019,1.1,1.1,0,0,0-.249.067A.509.509,0,0,0,.06,1.45a.171.171,0,0,0,0,.259.509.509,0,0,0,.168.107,1.1,1.1,0,0,0,.249.067A1.545,1.545,0,0,0,.765,1.9H2.3l.8,1.025a.522.522,0,0,0,.263.162,1.491,1.491,0,0,0,.85,0,.522.522,0,0,0,.263-.162l.778-1,.778,1a.54.54,0,0,0,.264.156,1.487,1.487,0,0,0,.832,0,.54.54,0,0,0,.264-.156l.8-1.024H9.722a1.545,1.545,0,0,0,.289-.019,1.1,1.1,0,0,0,.249-.067.509.509,0,0,0,.168-.107.188.188,0,0,0,.059-.129.188.188,0,0,0-.059-.129" transform="translate(6.835 3.506)" fill="#ffde00"/>
        </g>
        <g id="그룹_40089" data-name="그룹 40089" transform="translate(0 13.361)">
          <path id="패스_95224-7" data-name="패스 95224" d="M.5,8.5v2.83c0,2.594,5.408,4.7,12.079,4.7s12.079-2.1,12.079-4.7V8.5Z" transform="translate(-0.5 -3.803)" fill="#fbae0b"/>
          <ellipse id="타원_9956-5" data-name="타원 9956" cx="12.079" cy="4.697" rx="12.079" ry="4.697" fill="#ffdb22"/>
          <g data-type="innerShadowGroup">
            <ellipse id="타원_9957-6" data-name="타원 9957" cx="9.059" cy="3.188" rx="9.059" ry="3.188" transform="translate(3.02 1.51)" fill="url(#linear-gradient)"/>
            <g transform="matrix(1, 0, 0, 1, -48.71, -76.19)" filter="url(#타원_9957)">
              <ellipse id="타원_9957-7" data-name="타원 9957" cx="9.059" cy="3.188" rx="9.059" ry="3.188" transform="translate(51.73 77.7)" fill="#fff"/>
            </g>
          </g>
          <path id="패스_95225-7" data-name="패스 95225" d="M10.428,1.453a.509.509,0,0,0-.168-.107,1.1,1.1,0,0,0-.249-.067,1.545,1.545,0,0,0-.289-.019l-.013,0H8.68L9.31.446A.177.177,0,0,0,9.363.318.2.2,0,0,0,9.3.191.527.527,0,0,0,9.127.086,1.132,1.132,0,0,0,8.878.019,1.563,1.563,0,0,0,8.593,0a1.451,1.451,0,0,0-.279.035.9.9,0,0,0-.226.081.375.375,0,0,0-.134.115L6.7,1.842l-.781-1A.54.54,0,0,0,5.654.683a1.489,1.489,0,0,0-.833,0,.54.54,0,0,0-.264.156l-.781,1L2.524.232A.375.375,0,0,0,2.39.117.921.921,0,0,0,2.161.036,1.479,1.479,0,0,0,1.879,0a1.526,1.526,0,0,0-.287.017,1.1,1.1,0,0,0-.248.067.523.523,0,0,0-.17.105.194.194,0,0,0-.067.127.177.177,0,0,0,.052.128l.63.811H.766a1.545,1.545,0,0,0-.289.019,1.1,1.1,0,0,0-.249.067A.509.509,0,0,0,.06,1.45a.171.171,0,0,0,0,.259.509.509,0,0,0,.168.107,1.1,1.1,0,0,0,.249.067A1.545,1.545,0,0,0,.765,1.9H2.3l.8,1.025a.522.522,0,0,0,.263.162,1.491,1.491,0,0,0,.85,0,.522.522,0,0,0,.263-.162l.778-1,.778,1a.54.54,0,0,0,.264.156,1.487,1.487,0,0,0,.832,0,.54.54,0,0,0,.264-.156l.8-1.024H9.722a1.545,1.545,0,0,0,.289-.019,1.1,1.1,0,0,0,.249-.067.509.509,0,0,0,.168-.107.188.188,0,0,0,.059-.129.188.188,0,0,0-.059-.129" transform="translate(6.835 3.506)" fill="#ffde00"/>
        </g>
        <g id="그룹_40088" data-name="그룹 40088" transform="translate(0 10.005)">
          <path id="패스_95224-8" data-name="패스 95224" d="M.5,8.5v2.83c0,2.594,5.408,4.7,12.079,4.7s12.079-2.1,12.079-4.7V8.5Z" transform="translate(-0.5 -3.685)" fill="#fbae0b"/>
          <ellipse id="타원_9956-6" data-name="타원 9956" cx="12.079" cy="4.645" rx="12.079" ry="4.645" fill="#ffdb22"/>
          <ellipse id="타원_9957-8" data-name="타원 9957" cx="8.989" cy="3.187" rx="8.989" ry="3.187" transform="translate(2.837 1.627)" fill="#fbae0b"/>
          <path id="패스_95225-8" data-name="패스 95225" d="M10.428,1.453a.509.509,0,0,0-.168-.107,1.1,1.1,0,0,0-.249-.067,1.545,1.545,0,0,0-.289-.019l-.013,0H8.68L9.31.446A.177.177,0,0,0,9.363.318.2.2,0,0,0,9.3.191.527.527,0,0,0,9.127.086,1.132,1.132,0,0,0,8.878.019,1.563,1.563,0,0,0,8.593,0a1.451,1.451,0,0,0-.279.035.9.9,0,0,0-.226.081.375.375,0,0,0-.134.115L6.7,1.842l-.781-1A.54.54,0,0,0,5.654.683a1.489,1.489,0,0,0-.833,0,.54.54,0,0,0-.264.156l-.781,1L2.524.232A.375.375,0,0,0,2.39.117.921.921,0,0,0,2.161.036,1.479,1.479,0,0,0,1.879,0a1.526,1.526,0,0,0-.287.017,1.1,1.1,0,0,0-.248.067.523.523,0,0,0-.17.105.194.194,0,0,0-.067.127.177.177,0,0,0,.052.128l.63.811H.766a1.545,1.545,0,0,0-.289.019,1.1,1.1,0,0,0-.249.067A.509.509,0,0,0,.06,1.45a.171.171,0,0,0,0,.259.509.509,0,0,0,.168.107,1.1,1.1,0,0,0,.249.067A1.545,1.545,0,0,0,.765,1.9H2.3l.8,1.025a.522.522,0,0,0,.263.162,1.491,1.491,0,0,0,.85,0,.522.522,0,0,0,.263-.162l.778-1,.778,1a.54.54,0,0,0,.264.156,1.487,1.487,0,0,0,.832,0,.54.54,0,0,0,.264-.156l.8-1.024H9.722a1.545,1.545,0,0,0,.289-.019,1.1,1.1,0,0,0,.249-.067.509.509,0,0,0,.168-.107.188.188,0,0,0,.059-.129.188.188,0,0,0-.059-.129" transform="translate(6.585 3.623)" fill="#ffde00"/>
        </g>
      </g>
    </g>
    <rect id="area" width="100" height="100" transform="translate(356 1188)" fill="none"/>
  </g>
</svg>
