<svg xmlns="http://www.w3.org/2000/svg" width="100" height="100" viewBox="0 0 100 100">
  <g id="img_100px_03" transform="translate(-927 -1024.002)">
    <g id="그룹_38857" data-name="그룹 38857" transform="translate(1014.42 1069.073) rotate(72)">
      <rect id="사각형_152844" data-name="사각형 152844" width="22.619" height="36.757" rx="3" transform="translate(0 0)" fill="#41c872"/>
      <path id="사각형_152845" data-name="사각형 152845" d="M2.667,0H16.573A2.67,2.67,0,0,1,19.24,2.667V30.711a2.67,2.67,0,0,1-2.667,2.667H2.667A2.67,2.67,0,0,1,0,30.711V2.667A2.67,2.67,0,0,1,2.667,0ZM16.573,32.044a1.335,1.335,0,0,0,1.333-1.333V2.667a1.335,1.335,0,0,0-1.333-1.333H2.667A1.335,1.335,0,0,0,1.333,2.667V30.711a1.335,1.335,0,0,0,1.333,1.333Z" transform="translate(1.69 1.69)" fill="#fff" style="mix-blend-mode: soft-light;isolation: isolate"/>
      <path id="SYMBOL" d="M9.969,5.7a2.786,2.786,0,0,1-1.3,1.551A4.59,4.59,0,0,0,9.6,2.014c-.354-.628.1-.905.1-.905a.829.829,0,0,0-.711,1.112,4.272,4.272,0,0,1,.238,2.857l-.34-.191.005-.008A3.582,3.582,0,0,0,6.412.6V0h-.7V3.932L8.939,5.77q-.088.178-.186.337L5.516,4.232,2.263,6.108q-.1-.159-.186-.337L5.3,3.932V0H4.609V.6A3.582,3.582,0,0,0,2.13,4.883l.005.008-.34.191a4.272,4.272,0,0,1,.238-2.857.829.829,0,0,0-.711-1.112s.453.274.1.905a4.59,4.59,0,0,0,.935,5.236A2.785,2.785,0,0,1,1.051,5.7.946.946,0,0,0,0,5.236a1.06,1.06,0,0,1,.464.669A4.029,4.029,0,0,0,3.852,8.461V9.687H5.172V7.881A3.669,3.669,0,0,1,2.7,6.692L3.032,6.5A4.024,4.024,0,0,0,5.5,7.523h.016A4.024,4.024,0,0,0,7.985,6.5l.332.194A3.669,3.669,0,0,1,5.845,7.881v1.8H7.167V8.461a4.029,4.029,0,0,0,3.389-2.556,1.06,1.06,0,0,1,.463-.669.946.946,0,0,0-1.05.462M8.246,4.529h0L6.425,3.514l-.01-2.176h.01A2.715,2.715,0,0,1,8.246,4.528M4.593,1.338H4.6l-.01,2.176L2.775,4.532h0A2.715,2.715,0,0,1,4.593,1.338m.922,3.716,1.81,1.06h0l-.016-.009a2.87,2.87,0,0,1-1.8.683,2.87,2.87,0,0,1-1.8-.679l-.016.009h0Z" transform="translate(16.153 12.869) rotate(90)" fill="#fff" style="mix-blend-mode: soft-light;isolation: isolate"/>
    </g>
    <g id="그룹_38858" data-name="그룹 38858" transform="translate(1000.431 1049.78) rotate(41)">
      <rect id="사각형_152844-2" data-name="사각형 152844" width="21.95" height="35.67" rx="3" transform="translate(0 0)" fill="#7edb7b"/>
      <path id="사각형_152845-2" data-name="사각형 152845" d="M2.667,0H15.9a2.67,2.67,0,0,1,2.667,2.667V29.5A2.67,2.67,0,0,1,15.9,32.168H2.667A2.67,2.67,0,0,1,0,29.5V2.667A2.67,2.67,0,0,1,2.667,0ZM15.9,30.834A1.335,1.335,0,0,0,17.231,29.5V2.667A1.335,1.335,0,0,0,15.9,1.333H2.667A1.335,1.335,0,0,0,1.333,2.667V29.5a1.335,1.335,0,0,0,1.333,1.333Z" transform="translate(1.585 1.54)" fill="#fff" style="mix-blend-mode: soft-light;isolation: isolate"/>
      <path id="SYMBOL-2" data-name="SYMBOL" d="M9.593,5.484A2.68,2.68,0,0,1,8.339,6.977a4.417,4.417,0,0,0,.9-5.039c-.341-.6.093-.871.093-.871a.8.8,0,0,0-.684,1.07,4.111,4.111,0,0,1,.229,2.749L8.549,4.7l0-.007A3.447,3.447,0,0,0,6.17.575V0H5.5V3.784L8.6,5.552q-.085.172-.179.325l-3.115-1.8-3.131,1.8Q2.084,5.724,2,5.552L5.1,3.784V0H4.435V.575A3.447,3.447,0,0,0,2.05,4.7l0,.007-.327.184A4.111,4.111,0,0,1,1.956,2.14a.8.8,0,0,0-.684-1.07s.435.264.093.871a4.417,4.417,0,0,0,.9,5.039A2.68,2.68,0,0,1,1.011,5.487.911.911,0,0,0,0,5.039a1.02,1.02,0,0,1,.446.644,3.877,3.877,0,0,0,3.261,2.46V9.321h1.27V7.583A3.531,3.531,0,0,1,2.6,6.439l.32-.187a3.872,3.872,0,0,0,2.376.987h.016a3.872,3.872,0,0,0,2.374-.987L8,6.44A3.531,3.531,0,0,1,5.625,7.583V9.32H6.9V8.142a3.877,3.877,0,0,0,3.261-2.46,1.02,1.02,0,0,1,.445-.644.91.91,0,0,0-1.01.444M7.935,4.358h0L6.183,3.381,6.173,1.287h.009a2.613,2.613,0,0,1,1.752,3.07M4.42,1.287h.01L4.42,3.381l-1.75.98h0A2.613,2.613,0,0,1,4.42,1.287m.887,3.576,1.742,1.02h0l-.016-.009A2.761,2.761,0,0,1,5.3,6.532a2.761,2.761,0,0,1-1.734-.654l-.016.009h0Z" transform="translate(15.527 12.322) rotate(90)" fill="#fff" style="mix-blend-mode: soft-light;isolation: isolate"/>
    </g>
    <g id="그룹_40587" data-name="그룹 40587" transform="translate(945.074 1036.566)">
      <g id="그룹_40585" data-name="그룹 40585" transform="translate(0 0)">
        <path id="패스_95997" data-name="패스 95997" d="M10.667,0h28.18A10.667,10.667,0,0,1,49.513,10.667V63.6A10.667,10.667,0,0,1,38.847,74.27H10.667A10.667,10.667,0,0,1,0,63.6V10.667A10.667,10.667,0,0,1,10.667,0Z" transform="translate(50.754 74.27) rotate(180)" fill="#73a3ff"/>
        <path id="패스_95996" data-name="패스 95996" d="M10.667,0H36.746A10.667,10.667,0,0,1,47.412,10.667V63.6A10.667,10.667,0,0,1,36.746,74.27H10.667A10.667,10.667,0,0,1,0,63.6V10.667A10.667,10.667,0,0,1,10.667,0Z" transform="translate(47.412 76.031) rotate(180)" fill="#bad2ff"/>
        <path id="패스_95999" data-name="패스 95999" d="M33.734,67.817H8a8,8,0,0,1-8-8V8A8,8,0,0,1,8,0h6.106l1.058,1.852a2.987,2.987,0,0,0,2.588,1.5h6.229a2.987,2.987,0,0,0,2.588-1.5L27.627,0h6.106a8,8,0,0,1,8,8V59.817a8,8,0,0,1-8,8Z" transform="translate(3.006 5.16)" fill="#efefef"/>
        <path id="패스_95998" data-name="패스 95998" d="M8,66.891a8,8,0,0,1-8-8V7.074A7.947,7.947,0,0,1,2.343,1.418,8.127,8.127,0,0,1,3.07.773,7.971,7.971,0,0,1,6.509,0h6.106l1.058,1.852a2.986,2.986,0,0,0,2.588,1.5h6.229A2.988,2.988,0,0,0,24.74,2.329a2.986,2.986,0,0,0,1.829-1.4L27.1,0h5.145a8,8,0,0,1,8,8V59.817A7.947,7.947,0,0,1,37.9,65.474a8.121,8.121,0,0,1-.726.645,7.972,7.972,0,0,1-3.44.773Z" transform="translate(4.497 5.157)" fill="#fff"/>
      </g>
      <g id="그룹_40586" data-name="그룹 40586" transform="translate(10.882 27.032)">
        <path id="패스_95718" data-name="패스 95718" d="M12.423,0A12.426,12.426,0,1,1,0,12.426,12.425,12.425,0,0,1,12.423,0Z" transform="translate(1.153)" fill="#fbae0b"/>
        <path id="패스_95719" data-name="패스 95719" d="M12.423,0A12.426,12.426,0,1,1,0,12.426,12.425,12.425,0,0,1,12.423,0Z" transform="translate(0 0.063)" fill="#ffe028"/>
        <path id="패스_95720" data-name="패스 95720" d="M9.221,0a9.1,9.1,0,0,1,9.221,8.968,9.1,9.1,0,0,1-9.221,8.968A9.1,9.1,0,0,1,0,8.968,9.1,9.1,0,0,1,9.221,0Z" transform="translate(3.458 3.52)" fill="#fbae0b"/>
        <g id="그룹_40586-2" data-name="그룹 40586" transform="translate(7.255 9.918)">
          <path id="합치기_139" data-name="합치기 139" d="M6.438,5.913,5.152,2.359l-1.3,3.555A.592.592,0,0,1,3.3,6.3H3.286a.6.6,0,0,1-.553-.418L1.886,3.138H.593a.593.593,0,1,1,0-1.186H1.52L1.154.769A.593.593,0,1,1,2.287.418L3.347,3.85,4.6.417a.594.594,0,0,1,.557-.39h0a.592.592,0,0,1,.556.392L6.953,3.85,8.021.417A.593.593,0,0,1,9.154.77L8.786,1.953h.995a.593.593,0,0,1,0,1.186H8.417L7.562,5.886a.594.594,0,0,1-.553.417H6.995A.6.6,0,0,1,6.438,5.913Z" transform="translate(0 0)" fill="#ffde00"/>
        </g>
      </g>
    </g>
    <rect id="area" width="100" height="100" transform="translate(927 1024.002)" fill="none"/>
  </g>
</svg>
