<svg xmlns="http://www.w3.org/2000/svg" xmlns:xlink="http://www.w3.org/1999/xlink" width="122.142" height="120" viewBox="0 0 122.142 120">
  <defs>
    <linearGradient id="linear-gradient" x1="0.433" y1="-0.467" x2="0.575" y2="0.989" gradientUnits="objectBoundingBox">
      <stop offset="0" stop-color="#cfeeb1"/>
      <stop offset="1" stop-color="#47c575"/>
    </linearGradient>
    <filter id="패스_95527" x="2.558" y="45.532" width="119.584" height="70.265" filterUnits="userSpaceOnUse">
      <feOffset dy="3" input="SourceAlpha"/>
      <feGaussianBlur stdDeviation="3" result="blur"/>
      <feFlood flood-opacity="0.102"/>
      <feComposite operator="in" in2="blur"/>
      <feComposite in="SourceGraphic"/>
    </filter>
    <filter id="패스_95527-2" x="2.558" y="40.983" width="119.584" height="70.265" filterUnits="userSpaceOnUse">
      <feOffset dy="3" input="SourceAlpha"/>
      <feGaussianBlur stdDeviation="3" result="blur-2"/>
      <feFlood flood-opacity="0.102"/>
      <feComposite operator="in" in2="blur-2"/>
      <feComposite in="SourceGraphic"/>
    </filter>
    <filter id="패스_95527-3" x="2.558" y="36.433" width="119.584" height="70.265" filterUnits="userSpaceOnUse">
      <feOffset dy="3" input="SourceAlpha"/>
      <feGaussianBlur stdDeviation="3" result="blur-3"/>
      <feFlood flood-opacity="0.102"/>
      <feComposite operator="in" in2="blur-3"/>
      <feComposite in="SourceGraphic"/>
    </filter>
    <linearGradient id="linear-gradient-5" x1="0.5" y1="0" x2="0.577" y2="1.193" xlink:href="#linear-gradient"/>
    <filter id="패스_95527-4" x="2.558" y="31.884" width="119.584" height="70.265" filterUnits="userSpaceOnUse">
      <feOffset dy="3" input="SourceAlpha"/>
      <feGaussianBlur stdDeviation="3" result="blur-4"/>
      <feFlood flood-opacity="0.102"/>
      <feComposite operator="in" in2="blur-4"/>
      <feComposite in="SourceGraphic"/>
    </filter>
    <filter id="패스_95527-5" x="2.558" y="27.46" width="119.584" height="70.265" filterUnits="userSpaceOnUse">
      <feOffset dy="3" input="SourceAlpha"/>
      <feGaussianBlur stdDeviation="3" result="blur-5"/>
      <feFlood flood-opacity="0.102"/>
      <feComposite operator="in" in2="blur-5"/>
      <feComposite in="SourceGraphic"/>
    </filter>
    <linearGradient id="linear-gradient-7" x1="0.5" x2="0.778" y2="0.91" gradientUnits="objectBoundingBox">
      <stop offset="0" stop-color="#ffda20"/>
      <stop offset="1" stop-color="#ffe028"/>
    </linearGradient>
    <filter id="타원_9956">
      <feOffset dx="3" dy="3" input="SourceAlpha"/>
      <feGaussianBlur stdDeviation="3" result="blur-6"/>
      <feFlood flood-color="#fff" flood-opacity="0.349" result="color"/>
      <feComposite operator="out" in="SourceGraphic" in2="blur-6"/>
      <feComposite operator="in" in="color"/>
      <feComposite operator="in" in2="SourceGraphic"/>
    </filter>
    <linearGradient id="linear-gradient-8" x1="0.703" y1="1" x2="0.134" y2="0.053" gradientUnits="objectBoundingBox">
      <stop offset="0" stop-color="#fb1"/>
      <stop offset="1" stop-color="#f9a807"/>
    </linearGradient>
    <filter id="패스_96124">
      <feOffset dx="3" dy="3" input="SourceAlpha"/>
      <feGaussianBlur stdDeviation="1" result="blur-7"/>
      <feFlood flood-opacity="0.039" result="color-2"/>
      <feComposite operator="out" in="SourceGraphic" in2="blur-7"/>
      <feComposite operator="in" in="color-2"/>
      <feComposite operator="in" in2="SourceGraphic"/>
    </filter>
    <filter id="타원_9956-2">
      <feOffset dx="3" dy="3" input="SourceAlpha"/>
      <feGaussianBlur stdDeviation="3" result="blur-8"/>
      <feFlood flood-color="#fff" flood-opacity="0.349" result="color-3"/>
      <feComposite operator="out" in="SourceGraphic" in2="blur-8"/>
      <feComposite operator="in" in="color-3"/>
      <feComposite operator="in" in2="SourceGraphic"/>
    </filter>
    <filter id="패스_96125">
      <feOffset dx="3" dy="3" input="SourceAlpha"/>
      <feGaussianBlur stdDeviation="1" result="blur-9"/>
      <feFlood flood-opacity="0.039" result="color-4"/>
      <feComposite operator="out" in="SourceGraphic" in2="blur-9"/>
      <feComposite operator="in" in="color-4"/>
      <feComposite operator="in" in2="SourceGraphic"/>
    </filter>
    <linearGradient id="linear-gradient-11" y1="1" x2="0.778" y2="0.09" xlink:href="#linear-gradient-7"/>
    <filter id="타원_9956-3">
      <feOffset dx="3" dy="3" input="SourceAlpha"/>
      <feGaussianBlur stdDeviation="3" result="blur-10"/>
      <feFlood flood-color="#fff" flood-opacity="0.349" result="color-5"/>
      <feComposite operator="out" in="SourceGraphic" in2="blur-10"/>
      <feComposite operator="in" in="color-5"/>
      <feComposite operator="in" in2="SourceGraphic"/>
    </filter>
    <linearGradient id="linear-gradient-12" x1="0.703" y1="0" x2="0.134" y2="0.947" xlink:href="#linear-gradient-8"/>
    <filter id="패스_96126">
      <feOffset dx="3" dy="3" input="SourceAlpha"/>
      <feGaussianBlur stdDeviation="1" result="blur-11"/>
      <feFlood flood-opacity="0.039" result="color-6"/>
      <feComposite operator="out" in="SourceGraphic" in2="blur-11"/>
      <feComposite operator="in" in="color-6"/>
      <feComposite operator="in" in2="SourceGraphic"/>
    </filter>
  </defs>
  <g id="img_120px_소액부터고액까지" transform="translate(-0.006 -0.006)">
    <g id="그룹_40428" data-name="그룹 40428" transform="translate(11.564 8.609)">
      <g id="그룹_40425" data-name="그룹 40425" transform="translate(0 24.856)">
        <g id="그룹_40419" data-name="그룹 40419" transform="translate(0 22.622)">
          <g id="그룹_40420" data-name="그룹 40420" transform="translate(0 0)">
            <path id="패스_95527-6" data-name="패스 95527" d="M101.382,22.07a3.036,3.036,0,0,0-.967-1.144,5.44,5.44,0,0,0-1.7-.822L32.748.3a7.614,7.614,0,0,0-2-.3,9.343,9.343,0,0,0-2.083.191,8.505,8.505,0,0,0-1.927.635,5.713,5.713,0,0,0-1.526,1.029L1.011,25.381a3.389,3.389,0,0,0-.891,1.331,2.125,2.125,0,0,0-.032,1.314,2.487,2.487,0,0,0,.78,1.149,4.446,4.446,0,0,0,1.557.833L69.8,51.887A8.047,8.047,0,0,0,72,52.26a9.351,9.351,0,0,0,2.264-.2,8.287,8.287,0,0,0,2.055-.722,5.568,5.568,0,0,0,1.582-1.184l22.922-25.419a2.84,2.84,0,0,0,.715-1.344,2.138,2.138,0,0,0-.162-1.318" transform="translate(0 0)" fill="url(#linear-gradient)"/>
            <path id="패스_95528" data-name="패스 95528" d="M30.191,2.738h.136a5.188,5.188,0,0,1,1.365.208l.006,0L91.9,21.166a3.826,3.826,0,0,1,1.2.586,2.407,2.407,0,0,1,.758.919l0,.005A1.874,1.874,0,0,1,94,23.845l0,.014a2.333,2.333,0,0,1-.583,1.081L74.067,46.2a3.908,3.908,0,0,1-1.117.83,5.567,5.567,0,0,1-1.368.479,6.283,6.283,0,0,1-1.491.134,5.384,5.384,0,0,1-1.478-.247h0L7.388,27.676a3.282,3.282,0,0,1-1.139-.606,2.1,2.1,0,0,1-.663-.953L5.581,26.1A1.864,1.864,0,0,1,5.6,24.944l0-.007A2.616,2.616,0,0,1,6.277,23.9L26.565,4.027a4.016,4.016,0,0,1,1.08-.734,5.682,5.682,0,0,1,1.294-.428A6.229,6.229,0,0,1,30.191,2.738ZM31.354,4.1A3.994,3.994,0,0,0,30.3,3.939h-.113a5.032,5.032,0,0,0-1.014.1,4.494,4.494,0,0,0-1.026.34,2.825,2.825,0,0,0-.758.513L7.1,24.775a1.411,1.411,0,0,0-.368.558.671.671,0,0,0-.008.406.9.9,0,0,0,.283.4,2.09,2.09,0,0,0,.73.388l.012,0,61.225,19.72a4.19,4.19,0,0,0,1.149.191l.155,0a5.079,5.079,0,0,0,1.055-.111,4.379,4.379,0,0,0,1.078-.378,2.718,2.718,0,0,0,.776-.574l19.35-21.268a1.132,1.132,0,0,0,.284-.521.682.682,0,0,0-.047-.416,1.2,1.2,0,0,0-.378-.457,2.63,2.63,0,0,0-.828-.4l-.008,0Z" transform="translate(1.008 0.629)" fill="#fff" style="mix-blend-mode: soft-light;isolation: isolate"/>
            <path id="패스_95529" data-name="패스 95529" d="M59,20.537a3.373,3.373,0,0,0-.455,0,3.33,3.33,0,0,0-.462.059,3.121,3.121,0,0,0-.444.123,2.7,2.7,0,0,0-.4.179,2.011,2.011,0,0,0-.325.227,1.482,1.482,0,0,0-.242.257,1.006,1.006,0,0,0-.148.281,4.627,4.627,0,0,1-.384,1.1,5.9,5.9,0,0,1-.674,1.055,7.745,7.745,0,0,1-.949.992,9.981,9.981,0,0,1-1.2.91l-.463-.483.02-.007a6.9,6.9,0,0,0,1.922-1.84A3.939,3.939,0,0,0,55.5,21.39,3.321,3.321,0,0,0,55,19.466a5.057,5.057,0,0,0-1.724-1.634l.77-.8L52.6,16.594,47.5,21.86l4.313,4.6-.209.091-.208.088-.207.083-.206.08L46.69,22.137l-9.187.44a1.154,1.154,0,0,1,.008-.14,1.2,1.2,0,0,0,.008-.144c.006-.048.011-.1.019-.146L37.563,22l9.069-.408,5.1-5.282-1.422-.437-.772.8a14.206,14.206,0,0,0-3.347.068,13.9,13.9,0,0,0-3.108.8A10.4,10.4,0,0,0,40.53,18.94a6.146,6.146,0,0,0-1.684,1.9v.014l-.95.039a5.977,5.977,0,0,1,.692-1.052,7.9,7.9,0,0,1,.953-.978,10.1,10.1,0,0,1,1.19-.879,12.437,12.437,0,0,1,1.4-.769,2.1,2.1,0,0,0,.334-.221,1.532,1.532,0,0,0,.249-.251,1.063,1.063,0,0,0,.155-.273.8.8,0,0,0,.052-.282.727.727,0,0,0-.059-.278.857.857,0,0,0-.157-.248,1.24,1.24,0,0,0-.25-.213,1.781,1.781,0,0,0-.336-.168.433.433,0,0,1,.065.114.479.479,0,0,1,.026.29.777.777,0,0,1-.265.406,2.7,2.7,0,0,1-.808.455,12.506,12.506,0,0,0-2.616,1.575,8.149,8.149,0,0,0-1.765,1.895,5.174,5.174,0,0,0-.82,2.072,4.139,4.139,0,0,0,.227,2.105,3.228,3.228,0,0,1-.5-.674,2.609,2.609,0,0,1-.274-.728,2.484,2.484,0,0,1-.042-.762,2.81,2.81,0,0,1,.193-.777.846.846,0,0,0-.071-.455,1.1,1.1,0,0,0-.3-.387,1.819,1.819,0,0,0-.495-.29,2.794,2.794,0,0,0-.664-.169,1.1,1.1,0,0,1,.164.28.966.966,0,0,1,.066.3.979.979,0,0,1-.033.309,1.223,1.223,0,0,1-.133.309,3.709,3.709,0,0,0,.395,3.243,5.264,5.264,0,0,0,1.272,1.365,8.127,8.127,0,0,0,1.921,1.068L36.03,28.5l2.741.87,2.4-2.483a8.247,8.247,0,0,1-1.294-.611,6.214,6.214,0,0,1-1.037-.757,4.558,4.558,0,0,1-.757-.881,3.609,3.609,0,0,1-.455-.983l.942-.048a4.379,4.379,0,0,0,.58.91,5.6,5.6,0,0,0,.833.817,7.287,7.287,0,0,0,1.066.7,9.231,9.231,0,0,0,1.278.569l.034.01a13.01,13.01,0,0,0,1.532.312,14.8,14.8,0,0,0,1.617.14,15.976,15.976,0,0,0,1.666-.033,16.664,16.664,0,0,0,1.679-.208l.44.485a14.89,14.89,0,0,1-3.441.409,13.927,13.927,0,0,1-1.687-.1,12.114,12.114,0,0,1-1.6-.3l-2.394,2.491,2.759.876,1.625-1.692a14.051,14.051,0,0,0,2.631.367,16.28,16.28,0,0,0,5.4-.664,13.654,13.654,0,0,0,2.437-.991,2.889,2.889,0,0,1,.395-.227,3.74,3.74,0,0,1,.448-.183,4,4,0,0,1,.488-.13,4.331,4.331,0,0,1,.514-.071,2.476,2.476,0,0,0-.622-.234,3.363,3.363,0,0,0-.715-.088,3.834,3.834,0,0,0-.748.059,3.545,3.545,0,0,0-.722.208v0a8.823,8.823,0,0,1-1.066.513,10.1,10.1,0,0,1-1.171.39,11.024,11.024,0,0,1-1.244.257,11.308,11.308,0,0,1-1.285.114,17.077,17.077,0,0,0,3.29-1.024,13.056,13.056,0,0,0,2.672-1.518,8.613,8.613,0,0,0,1.885-1.874,5.35,5.35,0,0,0,.93-2.125,1.08,1.08,0,0,1,.243-.637,1.322,1.322,0,0,1,.467-.349,2,2,0,0,1,.455-.147,1.756,1.756,0,0,1,.2-.03,2.884,2.884,0,0,0-.44-.071M41.893,19.382a7.832,7.832,0,0,1,1.888-1.044,10.458,10.458,0,0,1,2.293-.606,10.82,10.82,0,0,1,2.478-.083l.022.007-2.855,2.916-5.084.206a4.685,4.685,0,0,1,1.258-1.4m6.069,6.469a11.405,11.405,0,0,1-2.406.129,10.328,10.328,0,0,1-1.153-.124,9.08,9.08,0,0,1-1.085-.248,6.95,6.95,0,0,1-.949-.389,5.488,5.488,0,0,1-.8-.488,4.131,4.131,0,0,1-.635-.569,3.285,3.285,0,0,1-.455-.647h-.046l5.173-.264,2.373,2.623Zm4.018-1.537v0l-2.467-2.559,2.8-2.941.02.006a3.716,3.716,0,0,1,1.228,1.227,2.507,2.507,0,0,1,.347,1.429,3,3,0,0,1-.53,1.479,5.166,5.166,0,0,1-1.4,1.365" transform="translate(4.653 2.098)" fill="#fff" style="mix-blend-mode: soft-light;isolation: isolate"/>
          </g>
        </g>
        <g id="그룹_40421" data-name="그룹 40421" transform="translate(0 18.072)">
          <g id="그룹_40420-2" data-name="그룹 40420" transform="translate(0 0)">
            <g transform="matrix(1, 0, 0, 1, -11.56, -51.53)" filter="url(#패스_95527)">
              <path id="패스_95527-7" data-name="패스 95527" d="M101.382,22.07a3.036,3.036,0,0,0-.967-1.144,5.44,5.44,0,0,0-1.7-.822L32.748.3a7.614,7.614,0,0,0-2-.3,9.343,9.343,0,0,0-2.083.191,8.505,8.505,0,0,0-1.927.635,5.713,5.713,0,0,0-1.526,1.029L1.011,25.381a3.389,3.389,0,0,0-.891,1.331,2.125,2.125,0,0,0-.032,1.314,2.487,2.487,0,0,0,.78,1.149,4.446,4.446,0,0,0,1.557.833L69.8,51.887A8.047,8.047,0,0,0,72,52.26a9.351,9.351,0,0,0,2.264-.2,8.287,8.287,0,0,0,2.055-.722,5.568,5.568,0,0,0,1.582-1.184l22.922-25.419a2.84,2.84,0,0,0,.715-1.344,2.138,2.138,0,0,0-.162-1.318" transform="translate(11.56 51.53)" fill="url(#linear-gradient)"/>
            </g>
            <path id="패스_95528-2" data-name="패스 95528" d="M30.191,2.738h.136a5.188,5.188,0,0,1,1.365.208l.006,0L91.9,21.166a3.826,3.826,0,0,1,1.2.586,2.407,2.407,0,0,1,.758.919l0,.005A1.874,1.874,0,0,1,94,23.845l0,.014a2.333,2.333,0,0,1-.583,1.081L74.067,46.2a3.908,3.908,0,0,1-1.117.83,5.567,5.567,0,0,1-1.368.479,6.283,6.283,0,0,1-1.491.134,5.384,5.384,0,0,1-1.478-.247h0L7.388,27.676a3.282,3.282,0,0,1-1.139-.606,2.1,2.1,0,0,1-.663-.953L5.581,26.1A1.864,1.864,0,0,1,5.6,24.944l0-.007A2.616,2.616,0,0,1,6.277,23.9L26.565,4.027a4.016,4.016,0,0,1,1.08-.734,5.682,5.682,0,0,1,1.294-.428A6.229,6.229,0,0,1,30.191,2.738ZM31.354,4.1A3.994,3.994,0,0,0,30.3,3.939h-.113a5.032,5.032,0,0,0-1.014.1,4.494,4.494,0,0,0-1.026.34,2.825,2.825,0,0,0-.758.513L7.1,24.775a1.411,1.411,0,0,0-.368.558.671.671,0,0,0-.008.406.9.9,0,0,0,.283.4,2.09,2.09,0,0,0,.73.388l.012,0,61.225,19.72a4.19,4.19,0,0,0,1.149.191l.155,0a5.079,5.079,0,0,0,1.055-.111,4.379,4.379,0,0,0,1.078-.378,2.718,2.718,0,0,0,.776-.574l19.35-21.268a1.132,1.132,0,0,0,.284-.521.682.682,0,0,0-.047-.416,1.2,1.2,0,0,0-.378-.457,2.63,2.63,0,0,0-.828-.4l-.008,0Z" transform="translate(1.008 0.629)" fill="#fff" style="mix-blend-mode: soft-light;isolation: isolate"/>
            <path id="패스_95529-2" data-name="패스 95529" d="M59,20.537a3.373,3.373,0,0,0-.455,0,3.33,3.33,0,0,0-.462.059,3.121,3.121,0,0,0-.444.123,2.7,2.7,0,0,0-.4.179,2.011,2.011,0,0,0-.325.227,1.482,1.482,0,0,0-.242.257,1.006,1.006,0,0,0-.148.281,4.627,4.627,0,0,1-.384,1.1,5.9,5.9,0,0,1-.674,1.055,7.745,7.745,0,0,1-.949.992,9.981,9.981,0,0,1-1.2.91l-.463-.483.02-.007a6.9,6.9,0,0,0,1.922-1.84A3.939,3.939,0,0,0,55.5,21.39,3.321,3.321,0,0,0,55,19.466a5.057,5.057,0,0,0-1.724-1.634l.77-.8L52.6,16.594,47.5,21.86l4.313,4.6-.209.091-.208.088-.207.083-.206.08L46.69,22.137l-9.187.44a1.154,1.154,0,0,1,.008-.14,1.2,1.2,0,0,0,.008-.144c.006-.048.011-.1.019-.146L37.563,22l9.069-.408,5.1-5.282-1.422-.437-.772.8a14.206,14.206,0,0,0-3.347.068,13.9,13.9,0,0,0-3.108.8A10.4,10.4,0,0,0,40.53,18.94a6.146,6.146,0,0,0-1.684,1.9v.014l-.95.039a5.977,5.977,0,0,1,.692-1.052,7.9,7.9,0,0,1,.953-.978,10.1,10.1,0,0,1,1.19-.879,12.437,12.437,0,0,1,1.4-.769,2.1,2.1,0,0,0,.334-.221,1.532,1.532,0,0,0,.249-.251,1.063,1.063,0,0,0,.155-.273.8.8,0,0,0,.052-.282.727.727,0,0,0-.059-.278.857.857,0,0,0-.157-.248,1.24,1.24,0,0,0-.25-.213,1.781,1.781,0,0,0-.336-.168.433.433,0,0,1,.065.114.479.479,0,0,1,.026.29.777.777,0,0,1-.265.406,2.7,2.7,0,0,1-.808.455,12.506,12.506,0,0,0-2.616,1.575,8.149,8.149,0,0,0-1.765,1.895,5.174,5.174,0,0,0-.82,2.072,4.139,4.139,0,0,0,.227,2.105,3.228,3.228,0,0,1-.5-.674,2.609,2.609,0,0,1-.274-.728,2.484,2.484,0,0,1-.042-.762,2.81,2.81,0,0,1,.193-.777.846.846,0,0,0-.071-.455,1.1,1.1,0,0,0-.3-.387,1.819,1.819,0,0,0-.495-.29,2.794,2.794,0,0,0-.664-.169,1.1,1.1,0,0,1,.164.28.966.966,0,0,1,.066.3.979.979,0,0,1-.033.309,1.223,1.223,0,0,1-.133.309,3.709,3.709,0,0,0,.395,3.243,5.264,5.264,0,0,0,1.272,1.365,8.127,8.127,0,0,0,1.921,1.068L36.03,28.5l2.741.87,2.4-2.483a8.247,8.247,0,0,1-1.294-.611,6.214,6.214,0,0,1-1.037-.757,4.558,4.558,0,0,1-.757-.881,3.609,3.609,0,0,1-.455-.983l.942-.048a4.379,4.379,0,0,0,.58.91,5.6,5.6,0,0,0,.833.817,7.287,7.287,0,0,0,1.066.7,9.231,9.231,0,0,0,1.278.569l.034.01a13.01,13.01,0,0,0,1.532.312,14.8,14.8,0,0,0,1.617.14,15.976,15.976,0,0,0,1.666-.033,16.664,16.664,0,0,0,1.679-.208l.44.485a14.89,14.89,0,0,1-3.441.409,13.927,13.927,0,0,1-1.687-.1,12.114,12.114,0,0,1-1.6-.3l-2.394,2.491,2.759.876,1.625-1.692a14.051,14.051,0,0,0,2.631.367,16.28,16.28,0,0,0,5.4-.664,13.654,13.654,0,0,0,2.437-.991,2.889,2.889,0,0,1,.395-.227,3.74,3.74,0,0,1,.448-.183,4,4,0,0,1,.488-.13,4.331,4.331,0,0,1,.514-.071,2.476,2.476,0,0,0-.622-.234,3.363,3.363,0,0,0-.715-.088,3.834,3.834,0,0,0-.748.059,3.545,3.545,0,0,0-.722.208v0a8.823,8.823,0,0,1-1.066.513,10.1,10.1,0,0,1-1.171.39,11.024,11.024,0,0,1-1.244.257,11.308,11.308,0,0,1-1.285.114,17.077,17.077,0,0,0,3.29-1.024,13.056,13.056,0,0,0,2.672-1.518,8.613,8.613,0,0,0,1.885-1.874,5.35,5.35,0,0,0,.93-2.125,1.08,1.08,0,0,1,.243-.637,1.322,1.322,0,0,1,.467-.349,2,2,0,0,1,.455-.147,1.756,1.756,0,0,1,.2-.03,2.884,2.884,0,0,0-.44-.071M41.893,19.382a7.832,7.832,0,0,1,1.888-1.044,10.458,10.458,0,0,1,2.293-.606,10.82,10.82,0,0,1,2.478-.083l.022.007-2.855,2.916-5.084.206a4.685,4.685,0,0,1,1.258-1.4m6.069,6.469a11.405,11.405,0,0,1-2.406.129,10.328,10.328,0,0,1-1.153-.124,9.08,9.08,0,0,1-1.085-.248,6.95,6.95,0,0,1-.949-.389,5.488,5.488,0,0,1-.8-.488,4.131,4.131,0,0,1-.635-.569,3.285,3.285,0,0,1-.455-.647h-.046l5.173-.264,2.373,2.623Zm4.018-1.537v0l-2.467-2.559,2.8-2.941.02.006a3.716,3.716,0,0,1,1.228,1.227,2.507,2.507,0,0,1,.347,1.429,3,3,0,0,1-.53,1.479,5.166,5.166,0,0,1-1.4,1.365" transform="translate(4.653 2.098)" fill="#fff" style="mix-blend-mode: soft-light;isolation: isolate"/>
          </g>
        </g>
        <g id="그룹_40422" data-name="그룹 40422" transform="translate(0 13.523)">
          <g id="그룹_40420-3" data-name="그룹 40420" transform="translate(0 0)">
            <g transform="matrix(1, 0, 0, 1, -11.56, -46.98)" filter="url(#패스_95527-2)">
              <path id="패스_95527-8" data-name="패스 95527" d="M101.382,22.07a3.036,3.036,0,0,0-.967-1.144,5.44,5.44,0,0,0-1.7-.822L32.748.3a7.614,7.614,0,0,0-2-.3,9.343,9.343,0,0,0-2.083.191,8.505,8.505,0,0,0-1.927.635,5.713,5.713,0,0,0-1.526,1.029L1.011,25.381a3.389,3.389,0,0,0-.891,1.331,2.125,2.125,0,0,0-.032,1.314,2.487,2.487,0,0,0,.78,1.149,4.446,4.446,0,0,0,1.557.833L69.8,51.887A8.047,8.047,0,0,0,72,52.26a9.351,9.351,0,0,0,2.264-.2,8.287,8.287,0,0,0,2.055-.722,5.568,5.568,0,0,0,1.582-1.184l22.922-25.419a2.84,2.84,0,0,0,.715-1.344,2.138,2.138,0,0,0-.162-1.318" transform="translate(11.56 46.98)" fill="url(#linear-gradient)"/>
            </g>
            <path id="패스_95528-3" data-name="패스 95528" d="M30.191,2.738h.136a5.188,5.188,0,0,1,1.365.208l.006,0L91.9,21.166a3.826,3.826,0,0,1,1.2.586,2.407,2.407,0,0,1,.758.919l0,.005A1.874,1.874,0,0,1,94,23.845l0,.014a2.333,2.333,0,0,1-.583,1.081L74.067,46.2a3.908,3.908,0,0,1-1.117.83,5.567,5.567,0,0,1-1.368.479,6.283,6.283,0,0,1-1.491.134,5.384,5.384,0,0,1-1.478-.247h0L7.388,27.676a3.282,3.282,0,0,1-1.139-.606,2.1,2.1,0,0,1-.663-.953L5.581,26.1A1.864,1.864,0,0,1,5.6,24.944l0-.007A2.616,2.616,0,0,1,6.277,23.9L26.565,4.027a4.016,4.016,0,0,1,1.08-.734,5.682,5.682,0,0,1,1.294-.428A6.229,6.229,0,0,1,30.191,2.738ZM31.354,4.1A3.994,3.994,0,0,0,30.3,3.939h-.113a5.032,5.032,0,0,0-1.014.1,4.494,4.494,0,0,0-1.026.34,2.825,2.825,0,0,0-.758.513L7.1,24.775a1.411,1.411,0,0,0-.368.558.671.671,0,0,0-.008.406.9.9,0,0,0,.283.4,2.09,2.09,0,0,0,.73.388l.012,0,61.225,19.72a4.19,4.19,0,0,0,1.149.191l.155,0a5.079,5.079,0,0,0,1.055-.111,4.379,4.379,0,0,0,1.078-.378,2.718,2.718,0,0,0,.776-.574l19.35-21.268a1.132,1.132,0,0,0,.284-.521.682.682,0,0,0-.047-.416,1.2,1.2,0,0,0-.378-.457,2.63,2.63,0,0,0-.828-.4l-.008,0Z" transform="translate(1.008 0.629)" fill="#fff" style="mix-blend-mode: soft-light;isolation: isolate"/>
            <path id="패스_95529-3" data-name="패스 95529" d="M59,20.537a3.373,3.373,0,0,0-.455,0,3.33,3.33,0,0,0-.462.059,3.121,3.121,0,0,0-.444.123,2.7,2.7,0,0,0-.4.179,2.011,2.011,0,0,0-.325.227,1.482,1.482,0,0,0-.242.257,1.006,1.006,0,0,0-.148.281,4.627,4.627,0,0,1-.384,1.1,5.9,5.9,0,0,1-.674,1.055,7.745,7.745,0,0,1-.949.992,9.981,9.981,0,0,1-1.2.91l-.463-.483.02-.007a6.9,6.9,0,0,0,1.922-1.84A3.939,3.939,0,0,0,55.5,21.39,3.321,3.321,0,0,0,55,19.466a5.057,5.057,0,0,0-1.724-1.634l.77-.8L52.6,16.594,47.5,21.86l4.313,4.6-.209.091-.208.088-.207.083-.206.08L46.69,22.137l-9.187.44a1.154,1.154,0,0,1,.008-.14,1.2,1.2,0,0,0,.008-.144c.006-.048.011-.1.019-.146L37.563,22l9.069-.408,5.1-5.282-1.422-.437-.772.8a14.206,14.206,0,0,0-3.347.068,13.9,13.9,0,0,0-3.108.8A10.4,10.4,0,0,0,40.53,18.94a6.146,6.146,0,0,0-1.684,1.9v.014l-.95.039a5.977,5.977,0,0,1,.692-1.052,7.9,7.9,0,0,1,.953-.978,10.1,10.1,0,0,1,1.19-.879,12.437,12.437,0,0,1,1.4-.769,2.1,2.1,0,0,0,.334-.221,1.532,1.532,0,0,0,.249-.251,1.063,1.063,0,0,0,.155-.273.8.8,0,0,0,.052-.282.727.727,0,0,0-.059-.278.857.857,0,0,0-.157-.248,1.24,1.24,0,0,0-.25-.213,1.781,1.781,0,0,0-.336-.168.433.433,0,0,1,.065.114.479.479,0,0,1,.026.29.777.777,0,0,1-.265.406,2.7,2.7,0,0,1-.808.455,12.506,12.506,0,0,0-2.616,1.575,8.149,8.149,0,0,0-1.765,1.895,5.174,5.174,0,0,0-.82,2.072,4.139,4.139,0,0,0,.227,2.105,3.228,3.228,0,0,1-.5-.674,2.609,2.609,0,0,1-.274-.728,2.484,2.484,0,0,1-.042-.762,2.81,2.81,0,0,1,.193-.777.846.846,0,0,0-.071-.455,1.1,1.1,0,0,0-.3-.387,1.819,1.819,0,0,0-.495-.29,2.794,2.794,0,0,0-.664-.169,1.1,1.1,0,0,1,.164.28.966.966,0,0,1,.066.3.979.979,0,0,1-.033.309,1.223,1.223,0,0,1-.133.309,3.709,3.709,0,0,0,.395,3.243,5.264,5.264,0,0,0,1.272,1.365,8.127,8.127,0,0,0,1.921,1.068L36.03,28.5l2.741.87,2.4-2.483a8.247,8.247,0,0,1-1.294-.611,6.214,6.214,0,0,1-1.037-.757,4.558,4.558,0,0,1-.757-.881,3.609,3.609,0,0,1-.455-.983l.942-.048a4.379,4.379,0,0,0,.58.91,5.6,5.6,0,0,0,.833.817,7.287,7.287,0,0,0,1.066.7,9.231,9.231,0,0,0,1.278.569l.034.01a13.01,13.01,0,0,0,1.532.312,14.8,14.8,0,0,0,1.617.14,15.976,15.976,0,0,0,1.666-.033,16.664,16.664,0,0,0,1.679-.208l.44.485a14.89,14.89,0,0,1-3.441.409,13.927,13.927,0,0,1-1.687-.1,12.114,12.114,0,0,1-1.6-.3l-2.394,2.491,2.759.876,1.625-1.692a14.051,14.051,0,0,0,2.631.367,16.28,16.28,0,0,0,5.4-.664,13.654,13.654,0,0,0,2.437-.991,2.889,2.889,0,0,1,.395-.227,3.74,3.74,0,0,1,.448-.183,4,4,0,0,1,.488-.13,4.331,4.331,0,0,1,.514-.071,2.476,2.476,0,0,0-.622-.234,3.363,3.363,0,0,0-.715-.088,3.834,3.834,0,0,0-.748.059,3.545,3.545,0,0,0-.722.208v0a8.823,8.823,0,0,1-1.066.513,10.1,10.1,0,0,1-1.171.39,11.024,11.024,0,0,1-1.244.257,11.308,11.308,0,0,1-1.285.114,17.077,17.077,0,0,0,3.29-1.024,13.056,13.056,0,0,0,2.672-1.518,8.613,8.613,0,0,0,1.885-1.874,5.35,5.35,0,0,0,.93-2.125,1.08,1.08,0,0,1,.243-.637,1.322,1.322,0,0,1,.467-.349,2,2,0,0,1,.455-.147,1.756,1.756,0,0,1,.2-.03,2.884,2.884,0,0,0-.44-.071M41.893,19.382a7.832,7.832,0,0,1,1.888-1.044,10.458,10.458,0,0,1,2.293-.606,10.82,10.82,0,0,1,2.478-.083l.022.007-2.855,2.916-5.084.206a4.685,4.685,0,0,1,1.258-1.4m6.069,6.469a11.405,11.405,0,0,1-2.406.129,10.328,10.328,0,0,1-1.153-.124,9.08,9.08,0,0,1-1.085-.248,6.95,6.95,0,0,1-.949-.389,5.488,5.488,0,0,1-.8-.488,4.131,4.131,0,0,1-.635-.569,3.285,3.285,0,0,1-.455-.647h-.046l5.173-.264,2.373,2.623Zm4.018-1.537v0l-2.467-2.559,2.8-2.941.02.006a3.716,3.716,0,0,1,1.228,1.227,2.507,2.507,0,0,1,.347,1.429,3,3,0,0,1-.53,1.479,5.166,5.166,0,0,1-1.4,1.365" transform="translate(4.653 2.098)" fill="#fff" style="mix-blend-mode: soft-light;isolation: isolate"/>
          </g>
        </g>
        <g id="그룹_40423" data-name="그룹 40423" transform="translate(0 8.974)">
          <g id="그룹_40420-4" data-name="그룹 40420" transform="translate(0 0)">
            <g transform="matrix(1, 0, 0, 1, -11.56, -42.43)" filter="url(#패스_95527-3)">
              <path id="패스_95527-9" data-name="패스 95527" d="M101.382,22.07a3.036,3.036,0,0,0-.967-1.144,5.44,5.44,0,0,0-1.7-.822L32.748.3a7.614,7.614,0,0,0-2-.3,9.343,9.343,0,0,0-2.083.191,8.505,8.505,0,0,0-1.927.635,5.713,5.713,0,0,0-1.526,1.029L1.011,25.381a3.389,3.389,0,0,0-.891,1.331,2.125,2.125,0,0,0-.032,1.314,2.487,2.487,0,0,0,.78,1.149,4.446,4.446,0,0,0,1.557.833L69.8,51.887A8.047,8.047,0,0,0,72,52.26a9.351,9.351,0,0,0,2.264-.2,8.287,8.287,0,0,0,2.055-.722,5.568,5.568,0,0,0,1.582-1.184l22.922-25.419a2.84,2.84,0,0,0,.715-1.344,2.138,2.138,0,0,0-.162-1.318" transform="translate(11.56 42.43)" fill="url(#linear-gradient)"/>
            </g>
            <path id="패스_95528-4" data-name="패스 95528" d="M30.191,2.738h.136a5.188,5.188,0,0,1,1.365.208l.006,0L91.9,21.166a3.826,3.826,0,0,1,1.2.586,2.407,2.407,0,0,1,.758.919l0,.005A1.874,1.874,0,0,1,94,23.845l0,.014a2.333,2.333,0,0,1-.583,1.081L74.067,46.2a3.908,3.908,0,0,1-1.117.83,5.567,5.567,0,0,1-1.368.479,6.283,6.283,0,0,1-1.491.134,5.384,5.384,0,0,1-1.478-.247h0L7.388,27.676a3.282,3.282,0,0,1-1.139-.606,2.1,2.1,0,0,1-.663-.953L5.581,26.1A1.864,1.864,0,0,1,5.6,24.944l0-.007A2.616,2.616,0,0,1,6.277,23.9L26.565,4.027a4.016,4.016,0,0,1,1.08-.734,5.682,5.682,0,0,1,1.294-.428A6.229,6.229,0,0,1,30.191,2.738ZM31.354,4.1A3.994,3.994,0,0,0,30.3,3.939h-.113a5.032,5.032,0,0,0-1.014.1,4.494,4.494,0,0,0-1.026.34,2.825,2.825,0,0,0-.758.513L7.1,24.775a1.411,1.411,0,0,0-.368.558.671.671,0,0,0-.008.406.9.9,0,0,0,.283.4,2.09,2.09,0,0,0,.73.388l.012,0,61.225,19.72a4.19,4.19,0,0,0,1.149.191l.155,0a5.079,5.079,0,0,0,1.055-.111,4.379,4.379,0,0,0,1.078-.378,2.718,2.718,0,0,0,.776-.574l19.35-21.268a1.132,1.132,0,0,0,.284-.521.682.682,0,0,0-.047-.416,1.2,1.2,0,0,0-.378-.457,2.63,2.63,0,0,0-.828-.4l-.008,0Z" transform="translate(1.008 0.629)" fill="#fff" style="mix-blend-mode: soft-light;isolation: isolate"/>
            <path id="패스_95529-4" data-name="패스 95529" d="M59,20.537a3.373,3.373,0,0,0-.455,0,3.33,3.33,0,0,0-.462.059,3.121,3.121,0,0,0-.444.123,2.7,2.7,0,0,0-.4.179,2.011,2.011,0,0,0-.325.227,1.482,1.482,0,0,0-.242.257,1.006,1.006,0,0,0-.148.281,4.627,4.627,0,0,1-.384,1.1,5.9,5.9,0,0,1-.674,1.055,7.745,7.745,0,0,1-.949.992,9.981,9.981,0,0,1-1.2.91l-.463-.483.02-.007a6.9,6.9,0,0,0,1.922-1.84A3.939,3.939,0,0,0,55.5,21.39,3.321,3.321,0,0,0,55,19.466a5.057,5.057,0,0,0-1.724-1.634l.77-.8L52.6,16.594,47.5,21.86l4.313,4.6-.209.091-.208.088-.207.083-.206.08L46.69,22.137l-9.187.44a1.154,1.154,0,0,1,.008-.14,1.2,1.2,0,0,0,.008-.144c.006-.048.011-.1.019-.146L37.563,22l9.069-.408,5.1-5.282-1.422-.437-.772.8a14.206,14.206,0,0,0-3.347.068,13.9,13.9,0,0,0-3.108.8A10.4,10.4,0,0,0,40.53,18.94a6.146,6.146,0,0,0-1.684,1.9v.014l-.95.039a5.977,5.977,0,0,1,.692-1.052,7.9,7.9,0,0,1,.953-.978,10.1,10.1,0,0,1,1.19-.879,12.437,12.437,0,0,1,1.4-.769,2.1,2.1,0,0,0,.334-.221,1.532,1.532,0,0,0,.249-.251,1.063,1.063,0,0,0,.155-.273.8.8,0,0,0,.052-.282.727.727,0,0,0-.059-.278.857.857,0,0,0-.157-.248,1.24,1.24,0,0,0-.25-.213,1.781,1.781,0,0,0-.336-.168.433.433,0,0,1,.065.114.479.479,0,0,1,.026.29.777.777,0,0,1-.265.406,2.7,2.7,0,0,1-.808.455,12.506,12.506,0,0,0-2.616,1.575,8.149,8.149,0,0,0-1.765,1.895,5.174,5.174,0,0,0-.82,2.072,4.139,4.139,0,0,0,.227,2.105,3.228,3.228,0,0,1-.5-.674,2.609,2.609,0,0,1-.274-.728,2.484,2.484,0,0,1-.042-.762,2.81,2.81,0,0,1,.193-.777.846.846,0,0,0-.071-.455,1.1,1.1,0,0,0-.3-.387,1.819,1.819,0,0,0-.495-.29,2.794,2.794,0,0,0-.664-.169,1.1,1.1,0,0,1,.164.28.966.966,0,0,1,.066.3.979.979,0,0,1-.033.309,1.223,1.223,0,0,1-.133.309,3.709,3.709,0,0,0,.395,3.243,5.264,5.264,0,0,0,1.272,1.365,8.127,8.127,0,0,0,1.921,1.068L36.03,28.5l2.741.87,2.4-2.483a8.247,8.247,0,0,1-1.294-.611,6.214,6.214,0,0,1-1.037-.757,4.558,4.558,0,0,1-.757-.881,3.609,3.609,0,0,1-.455-.983l.942-.048a4.379,4.379,0,0,0,.58.91,5.6,5.6,0,0,0,.833.817,7.287,7.287,0,0,0,1.066.7,9.231,9.231,0,0,0,1.278.569l.034.01a13.01,13.01,0,0,0,1.532.312,14.8,14.8,0,0,0,1.617.14,15.976,15.976,0,0,0,1.666-.033,16.664,16.664,0,0,0,1.679-.208l.44.485a14.89,14.89,0,0,1-3.441.409,13.927,13.927,0,0,1-1.687-.1,12.114,12.114,0,0,1-1.6-.3l-2.394,2.491,2.759.876,1.625-1.692a14.051,14.051,0,0,0,2.631.367,16.28,16.28,0,0,0,5.4-.664,13.654,13.654,0,0,0,2.437-.991,2.889,2.889,0,0,1,.395-.227,3.74,3.74,0,0,1,.448-.183,4,4,0,0,1,.488-.13,4.331,4.331,0,0,1,.514-.071,2.476,2.476,0,0,0-.622-.234,3.363,3.363,0,0,0-.715-.088,3.834,3.834,0,0,0-.748.059,3.545,3.545,0,0,0-.722.208v0a8.823,8.823,0,0,1-1.066.513,10.1,10.1,0,0,1-1.171.39,11.024,11.024,0,0,1-1.244.257,11.308,11.308,0,0,1-1.285.114,17.077,17.077,0,0,0,3.29-1.024,13.056,13.056,0,0,0,2.672-1.518,8.613,8.613,0,0,0,1.885-1.874,5.35,5.35,0,0,0,.93-2.125,1.08,1.08,0,0,1,.243-.637,1.322,1.322,0,0,1,.467-.349,2,2,0,0,1,.455-.147,1.756,1.756,0,0,1,.2-.03,2.884,2.884,0,0,0-.44-.071M41.893,19.382a7.832,7.832,0,0,1,1.888-1.044,10.458,10.458,0,0,1,2.293-.606,10.82,10.82,0,0,1,2.478-.083l.022.007-2.855,2.916-5.084.206a4.685,4.685,0,0,1,1.258-1.4m6.069,6.469a11.405,11.405,0,0,1-2.406.129,10.328,10.328,0,0,1-1.153-.124,9.08,9.08,0,0,1-1.085-.248,6.95,6.95,0,0,1-.949-.389,5.488,5.488,0,0,1-.8-.488,4.131,4.131,0,0,1-.635-.569,3.285,3.285,0,0,1-.455-.647h-.046l5.173-.264,2.373,2.623Zm4.018-1.537v0l-2.467-2.559,2.8-2.941.02.006a3.716,3.716,0,0,1,1.228,1.227,2.507,2.507,0,0,1,.347,1.429,3,3,0,0,1-.53,1.479,5.166,5.166,0,0,1-1.4,1.365" transform="translate(4.653 2.098)" fill="#fff" style="mix-blend-mode: soft-light;isolation: isolate"/>
          </g>
        </g>
        <g id="그룹_40424" data-name="그룹 40424" transform="translate(0 0)">
          <g id="그룹_40420-5" data-name="그룹 40420" transform="translate(0 4.424)">
            <g transform="matrix(1, 0, 0, 1, -11.56, -37.88)" filter="url(#패스_95527-4)">
              <path id="패스_95527-10" data-name="패스 95527" d="M101.382,22.07a3.036,3.036,0,0,0-.967-1.144,5.44,5.44,0,0,0-1.7-.822L32.748.3a7.614,7.614,0,0,0-2-.3,9.343,9.343,0,0,0-2.083.191,8.505,8.505,0,0,0-1.927.635,5.713,5.713,0,0,0-1.526,1.029L1.011,25.381a3.389,3.389,0,0,0-.891,1.331,2.125,2.125,0,0,0-.032,1.314,2.487,2.487,0,0,0,.78,1.149,4.446,4.446,0,0,0,1.557.833L69.8,51.887A8.047,8.047,0,0,0,72,52.26a9.351,9.351,0,0,0,2.264-.2,8.287,8.287,0,0,0,2.055-.722,5.568,5.568,0,0,0,1.582-1.184l22.922-25.419a2.84,2.84,0,0,0,.715-1.344,2.138,2.138,0,0,0-.162-1.318" transform="translate(11.56 37.88)" fill="url(#linear-gradient-5)"/>
            </g>
            <path id="패스_95528-5" data-name="패스 95528" d="M30.141,2.488l.141,0a5.386,5.386,0,0,1,1.417.216l.008,0,60.2,18.217a4.025,4.025,0,0,1,1.261.617,2.607,2.607,0,0,1,.822,1l0,.007a2.073,2.073,0,0,1,.144,1.291l0,.018a2.533,2.533,0,0,1-.631,1.172L74.163,46.287a4.108,4.108,0,0,1-1.174.872,5.774,5.774,0,0,1-1.417.5,6.481,6.481,0,0,1-1.537.138,5.583,5.583,0,0,1-1.532-.256l-.005,0L7.278,27.817a3.481,3.481,0,0,1-1.206-.642,2.3,2.3,0,0,1-.726-1.044L5.34,26.11a2.063,2.063,0,0,1,.018-1.281l0-.009a2.817,2.817,0,0,1,.728-1.114L26.377,3.832a4.216,4.216,0,0,1,1.132-.769,5.891,5.891,0,0,1,1.34-.443A6.425,6.425,0,0,1,30.141,2.488Zm1.1,1.752a3.793,3.793,0,0,0-.995-.151h-.11a4.831,4.831,0,0,0-.973.1,4.3,4.3,0,0,0-.981.325l0,0a2.619,2.619,0,0,0-.7.475L7.186,24.871a1.21,1.21,0,0,0-.315.477.472.472,0,0,0-.006.279.7.7,0,0,0,.219.308,1.893,1.893,0,0,0,.662.351l.016,0,61.224,19.72a3.989,3.989,0,0,0,1.094.182l.15,0a4.876,4.876,0,0,0,1.013-.107,4.18,4.18,0,0,0,1.03-.361l0,0a2.512,2.512,0,0,0,.714-.529L92.344,23.926a.932.932,0,0,0,.232-.425.483.483,0,0,0-.033-.289,1,1,0,0,0-.314-.379,2.43,2.43,0,0,0-.765-.373l-.011,0Z" transform="translate(1.058 0.679)" fill="#fff" style="mix-blend-mode: soft-light;isolation: isolate"/>
            <path id="패스_95529-5" data-name="패스 95529" d="M59,20.537a3.373,3.373,0,0,0-.455,0,3.33,3.33,0,0,0-.462.059,3.121,3.121,0,0,0-.444.123,2.7,2.7,0,0,0-.4.179,2.011,2.011,0,0,0-.325.227,1.482,1.482,0,0,0-.242.257,1.006,1.006,0,0,0-.148.281,4.627,4.627,0,0,1-.384,1.1,5.9,5.9,0,0,1-.674,1.055,7.745,7.745,0,0,1-.949.992,9.981,9.981,0,0,1-1.2.91l-.463-.483.02-.007a6.9,6.9,0,0,0,1.922-1.84A3.939,3.939,0,0,0,55.5,21.39,3.321,3.321,0,0,0,55,19.466a5.057,5.057,0,0,0-1.724-1.634l.77-.8L52.6,16.594,47.5,21.86l4.313,4.6-.209.091-.208.088-.207.083-.206.08L46.69,22.137l-9.187.44a1.154,1.154,0,0,1,.008-.14,1.2,1.2,0,0,0,.008-.144c.006-.048.011-.1.019-.146L37.563,22l9.069-.408,5.1-5.282-1.422-.437-.772.8a14.206,14.206,0,0,0-3.347.068,13.9,13.9,0,0,0-3.108.8A10.4,10.4,0,0,0,40.53,18.94a6.146,6.146,0,0,0-1.684,1.9v.014l-.95.039a5.977,5.977,0,0,1,.692-1.052,7.9,7.9,0,0,1,.953-.978,10.1,10.1,0,0,1,1.19-.879,12.437,12.437,0,0,1,1.4-.769,2.1,2.1,0,0,0,.334-.221,1.532,1.532,0,0,0,.249-.251,1.063,1.063,0,0,0,.155-.273.8.8,0,0,0,.052-.282.727.727,0,0,0-.059-.278.857.857,0,0,0-.157-.248,1.24,1.24,0,0,0-.25-.213,1.781,1.781,0,0,0-.336-.168.433.433,0,0,1,.065.114.479.479,0,0,1,.026.29.777.777,0,0,1-.265.406,2.7,2.7,0,0,1-.808.455,12.506,12.506,0,0,0-2.616,1.575,8.149,8.149,0,0,0-1.765,1.895,5.174,5.174,0,0,0-.82,2.072,4.139,4.139,0,0,0,.227,2.105,3.228,3.228,0,0,1-.5-.674,2.609,2.609,0,0,1-.274-.728,2.484,2.484,0,0,1-.042-.762,2.81,2.81,0,0,1,.193-.777.846.846,0,0,0-.071-.455,1.1,1.1,0,0,0-.3-.387,1.819,1.819,0,0,0-.495-.29,2.794,2.794,0,0,0-.664-.169,1.1,1.1,0,0,1,.164.28.966.966,0,0,1,.066.3.979.979,0,0,1-.033.309,1.223,1.223,0,0,1-.133.309,3.709,3.709,0,0,0,.395,3.243,5.264,5.264,0,0,0,1.272,1.365,8.127,8.127,0,0,0,1.921,1.068L36.03,28.5l2.741.87,2.4-2.483a8.247,8.247,0,0,1-1.294-.611,6.214,6.214,0,0,1-1.037-.757,4.558,4.558,0,0,1-.757-.881,3.609,3.609,0,0,1-.455-.983l.942-.048a4.379,4.379,0,0,0,.58.91,5.6,5.6,0,0,0,.833.817,7.287,7.287,0,0,0,1.066.7,9.231,9.231,0,0,0,1.278.569l.034.01a13.01,13.01,0,0,0,1.532.312,14.8,14.8,0,0,0,1.617.14,15.976,15.976,0,0,0,1.666-.033,16.664,16.664,0,0,0,1.679-.208l.44.485a14.89,14.89,0,0,1-3.441.409,13.927,13.927,0,0,1-1.687-.1,12.114,12.114,0,0,1-1.6-.3l-2.394,2.491,2.759.876,1.625-1.692a14.051,14.051,0,0,0,2.631.367,16.28,16.28,0,0,0,5.4-.664,13.654,13.654,0,0,0,2.437-.991,2.889,2.889,0,0,1,.395-.227,3.74,3.74,0,0,1,.448-.183,4,4,0,0,1,.488-.13,4.331,4.331,0,0,1,.514-.071,2.476,2.476,0,0,0-.622-.234,3.363,3.363,0,0,0-.715-.088,3.834,3.834,0,0,0-.748.059,3.545,3.545,0,0,0-.722.208v0a8.823,8.823,0,0,1-1.066.513,10.1,10.1,0,0,1-1.171.39,11.024,11.024,0,0,1-1.244.257,11.308,11.308,0,0,1-1.285.114,17.077,17.077,0,0,0,3.29-1.024,13.056,13.056,0,0,0,2.672-1.518,8.613,8.613,0,0,0,1.885-1.874,5.35,5.35,0,0,0,.93-2.125,1.08,1.08,0,0,1,.243-.637,1.322,1.322,0,0,1,.467-.349,2,2,0,0,1,.455-.147,1.756,1.756,0,0,1,.2-.03,2.884,2.884,0,0,0-.44-.071M41.893,19.382a7.832,7.832,0,0,1,1.888-1.044,10.458,10.458,0,0,1,2.293-.606,10.82,10.82,0,0,1,2.478-.083l.022.007-2.855,2.916-5.084.206a4.685,4.685,0,0,1,1.258-1.4m6.069,6.469a11.405,11.405,0,0,1-2.406.129,10.328,10.328,0,0,1-1.153-.124,9.08,9.08,0,0,1-1.085-.248,6.95,6.95,0,0,1-.949-.389,5.488,5.488,0,0,1-.8-.488,4.131,4.131,0,0,1-.635-.569,3.285,3.285,0,0,1-.455-.647h-.046l5.173-.264,2.373,2.623Zm4.018-1.537v0l-2.467-2.559,2.8-2.941.02.006a3.716,3.716,0,0,1,1.228,1.227,2.507,2.507,0,0,1,.347,1.429,3,3,0,0,1-.53,1.479,5.166,5.166,0,0,1-1.4,1.365" transform="translate(4.653 2.098)" fill="#fff" style="mix-blend-mode: soft-light;isolation: isolate"/>
            <path id="패스_95530" data-name="패스 95530" d="M59,20.537a3.373,3.373,0,0,0-.455,0,3.33,3.33,0,0,0-.462.059,3.121,3.121,0,0,0-.444.123,2.7,2.7,0,0,0-.4.179,2.011,2.011,0,0,0-.325.227,1.482,1.482,0,0,0-.242.257,1.006,1.006,0,0,0-.148.281,4.627,4.627,0,0,1-.384,1.1,5.9,5.9,0,0,1-.674,1.055,7.745,7.745,0,0,1-.949.992,9.981,9.981,0,0,1-1.2.91l-.463-.483.02-.007a6.9,6.9,0,0,0,1.922-1.84A3.939,3.939,0,0,0,55.5,21.39,3.321,3.321,0,0,0,55,19.466a5.057,5.057,0,0,0-1.724-1.634l.77-.8L52.6,16.594,47.5,21.86l4.313,4.6-.209.091-.208.088-.207.083-.206.08L46.69,22.137l-9.187.44a1.154,1.154,0,0,1,.008-.14,1.2,1.2,0,0,0,.008-.144c.006-.048.011-.1.019-.146L37.563,22l9.069-.408,5.1-5.282-1.422-.437-.772.8a14.206,14.206,0,0,0-3.347.068,13.9,13.9,0,0,0-3.108.8A10.4,10.4,0,0,0,40.53,18.94a6.146,6.146,0,0,0-1.684,1.9v.014l-.95.039a5.977,5.977,0,0,1,.692-1.052,7.9,7.9,0,0,1,.953-.978,10.1,10.1,0,0,1,1.19-.879,12.437,12.437,0,0,1,1.4-.769,2.1,2.1,0,0,0,.334-.221,1.532,1.532,0,0,0,.249-.251,1.063,1.063,0,0,0,.155-.273.8.8,0,0,0,.052-.282.727.727,0,0,0-.059-.278.857.857,0,0,0-.157-.248,1.24,1.24,0,0,0-.25-.213,1.781,1.781,0,0,0-.336-.168.433.433,0,0,1,.065.114.479.479,0,0,1,.026.29.777.777,0,0,1-.265.406,2.7,2.7,0,0,1-.808.455,12.506,12.506,0,0,0-2.616,1.575,8.149,8.149,0,0,0-1.765,1.895,5.174,5.174,0,0,0-.82,2.072,4.139,4.139,0,0,0,.227,2.105,3.228,3.228,0,0,1-.5-.674,2.609,2.609,0,0,1-.274-.728,2.484,2.484,0,0,1-.042-.762,2.81,2.81,0,0,1,.193-.777.846.846,0,0,0-.071-.455,1.1,1.1,0,0,0-.3-.387,1.819,1.819,0,0,0-.495-.29,2.794,2.794,0,0,0-.664-.169,1.1,1.1,0,0,1,.164.28.966.966,0,0,1,.066.3.979.979,0,0,1-.033.309,1.223,1.223,0,0,1-.133.309,3.709,3.709,0,0,0,.395,3.243,5.264,5.264,0,0,0,1.272,1.365,8.127,8.127,0,0,0,1.921,1.068L36.03,28.5l2.741.87,2.4-2.483a8.247,8.247,0,0,1-1.294-.611,6.214,6.214,0,0,1-1.037-.757,4.558,4.558,0,0,1-.757-.881,3.609,3.609,0,0,1-.455-.983l.942-.048a4.379,4.379,0,0,0,.58.91,5.6,5.6,0,0,0,.833.817,7.287,7.287,0,0,0,1.066.7,9.231,9.231,0,0,0,1.278.569l.034.01a13.01,13.01,0,0,0,1.532.312,14.8,14.8,0,0,0,1.617.14,15.976,15.976,0,0,0,1.666-.033,16.664,16.664,0,0,0,1.679-.208l.44.485a14.89,14.89,0,0,1-3.441.409,13.927,13.927,0,0,1-1.687-.1,12.114,12.114,0,0,1-1.6-.3l-2.394,2.491,2.759.876,1.625-1.692a14.051,14.051,0,0,0,2.631.367,16.28,16.28,0,0,0,5.4-.664,13.654,13.654,0,0,0,2.437-.991,2.889,2.889,0,0,1,.395-.227,3.74,3.74,0,0,1,.448-.183,4,4,0,0,1,.488-.13,4.331,4.331,0,0,1,.514-.071,2.476,2.476,0,0,0-.622-.234,3.363,3.363,0,0,0-.715-.088,3.834,3.834,0,0,0-.748.059,3.545,3.545,0,0,0-.722.208v0a8.823,8.823,0,0,1-1.066.513,10.1,10.1,0,0,1-1.171.39,11.024,11.024,0,0,1-1.244.257,11.308,11.308,0,0,1-1.285.114,17.077,17.077,0,0,0,3.29-1.024,13.056,13.056,0,0,0,2.672-1.518,8.613,8.613,0,0,0,1.885-1.874,5.35,5.35,0,0,0,.93-2.125,1.08,1.08,0,0,1,.243-.637,1.322,1.322,0,0,1,.467-.349,2,2,0,0,1,.455-.147,1.756,1.756,0,0,1,.2-.03,2.884,2.884,0,0,0-.44-.071M41.893,19.382a7.832,7.832,0,0,1,1.888-1.044,10.458,10.458,0,0,1,2.293-.606,10.82,10.82,0,0,1,2.478-.083l.022.007-2.855,2.916-5.084.206a4.685,4.685,0,0,1,1.258-1.4m6.069,6.469a11.405,11.405,0,0,1-2.406.129,10.328,10.328,0,0,1-1.153-.124,9.08,9.08,0,0,1-1.085-.248,6.95,6.95,0,0,1-.949-.389,5.488,5.488,0,0,1-.8-.488,4.131,4.131,0,0,1-.635-.569,3.285,3.285,0,0,1-.455-.647h-.046l5.173-.264,2.373,2.623Zm4.018-1.537v0l-2.467-2.559,2.8-2.941.02.006a3.716,3.716,0,0,1,1.228,1.227,2.507,2.507,0,0,1,.347,1.429,3,3,0,0,1-.53,1.479,5.166,5.166,0,0,1-1.4,1.365" transform="translate(4.653 2.098)" fill="#fff" style="mix-blend-mode: soft-light;isolation: isolate"/>
          </g>
          <g id="그룹_40430" data-name="그룹 40430">
            <g transform="matrix(1, 0, 0, 1, -11.56, -33.46)" filter="url(#패스_95527-5)">
              <path id="패스_95527-11" data-name="패스 95527" d="M101.382,22.07a3.036,3.036,0,0,0-.967-1.144,5.44,5.44,0,0,0-1.7-.822L32.748.3a7.614,7.614,0,0,0-2-.3,9.343,9.343,0,0,0-2.083.191,8.505,8.505,0,0,0-1.927.635,5.713,5.713,0,0,0-1.526,1.029L1.011,25.381a3.389,3.389,0,0,0-.891,1.331,2.125,2.125,0,0,0-.032,1.314,2.487,2.487,0,0,0,.78,1.149,4.446,4.446,0,0,0,1.557.833L69.8,51.887A8.047,8.047,0,0,0,72,52.26a9.351,9.351,0,0,0,2.264-.2,8.287,8.287,0,0,0,2.055-.722,5.568,5.568,0,0,0,1.582-1.184l22.922-25.419a2.84,2.84,0,0,0,.715-1.344,2.138,2.138,0,0,0-.162-1.318" transform="translate(11.56 33.46)" fill="url(#linear-gradient-5)"/>
            </g>
            <path id="패스_95528-6" data-name="패스 95528" d="M30.141,2.488l.141,0a5.386,5.386,0,0,1,1.417.216l.008,0,60.2,18.217a4.025,4.025,0,0,1,1.261.617,2.607,2.607,0,0,1,.822,1l0,.007a2.073,2.073,0,0,1,.144,1.291l0,.018a2.533,2.533,0,0,1-.631,1.172L74.163,46.287a4.108,4.108,0,0,1-1.174.872,5.774,5.774,0,0,1-1.417.5,6.481,6.481,0,0,1-1.537.138,5.583,5.583,0,0,1-1.532-.256l-.005,0L7.278,27.817a3.481,3.481,0,0,1-1.206-.642,2.3,2.3,0,0,1-.726-1.044L5.34,26.11a2.063,2.063,0,0,1,.018-1.281l0-.009a2.817,2.817,0,0,1,.728-1.114L26.377,3.832a4.216,4.216,0,0,1,1.132-.769,5.891,5.891,0,0,1,1.34-.443A6.425,6.425,0,0,1,30.141,2.488Zm1.1,1.752a3.793,3.793,0,0,0-.995-.151h-.11a4.831,4.831,0,0,0-.973.1,4.3,4.3,0,0,0-.981.325l0,0a2.619,2.619,0,0,0-.7.475L7.186,24.871a1.21,1.21,0,0,0-.315.477.472.472,0,0,0-.006.279.7.7,0,0,0,.219.308,1.893,1.893,0,0,0,.662.351l.016,0,61.224,19.72a3.989,3.989,0,0,0,1.094.182l.15,0a4.876,4.876,0,0,0,1.013-.107,4.18,4.18,0,0,0,1.03-.361l0,0a2.512,2.512,0,0,0,.714-.529L92.344,23.926a.932.932,0,0,0,.232-.425.483.483,0,0,0-.033-.289,1,1,0,0,0-.314-.379,2.43,2.43,0,0,0-.765-.373l-.011,0Z" transform="translate(1.058 0.679)" fill="#fff" style="mix-blend-mode: soft-light;isolation: isolate"/>
            <path id="패스_95529-6" data-name="패스 95529" d="M59,20.537a3.373,3.373,0,0,0-.455,0,3.33,3.33,0,0,0-.462.059,3.121,3.121,0,0,0-.444.123,2.7,2.7,0,0,0-.4.179,2.011,2.011,0,0,0-.325.227,1.482,1.482,0,0,0-.242.257,1.006,1.006,0,0,0-.148.281,4.627,4.627,0,0,1-.384,1.1,5.9,5.9,0,0,1-.674,1.055,7.745,7.745,0,0,1-.949.992,9.981,9.981,0,0,1-1.2.91l-.463-.483.02-.007a6.9,6.9,0,0,0,1.922-1.84A3.939,3.939,0,0,0,55.5,21.39,3.321,3.321,0,0,0,55,19.466a5.057,5.057,0,0,0-1.724-1.634l.77-.8L52.6,16.594,47.5,21.86l4.313,4.6-.209.091-.208.088-.207.083-.206.08L46.69,22.137l-9.187.44a1.154,1.154,0,0,1,.008-.14,1.2,1.2,0,0,0,.008-.144c.006-.048.011-.1.019-.146L37.563,22l9.069-.408,5.1-5.282-1.422-.437-.772.8a14.206,14.206,0,0,0-3.347.068,13.9,13.9,0,0,0-3.108.8A10.4,10.4,0,0,0,40.53,18.94a6.146,6.146,0,0,0-1.684,1.9v.014l-.95.039a5.977,5.977,0,0,1,.692-1.052,7.9,7.9,0,0,1,.953-.978,10.1,10.1,0,0,1,1.19-.879,12.437,12.437,0,0,1,1.4-.769,2.1,2.1,0,0,0,.334-.221,1.532,1.532,0,0,0,.249-.251,1.063,1.063,0,0,0,.155-.273.8.8,0,0,0,.052-.282.727.727,0,0,0-.059-.278.857.857,0,0,0-.157-.248,1.24,1.24,0,0,0-.25-.213,1.781,1.781,0,0,0-.336-.168.433.433,0,0,1,.065.114.479.479,0,0,1,.026.29.777.777,0,0,1-.265.406,2.7,2.7,0,0,1-.808.455,12.506,12.506,0,0,0-2.616,1.575,8.149,8.149,0,0,0-1.765,1.895,5.174,5.174,0,0,0-.82,2.072,4.139,4.139,0,0,0,.227,2.105,3.228,3.228,0,0,1-.5-.674,2.609,2.609,0,0,1-.274-.728,2.484,2.484,0,0,1-.042-.762,2.81,2.81,0,0,1,.193-.777.846.846,0,0,0-.071-.455,1.1,1.1,0,0,0-.3-.387,1.819,1.819,0,0,0-.495-.29,2.794,2.794,0,0,0-.664-.169,1.1,1.1,0,0,1,.164.28.966.966,0,0,1,.066.3.979.979,0,0,1-.033.309,1.223,1.223,0,0,1-.133.309,3.709,3.709,0,0,0,.395,3.243,5.264,5.264,0,0,0,1.272,1.365,8.127,8.127,0,0,0,1.921,1.068L36.03,28.5l2.741.87,2.4-2.483a8.247,8.247,0,0,1-1.294-.611,6.214,6.214,0,0,1-1.037-.757,4.558,4.558,0,0,1-.757-.881,3.609,3.609,0,0,1-.455-.983l.942-.048a4.379,4.379,0,0,0,.58.91,5.6,5.6,0,0,0,.833.817,7.287,7.287,0,0,0,1.066.7,9.231,9.231,0,0,0,1.278.569l.034.01a13.01,13.01,0,0,0,1.532.312,14.8,14.8,0,0,0,1.617.14,15.976,15.976,0,0,0,1.666-.033,16.664,16.664,0,0,0,1.679-.208l.44.485a14.89,14.89,0,0,1-3.441.409,13.927,13.927,0,0,1-1.687-.1,12.114,12.114,0,0,1-1.6-.3l-2.394,2.491,2.759.876,1.625-1.692a14.051,14.051,0,0,0,2.631.367,16.28,16.28,0,0,0,5.4-.664,13.654,13.654,0,0,0,2.437-.991,2.889,2.889,0,0,1,.395-.227,3.74,3.74,0,0,1,.448-.183,4,4,0,0,1,.488-.13,4.331,4.331,0,0,1,.514-.071,2.476,2.476,0,0,0-.622-.234,3.363,3.363,0,0,0-.715-.088,3.834,3.834,0,0,0-.748.059,3.545,3.545,0,0,0-.722.208v0a8.823,8.823,0,0,1-1.066.513,10.1,10.1,0,0,1-1.171.39,11.024,11.024,0,0,1-1.244.257,11.308,11.308,0,0,1-1.285.114,17.077,17.077,0,0,0,3.29-1.024,13.056,13.056,0,0,0,2.672-1.518,8.613,8.613,0,0,0,1.885-1.874,5.35,5.35,0,0,0,.93-2.125,1.08,1.08,0,0,1,.243-.637,1.322,1.322,0,0,1,.467-.349,2,2,0,0,1,.455-.147,1.756,1.756,0,0,1,.2-.03,2.884,2.884,0,0,0-.44-.071M41.893,19.382a7.832,7.832,0,0,1,1.888-1.044,10.458,10.458,0,0,1,2.293-.606,10.82,10.82,0,0,1,2.478-.083l.022.007-2.855,2.916-5.084.206a4.685,4.685,0,0,1,1.258-1.4m6.069,6.469a11.405,11.405,0,0,1-2.406.129,10.328,10.328,0,0,1-1.153-.124,9.08,9.08,0,0,1-1.085-.248,6.95,6.95,0,0,1-.949-.389,5.488,5.488,0,0,1-.8-.488,4.131,4.131,0,0,1-.635-.569,3.285,3.285,0,0,1-.455-.647h-.046l5.173-.264,2.373,2.623Zm4.018-1.537v0l-2.467-2.559,2.8-2.941.02.006a3.716,3.716,0,0,1,1.228,1.227,2.507,2.507,0,0,1,.347,1.429,3,3,0,0,1-.53,1.479,5.166,5.166,0,0,1-1.4,1.365" transform="translate(4.653 2.098)" fill="#fff" style="mix-blend-mode: soft-light;isolation: isolate"/>
            <path id="패스_95530-2" data-name="패스 95530" d="M59,20.537a3.373,3.373,0,0,0-.455,0,3.33,3.33,0,0,0-.462.059,3.121,3.121,0,0,0-.444.123,2.7,2.7,0,0,0-.4.179,2.011,2.011,0,0,0-.325.227,1.482,1.482,0,0,0-.242.257,1.006,1.006,0,0,0-.148.281,4.627,4.627,0,0,1-.384,1.1,5.9,5.9,0,0,1-.674,1.055,7.745,7.745,0,0,1-.949.992,9.981,9.981,0,0,1-1.2.91l-.463-.483.02-.007a6.9,6.9,0,0,0,1.922-1.84A3.939,3.939,0,0,0,55.5,21.39,3.321,3.321,0,0,0,55,19.466a5.057,5.057,0,0,0-1.724-1.634l.77-.8L52.6,16.594,47.5,21.86l4.313,4.6-.209.091-.208.088-.207.083-.206.08L46.69,22.137l-9.187.44a1.154,1.154,0,0,1,.008-.14,1.2,1.2,0,0,0,.008-.144c.006-.048.011-.1.019-.146L37.563,22l9.069-.408,5.1-5.282-1.422-.437-.772.8a14.206,14.206,0,0,0-3.347.068,13.9,13.9,0,0,0-3.108.8A10.4,10.4,0,0,0,40.53,18.94a6.146,6.146,0,0,0-1.684,1.9v.014l-.95.039a5.977,5.977,0,0,1,.692-1.052,7.9,7.9,0,0,1,.953-.978,10.1,10.1,0,0,1,1.19-.879,12.437,12.437,0,0,1,1.4-.769,2.1,2.1,0,0,0,.334-.221,1.532,1.532,0,0,0,.249-.251,1.063,1.063,0,0,0,.155-.273.8.8,0,0,0,.052-.282.727.727,0,0,0-.059-.278.857.857,0,0,0-.157-.248,1.24,1.24,0,0,0-.25-.213,1.781,1.781,0,0,0-.336-.168.433.433,0,0,1,.065.114.479.479,0,0,1,.026.29.777.777,0,0,1-.265.406,2.7,2.7,0,0,1-.808.455,12.506,12.506,0,0,0-2.616,1.575,8.149,8.149,0,0,0-1.765,1.895,5.174,5.174,0,0,0-.82,2.072,4.139,4.139,0,0,0,.227,2.105,3.228,3.228,0,0,1-.5-.674,2.609,2.609,0,0,1-.274-.728,2.484,2.484,0,0,1-.042-.762,2.81,2.81,0,0,1,.193-.777.846.846,0,0,0-.071-.455,1.1,1.1,0,0,0-.3-.387,1.819,1.819,0,0,0-.495-.29,2.794,2.794,0,0,0-.664-.169,1.1,1.1,0,0,1,.164.28.966.966,0,0,1,.066.3.979.979,0,0,1-.033.309,1.223,1.223,0,0,1-.133.309,3.709,3.709,0,0,0,.395,3.243,5.264,5.264,0,0,0,1.272,1.365,8.127,8.127,0,0,0,1.921,1.068L36.03,28.5l2.741.87,2.4-2.483a8.247,8.247,0,0,1-1.294-.611,6.214,6.214,0,0,1-1.037-.757,4.558,4.558,0,0,1-.757-.881,3.609,3.609,0,0,1-.455-.983l.942-.048a4.379,4.379,0,0,0,.58.91,5.6,5.6,0,0,0,.833.817,7.287,7.287,0,0,0,1.066.7,9.231,9.231,0,0,0,1.278.569l.034.01a13.01,13.01,0,0,0,1.532.312,14.8,14.8,0,0,0,1.617.14,15.976,15.976,0,0,0,1.666-.033,16.664,16.664,0,0,0,1.679-.208l.44.485a14.89,14.89,0,0,1-3.441.409,13.927,13.927,0,0,1-1.687-.1,12.114,12.114,0,0,1-1.6-.3l-2.394,2.491,2.759.876,1.625-1.692a14.051,14.051,0,0,0,2.631.367,16.28,16.28,0,0,0,5.4-.664,13.654,13.654,0,0,0,2.437-.991,2.889,2.889,0,0,1,.395-.227,3.74,3.74,0,0,1,.448-.183,4,4,0,0,1,.488-.13,4.331,4.331,0,0,1,.514-.071,2.476,2.476,0,0,0-.622-.234,3.363,3.363,0,0,0-.715-.088,3.834,3.834,0,0,0-.748.059,3.545,3.545,0,0,0-.722.208v0a8.823,8.823,0,0,1-1.066.513,10.1,10.1,0,0,1-1.171.39,11.024,11.024,0,0,1-1.244.257,11.308,11.308,0,0,1-1.285.114,17.077,17.077,0,0,0,3.29-1.024,13.056,13.056,0,0,0,2.672-1.518,8.613,8.613,0,0,0,1.885-1.874,5.35,5.35,0,0,0,.93-2.125,1.08,1.08,0,0,1,.243-.637,1.322,1.322,0,0,1,.467-.349,2,2,0,0,1,.455-.147,1.756,1.756,0,0,1,.2-.03,2.884,2.884,0,0,0-.44-.071M41.893,19.382a7.832,7.832,0,0,1,1.888-1.044,10.458,10.458,0,0,1,2.293-.606,10.82,10.82,0,0,1,2.478-.083l.022.007-2.855,2.916-5.084.206a4.685,4.685,0,0,1,1.258-1.4m6.069,6.469a11.405,11.405,0,0,1-2.406.129,10.328,10.328,0,0,1-1.153-.124,9.08,9.08,0,0,1-1.085-.248,6.95,6.95,0,0,1-.949-.389,5.488,5.488,0,0,1-.8-.488,4.131,4.131,0,0,1-.635-.569,3.285,3.285,0,0,1-.455-.647h-.046l5.173-.264,2.373,2.623Zm4.018-1.537v0l-2.467-2.559,2.8-2.941.02.006a3.716,3.716,0,0,1,1.228,1.227,2.507,2.507,0,0,1,.347,1.429,3,3,0,0,1-.53,1.479,5.166,5.166,0,0,1-1.4,1.365" transform="translate(4.653 2.098)" fill="#fff" style="mix-blend-mode: soft-light;isolation: isolate"/>
          </g>
        </g>
      </g>
      <g id="그룹_40426" data-name="그룹 40426" transform="translate(51.989 88.805) rotate(-25)">
        <path id="패스_95224" data-name="패스 95224" d="M0,0,.1,3.016c0,5.221,6.474,9.4,14.58,9.4S29.2,8.062,29.2,2.842L29.355,0Z" transform="translate(0 10.576)" fill="#e9a400"/>
        <g data-type="innerShadowGroup">
          <ellipse id="타원_9956-4" data-name="타원 9956" cx="14.678" cy="10.582" rx="14.678" ry="10.582" transform="translate(0 0)" fill="url(#linear-gradient-7)"/>
          <g transform="matrix(0.91, 0.42, -0.42, 0.91, -16.43, -115.14)" filter="url(#타원_9956)">
            <ellipse id="타원_9956-5" data-name="타원 9956" cx="14.678" cy="10.582" rx="14.678" ry="10.582" transform="translate(63.55 97.41) rotate(-25)" fill="#fff"/>
          </g>
        </g>
        <g data-type="innerShadowGroup">
          <path id="패스_96124-2" data-name="패스 96124" d="M11.606,0c6.41,0,11.606,3.591,11.606,8.022s-5.2,8.022-11.606,8.022S0,12.452,0,8.022,5.2,0,11.606,0Z" transform="translate(3.072 2.219)" fill="url(#linear-gradient-8)"/>
          <g transform="matrix(0.91, 0.42, -0.42, 0.91, -16.43, -115.14)" filter="url(#패스_96124)">
            <path id="패스_96124-3" data-name="패스 96124" d="M11.606,0c6.41,0,11.606,3.591,11.606,8.022s-5.2,8.022-11.606,8.022S0,12.452,0,8.022,5.2,0,11.606,0Z" transform="translate(67.27 98.12) rotate(-25)" fill="#fff"/>
          </g>
        </g>
        <path id="패스_95225" data-name="패스 95225" d="M12.6,2.965a.694.694,0,0,0-.2-.219.944.944,0,0,0-.3-.137,1.122,1.122,0,0,0-.349-.038l-.015-.005H10.486L11.247.911A.513.513,0,0,0,11.311.65.525.525,0,0,0,11.23.391a.705.705,0,0,0-.2-.215.971.971,0,0,0-.3-.137A1.135,1.135,0,0,0,10.381,0a1.087,1.087,0,0,0-.337.071A.863.863,0,0,0,9.77.239a.635.635,0,0,0-.162.234L8.092,3.759,7.149,1.713a.7.7,0,0,0-.319-.319,1.1,1.1,0,0,0-1.006,0,.7.7,0,0,0-.319.319L4.562,3.756,3.049.474A.635.635,0,0,0,2.887.24.876.876,0,0,0,2.61.074,1.121,1.121,0,0,0,1.923.037a.94.94,0,0,0-.3.137.7.7,0,0,0-.205.215.52.52,0,0,0-.081.259A.513.513,0,0,0,1.4.91l.761,1.654H.925a1.124,1.124,0,0,0-.349.04.944.944,0,0,0-.3.137.694.694,0,0,0-.2.219.523.523,0,0,0,0,.529.694.694,0,0,0,.2.219.944.944,0,0,0,.3.137,1.122,1.122,0,0,0,.349.038H2.777l.964,2.092a.694.694,0,0,0,.318.331,1.107,1.107,0,0,0,1.027,0A.694.694,0,0,0,5.4,5.974l.94-2.041.94,2.041a.7.7,0,0,0,.319.319,1.1,1.1,0,0,0,1.005,0,.7.7,0,0,0,.319-.319L9.89,3.885h1.855a1.122,1.122,0,0,0,.349-.038.944.944,0,0,0,.3-.137.694.694,0,0,0,.2-.219.52.52,0,0,0,0-.526" transform="translate(8.343 7.366)" fill="#ffde00"/>
      </g>
      <g id="그룹_40427" data-name="그룹 40427" transform="translate(87.863 53.143) rotate(22)">
        <path id="패스_95224-2" data-name="패스 95224" d="M0,0,.074,2.2C.074,6.143,4.968,9.3,11.1,9.3s10.979-3.293,10.979-7.24L22.195,0Z" transform="translate(0 7.996)" fill="#e9a400"/>
        <g data-type="innerShadowGroup">
          <ellipse id="타원_9956-6" data-name="타원 9956" cx="11.097" cy="8" rx="11.097" ry="8" transform="translate(0 0)" fill="url(#linear-gradient-7)"/>
          <g transform="matrix(0.93, -0.37, 0.37, 0.93, -115.31, -20.01)" filter="url(#타원_9956-2)">
            <ellipse id="타원_9956-7" data-name="타원 9956" cx="11.097" cy="8" rx="11.097" ry="8" transform="translate(99.42 61.75) rotate(22)" fill="#fff"/>
          </g>
        </g>
        <g data-type="innerShadowGroup">
          <path id="패스_96125-2" data-name="패스 96125" d="M8.775,0c4.846,0,8.775,2.715,8.775,6.065s-3.929,6.065-8.775,6.065S0,9.414,0,6.065,3.929,0,8.775,0Z" transform="translate(2.323 1.677)" fill="url(#linear-gradient-8)"/>
          <g transform="matrix(0.93, -0.37, 0.37, 0.93, -115.31, -20.01)" filter="url(#패스_96125)">
            <path id="패스_96125-3" data-name="패스 96125" d="M8.775,0c4.846,0,8.775,2.715,8.775,6.065s-3.929,6.065-8.775,6.065S0,9.414,0,6.065,3.929,0,8.775,0Z" transform="translate(100.95 64.17) rotate(22)" fill="#fff"/>
          </g>
        </g>
        <path id="패스_95225-2" data-name="패스 95225" d="M9.525,2.241a.524.524,0,0,0-.153-.166.714.714,0,0,0-.227-.1.848.848,0,0,0-.264-.029l-.012,0h-.94L8.5.689a.388.388,0,0,0,.048-.2A.4.4,0,0,0,8.49.3.533.533,0,0,0,8.336.133a.734.734,0,0,0-.227-.1A.858.858,0,0,0,7.849,0a.822.822,0,0,0-.255.054A.652.652,0,0,0,7.387.18a.48.48,0,0,0-.123.177L6.118,2.842,5.4,1.3a.527.527,0,0,0-.241-.241.835.835,0,0,0-.761,0,.527.527,0,0,0-.241.241L3.449,2.84,2.305.359A.48.48,0,0,0,2.183.182.662.662,0,0,0,1.974.056a.847.847,0,0,0-.52-.028.711.711,0,0,0-.227.1.527.527,0,0,0-.155.163.393.393,0,0,0-.061.2.388.388,0,0,0,.048.2l.576,1.251H.7a.849.849,0,0,0-.264.03.714.714,0,0,0-.227.1.524.524,0,0,0-.153.166.4.4,0,0,0,0,.4A.524.524,0,0,0,.207,2.8a.714.714,0,0,0,.227.1A.849.849,0,0,0,.7,2.935H2.1l.729,1.582a.524.524,0,0,0,.24.251.837.837,0,0,0,.777,0,.524.524,0,0,0,.24-.251L4.8,2.973l.711,1.543a.527.527,0,0,0,.241.241.834.834,0,0,0,.76,0,.527.527,0,0,0,.241-.241l.729-1.58h1.4a.849.849,0,0,0,.264-.029.714.714,0,0,0,.227-.1.524.524,0,0,0,.153-.166.393.393,0,0,0,0-.4" transform="translate(6.308 5.569)" fill="#ffde00"/>
      </g>
      <g id="그룹_40431" data-name="그룹 40431" transform="translate(34.635 15.819) rotate(158)">
        <path id="패스_95224-3" data-name="패스 95224" d="M0,9.175.073,7.01C.073,3.117,4.9,0,10.944,0S21.771,3.247,21.771,7.14l.116,2.035Z" transform="translate(0 0)" fill="#e9a400"/>
        <g data-type="innerShadowGroup">
          <ellipse id="타원_9956-8" data-name="타원 9956" cx="10.944" cy="7.89" rx="10.944" ry="7.89" transform="translate(0 1.282)" fill="url(#linear-gradient-11)"/>
          <g transform="matrix(-0.93, -0.37, 0.37, -0.93, 33.68, 39.95)" filter="url(#타원_9956-3)">
            <ellipse id="타원_9956-9" data-name="타원 9956" cx="10.944" cy="7.89" rx="10.944" ry="7.89" transform="translate(45.71 23.23) rotate(158)" fill="#fff"/>
          </g>
        </g>
        <g data-type="innerShadowGroup">
          <path id="패스_96126-2" data-name="패스 96126" d="M8.653,0c4.779,0,8.653,2.678,8.653,5.981s-3.874,5.981-8.653,5.981S0,9.284,0,5.981,3.874,0,8.653,0Z" transform="translate(2.291 3.445)" fill="url(#linear-gradient-12)"/>
          <g transform="matrix(-0.93, -0.37, 0.37, -0.93, 33.68, 39.95)" filter="url(#패스_96126)">
            <path id="패스_96126-3" data-name="패스 96126" d="M8.653,0c4.779,0,8.653,2.678,8.653,5.981s-3.874,5.981-8.653,5.981S0,9.284,0,5.981,3.874,0,8.653,0Z" transform="translate(42.78 22.09) rotate(158)" fill="#fff"/>
          </g>
        </g>
        <path id="패스_95225-3" data-name="패스 95225" d="M9.393,2.585a.517.517,0,0,1-.151.163.7.7,0,0,1-.224.1.837.837,0,0,1-.261.029l-.011,0H7.819l.568,1.233a.383.383,0,0,1,.047.195.391.391,0,0,1-.06.193.526.526,0,0,1-.152.16.724.724,0,0,1-.224.1.846.846,0,0,1-.257.028.81.81,0,0,1-.251-.053.643.643,0,0,1-.2-.124.474.474,0,0,1-.121-.175l-1.13-2.45-.7,1.525a.519.519,0,0,1-.238.238.824.824,0,0,1-.75,0A.519.519,0,0,1,4.1,3.518L3.4,2,2.273,4.442a.474.474,0,0,1-.121.175.653.653,0,0,1-.206.124.836.836,0,0,1-.513.028.7.7,0,0,1-.224-.1.52.52,0,0,1-.153-.16A.388.388,0,0,1,1,4.312a.383.383,0,0,1,.047-.195l.568-1.233H.69a.838.838,0,0,1-.261-.03.7.7,0,0,1-.224-.1.517.517,0,0,1-.151-.163.39.39,0,0,1,0-.394A.517.517,0,0,1,.2,2.032a.7.7,0,0,1,.224-.1A.837.837,0,0,1,.689,1.9H2.07L2.789.341A.517.517,0,0,1,3.026.094a.826.826,0,0,1,.766,0,.517.517,0,0,1,.237.247l.7,1.522.7-1.522A.519.519,0,0,1,5.669.1a.822.822,0,0,1,.75,0,.519.519,0,0,1,.238.238L7.374,1.9H8.757a.837.837,0,0,1,.261.029.7.7,0,0,1,.224.1.517.517,0,0,1,.151.163.388.388,0,0,1,0,.392" transform="translate(6.221 6.774)" fill="#ffde00"/>
      </g>
    </g>
    <rect id="area" width="120" height="120" transform="translate(0.006 0.006)" fill="none"/>
  </g>
</svg>
