<svg id="img_100px_캐릭터4" xmlns="http://www.w3.org/2000/svg" width="100" height="100" viewBox="0 0 100 100">
  <rect id="area" width="100" height="100" fill="rgba(130,4,4,0.73)" opacity="0"/>
  <g id="그룹_40236" data-name="그룹 40236" transform="translate(2.151 11.473)">
    <path id="패스_95335" data-name="패스 95335" d="M313.523,322.1s7.242,1.282,6.13-6.376c-1-6.876,2.313-9.472,6.336-7.3,0,0-1.321-4.592-10.617-3.451s-12.1,10.573-26.076,8.127l2.445,8.262Z" transform="translate(-228.978 -241.248)" fill="#e7666b"/>
    <path id="패스_95336" data-name="패스 95336" d="M72.738,165.253a38,38,0,0,1-11.289-9.125q-.652-.766-1.3-1.6c-.489-.635-.918-1.211-1.3-1.729a12.793,12.793,0,0,0-2.8-3.154,3.26,3.26,0,0,0-3.67-.018c-1.658,1.145-1.989,3.96.431,8,.024.041.047.081.072.122a31.5,31.5,0,0,0,2.339,3.32l.087.109a30.5,30.5,0,0,0,19.967,11.344c.316.04.634.077.956.108l.33-.645,1.6-3.124.637-1.247a23.183,23.183,0,0,1-4.593-1.645c-.462-.213-.951-.452-1.461-.719" transform="translate(-40.415 -117.992)" fill="#eea8c9"/>
    <path id="패스_95337" data-name="패스 95337" d="M281.261,163.28a3.26,3.26,0,0,0-3.65-.38c-1,.484-1.967,1.584-3.533,3.264-.332.356-.689.737-1.081,1.145q-.957,1-1.918,1.875c-9.05,8.3-18.029,9.114-18.029,9.114l.477,1.252,1.27,3.335.258.677c.324,0,.644,0,.963,0a30.454,30.454,0,0,0,20.908-8.943,32.168,32.168,0,0,0,2.663-2.94l.108-.136.184-.237c2.932-3.812,2.921-6.69,1.382-8.022" transform="translate(-200.289 -128.632)" fill="#eea8c9"/>
    <path id="패스_95338" data-name="패스 95338" d="M94.266,214.826l-3.956-2.892c-.462-.214-.95-.452-1.46-.719-1.451.5-7.874,2.122-17.433-4.072a30.5,30.5,0,0,0,19.967,11.344l1.286-.537Z" transform="translate(-56.526 -163.955)" fill="#e98cb7"/>
    <path id="패스_95339" data-name="패스 95339" d="M278.734,217.723q-.382-.379-.757-.744c-9.681,5.3-20.836,4.585-20.836,4.585l-1.806,1.094,1.27,3.335,1.22.674a30.454,30.454,0,0,0,20.908-8.943" transform="translate(-202.099 -171.74)" fill="#e98cb7"/>
    <path id="패스_95340" data-name="패스 95340" d="M65.474,166.946a29.867,29.867,0,0,0-6.043,4.831c.024.041.047.081.072.122a31.52,31.52,0,0,0,2.339,3.32c1.277-1.081,3.543-2.95,6.231-4.944q-.652-.767-1.3-1.6c-.489-.635-.918-1.211-1.3-1.729" transform="translate(-47.04 -132.138)" fill="#ffc600"/>
    <path id="패스_95341" data-name="패스 95341" d="M342.52,180.012c-.332.356-.689.737-1.081,1.145q-.957,1-1.919,1.875c1.261,1.1,3.1,2.751,5.089,4.688q.376.366.757.744a32.16,32.16,0,0,0,2.663-2.94l.108-.136a28.388,28.388,0,0,0-5.617-5.375" transform="translate(-268.731 -142.48)" fill="#ffc600"/>
    <path id="패스_95342" data-name="패스 95342" d="M171.844,217.047H159.968s-9.943,9.154-7.071,20.144c1.63,6.241,7.721,8.414,13.009,8.423,5.289-.01,11.379-2.183,13.009-8.423,2.871-10.99-7.072-20.144-7.072-20.144" transform="translate(-120.606 -171.794)" fill="#eea8c9"/>
    <path id="패스_95343" data-name="패스 95343" d="M187.936,255.987s1.388-4.185,5.177-3.037,3.472,8.634-5.343,11.129c-8.7-2.854-8.73-10.343-4.883-11.338s5.049,3.246,5.049,3.246" transform="translate(-142.816 -199.926)" fill="#fff"/>
    <path id="패스_95344" data-name="패스 95344" d="M243.07,234.719a55.608,55.608,0,0,1,2.976,16.822l6.391-.3s.645-7.505-4.717-18.182Z" transform="translate(-192.39 -184.468)" fill="#002867"/>
    <path id="패스_95345" data-name="패스 95345" d="M224.617,237.707a55.61,55.61,0,0,1,1.828,16.985l6.4.136s1.153-7.444-3.474-18.46Z" transform="translate(-177.785 -187.085)" fill="#fff691"/>
    <path id="패스_95346" data-name="패스 95346" d="M243.069,234.719a55.6,55.6,0,0,1,2.976,16.822l6.391-.3s.646-7.505-4.717-18.182Z" transform="translate(-192.39 -184.468)" fill="none"/>
    <path id="패스_95347" data-name="패스 95347" d="M156.76,233.229a55.609,55.609,0,0,0-2.976,16.822l-6.391-.3s-.646-7.505,4.717-18.182Z" transform="translate(-116.642 -183.289)" fill="#002867"/>
    <path id="패스_95348" data-name="패스 95348" d="M179.156,236.216a55.61,55.61,0,0,0-1.828,16.985l-6.4.136s-1.153-7.444,3.474-18.46Z" transform="translate(-135.192 -185.906)" fill="#fff691"/>
    <path id="패스_95349" data-name="패스 95349" d="M147.392,249.751l6.391.3a55.605,55.605,0,0,1,2.976-16.822l-4.65-1.659c-5.363,10.677-4.718,18.182-4.718,18.182" transform="translate(-116.642 -183.288)" fill="none"/>
    <path id="패스_95350" data-name="패스 95350" d="M196.633.264c-4.237-.573-7.789-.182-7.931.873l-3.434,9.825a31.372,31.372,0,0,0,8.909,2.959c8.048-2.192,8.526-10.374,8.539-12.037a21.085,21.085,0,0,0-6.084-1.62" transform="translate(-146.64 0)" fill="#c4181f"/>
    <path id="패스_95351" data-name="패스 95351" d="M228,21.072a24.838,24.838,0,0,0,11.12-.435l-1.25-10.272c.057-.423-.442-.888-1.331-1.33-.013,1.663-.492,9.846-8.539,12.037" transform="translate(-180.462 -7.151)" fill="#a61319"/>
    <path id="패스_95352" data-name="패스 95352" d="M228,21.072a24.838,24.838,0,0,0,11.12-.435l-1.25-10.272c.057-.423-.442-.888-1.331-1.33-.013,1.663-.492,9.846-8.539,12.037" transform="translate(-180.462 -7.151)" fill="#a61319"/>
    <path id="패스_95353" data-name="패스 95353" d="M320.97,70.917a3.92,3.92,0,0,0-.823-1.9,3.185,3.185,0,0,0-.982-.846,3.107,3.107,0,0,0-3.054.234,7.364,7.364,0,0,0-3.273,4.244l1.153,1.75c.134.038.333.091.575.146a7.948,7.948,0,0,0,3.827.046,3.21,3.21,0,0,0,2.577-3.671" transform="translate(-247.612 -53.718)" fill="#eea8c9"/>
    <path id="패스_95354" data-name="패스 95354" d="M101.436,57.414a3.108,3.108,0,0,0-3.012-.557,3.817,3.817,0,0,0-1.955,2.107,2.667,2.667,0,0,0-.131.434,3.21,3.21,0,0,0,2.173,3.924,8.659,8.659,0,0,0,4.4.277l1.332-1.618c-.01-.038-.02-.075-.03-.113a7.293,7.293,0,0,0-2.773-4.454" transform="translate(-76.177 -44.855)" fill="#eea8c9"/>
    <path id="패스_95355" data-name="패스 95355" d="M150.248,59.779a18.546,18.546,0,0,0-2.759-4c-3.505-3.871-8.665-6.288-15.377-7.213q-2.174-.3-4.564-.389A26.227,26.227,0,0,0,112.741,51.8a19.144,19.144,0,0,0-8.735,13.35c-1.1,6.3.149,11.8,3.611,15.9,4.5,5.322,12.343,8.105,22.684,8.049.22,0,.435-.006.65-.011,18.4-.391,21.184-12.954,21.519-18.387a21.638,21.638,0,0,0-2.222-10.921" transform="translate(-82.013 -38.118)" fill="#eea8c9"/>
    <path id="패스_95356" data-name="패스 95356" d="M265.488,114.055a1.216,1.216,0,1,1-1.376,1.033,1.216,1.216,0,0,1,1.376-1.033" transform="translate(-209.036 -90.265)" fill="#2a0e1a"/>
    <path id="패스_95357" data-name="패스 95357" d="M164.321,111.1a1.216,1.216,0,1,1,1.375-1.033,1.216,1.216,0,0,1-1.375,1.033" transform="translate(-129.233 -86.017)" fill="#2a0e1a"/>
    <path id="패스_95358" data-name="패스 95358" d="M189.905,129.344c-3.221-.549-5-2.213-5.044-4.772-.058-3.271,2.326-5.259,6.379-5.317,2.99-.043,5.456.84,6.764,2.421a4.473,4.473,0,0,1,.924,3.754c-.369,2.068-1.993,4.454-7.634,4.075a13.781,13.781,0,0,1-1.388-.161" transform="translate(-146.317 -94.39)" fill="#e98cb7"/>
    <path id="패스_95359" data-name="패스 95359" d="M190.054,122.062c-3.221-.549-5-2.213-5.044-4.772-.058-3.271,2.326-5.259,6.379-5.317,2.99-.043,5.456.84,6.765,2.421a4.472,4.472,0,0,1,.924,3.754c-.369,2.068-1.993,4.454-7.634,4.075a13.776,13.776,0,0,1-1.388-.161" transform="translate(-146.435 -88.626)" fill="#fff"/>
    <path id="패스_95360" data-name="패스 95360" d="M199.224,129.714a1.559,1.559,0,1,1,1.788-1.291,1.56,1.56,0,0,1-1.788,1.291" transform="translate(-156.648 -100.216)" fill="#d46f83"/>
    <path id="패스_95361" data-name="패스 95361" d="M226.968,128.085a1.559,1.559,0,1,1-1.788,1.291,1.56,1.56,0,0,1,1.788-1.291" transform="translate(-178.214 -101.364)" fill="#d46f83"/>
    <path id="패스_95362" data-name="패스 95362" d="M134.59,123.156h0c-2.072-.214-3.805.167-4.751,1.045a2.323,2.323,0,0,0-.731,2.1c.28,2.244,2.884,2.789,5.016,2.852,1.958.058,4.332-.326,4.526-2.48.176-1.95-1.3-3.232-4.061-3.517" transform="translate(-102.171 -97.433)" fill="#e6697a"/>
    <path id="패스_95363" data-name="패스 95363" d="M270.942,128.7h0c-2.072-.214-3.805.167-4.751,1.045a2.323,2.323,0,0,0-.731,2.1c.28,2.244,2.884,2.789,5.016,2.852,1.958.058,4.332-.326,4.526-2.48.176-1.95-1.3-3.232-4.061-3.517" transform="translate(-210.094 -101.824)" fill="#e6697a"/>
    <path id="패스_95364" data-name="패스 95364" d="M234.715,133.2c18.4-.39,21.184-12.954,21.519-18.387a21.632,21.632,0,0,0-2.222-10.921c.206,2.682,1.019,22.607-19.3,29.308" transform="translate(-185.778 -82.232)" fill="#e98cb7"/>
    <path id="패스_95365" data-name="패스 95365" d="M315.82,77.494l1.106,1.4a7.942,7.942,0,0,0,3.827.046,3.21,3.21,0,0,0,2.577-3.671,3.918,3.918,0,0,0-.823-1.9c-1.613,3.573-6.687,4.124-6.687,4.124" transform="translate(-249.972 -58.073)" fill="#e98cb7"/>
    <path id="패스_95366" data-name="패스 95366" d="M96.468,67.669a2.661,2.661,0,0,0-.131.434,3.209,3.209,0,0,0,2.173,3.923,8.654,8.654,0,0,0,4.4.277l1.332-1.617c-.01-.038-.02-.075-.03-.113-1.215.134-5.78.4-7.741-2.9" transform="translate(-76.177 -53.56)" fill="#e98cb7"/>
    <path id="패스_95367" data-name="패스 95367" d="M76.119,279.778a11.67,11.67,0,0,1,.068-2.668,11.4,11.4,0,0,1,5.8-8.131L70.671,268.9a3.529,3.529,0,0,0-2.532-5.472,4.69,4.69,0,0,0-1.258.026,3.57,3.57,0,0,0-3.049,3.747,4.115,4.115,0,0,0,.492,1.655l-43.6-.3a4.114,4.114,0,0,0,.49-1.652,3.57,3.57,0,0,0-3.049-3.747,4.414,4.414,0,0,0-1.819.078,3.537,3.537,0,0,0-2.03,5.277l-6.581-.045A10.758,10.758,0,0,0,.013,278.745c-.326,8.724,5.436,10.709,5.436,10.709s11.7.966,31.322,1.07c12.871.069,29.148-.233,47.774-1.421,0,0-7.774-1.715-8.426-9.325" transform="translate(0 -208.247)" fill="#e24046"/>
    <path id="패스_95368" data-name="패스 95368" d="M230.255,330.639a1.154,1.154,0,1,1-1.27,1.025,1.154,1.154,0,0,1,1.27-1.025" transform="translate(-181.237 -261.697)" fill="#2a0e1a"/>
    <path id="패스_95369" data-name="패스 95369" d="M118.075,332.22a1.154,1.154,0,1,1,1.27-1.025,1.154,1.154,0,0,1-1.27,1.025" transform="translate(-92.64 -261.132)" fill="#2a0e1a"/>
    <path id="패스_95370" data-name="패스 95370" d="M144.9,340.762c-3.694-.4-5.834-2.047-6.076-4.736-.309-3.437,2.249-5.661,6.841-5.948,3.388-.212,6.251.578,7.853,2.168a4.535,4.535,0,0,1,1.326,3.9c-.265,2.2-1.93,4.795-8.358,4.712q-.836-.011-1.587-.092" transform="translate(-109.863 -261.231)" fill="#fff"/>
    <path id="패스_95371" data-name="패스 95371" d="M156.356,350.6a1.635,1.635,0,1,1,1.82-1.422,1.634,1.634,0,0,1-1.82,1.422" transform="translate(-122.623 -274.921)" fill="#e24046"/>
    <path id="패스_95372" data-name="패스 95372" d="M185.312,347.812a1.635,1.635,0,1,1-1.82,1.422,1.634,1.634,0,0,1,1.82-1.422" transform="translate(-145.224 -275.284)" fill="#e24046"/>
    <path id="패스_95373" data-name="패스 95373" d="M98.545,344.669h0a5.4,5.4,0,0,0-4.114,1.085,2.032,2.032,0,0,0-.563,1.861c.326,1.95,2.62,2.332,4.486,2.311,1.713-.02,3.774-.441,3.866-2.331.084-1.711-1.256-2.777-3.675-2.926" transform="translate(-74.269 -272.792)" fill="#e6697a"/>
    <path id="패스_95374" data-name="패스 95374" d="M226.1,344.589h0a5.4,5.4,0,0,0-4.114,1.085,2.032,2.032,0,0,0-.563,1.861c.326,1.95,2.62,2.332,4.486,2.311,1.713-.02,3.774-.441,3.866-2.331.084-1.711-1.256-2.777-3.675-2.926" transform="translate(-175.229 -272.729)" fill="#e6697a"/>
    <path id="패스_95375" data-name="패스 95375" d="M68.7,263.757a3.537,3.537,0,0,0-2.03,5.277l3.7.025c-2.322-1.442-2.058-3.91-1.67-5.3" transform="translate(-52.355 -208.765)" fill="#c2363a"/>
    <path id="패스_95376" data-name="패스 95376" d="M321.03,270.116l3.738.026a3.529,3.529,0,0,0-2.532-5.472c.406,1.211.946,3.829-1.205,5.446" transform="translate(-254.096 -209.487)" fill="#c2363a"/>
    <path id="패스_95377" data-name="패스 95377" d="M224.136,342.277s-7.774-1.715-8.426-9.325a11.669,11.669,0,0,1,.068-2.668c-4.3,3.766-15.8,11.453-39.416,13.415,12.871.069,29.147-.233,47.773-1.421" transform="translate(-139.592 -261.421)" fill="#c2363a"/>
  </g>
</svg>
