<svg xmlns="http://www.w3.org/2000/svg" xmlns:xlink="http://www.w3.org/1999/xlink" width="24" height="24.001" viewBox="0 0 24 24.001">
  <defs>
    <clipPath id="clip-path">
      <rect id="Rectangle_152617" data-name="Rectangle 152617" width="8" height="5" transform="translate(0.172 -0.199)" fill="#fff"/>
    </clipPath>
  </defs>
  <g id="notice" transform="translate(-211 -1331)">
    <g id="icon" transform="translate(211.482 1331)">
      <rect id="area" width="24" height="24" transform="translate(-0.482)" fill="red" opacity="0"/>
      <g id="Mask_Group_22" data-name="Mask Group 22" transform="translate(7.346 19.2)" clip-path="url(#clip-path)">
        <g id="Ellipse_9708" data-name="Ellipse 9708" transform="translate(0.173 -3.2)" fill="none" stroke="#0072ff" stroke-width="1.5">
          <circle cx="4" cy="4" r="4" stroke="none"/>
          <circle cx="4" cy="4" r="3.25" fill="none"/>
        </g>
      </g>
      <g id="icon-2" data-name="icon" transform="translate(0.826)">
        <g id="Union_1" data-name="Union 1" transform="translate(-0.342)" fill="none">
          <path d="M2.539,20.4a2.5,2.5,0,0,1-1.287-4.643l.5-.3v-6.2a9.255,9.255,0,1,1,18.509,0v6.206l.492.3A2.5,2.5,0,0,1,19.462,20.4Z" stroke="none"/>
          <path d="M 19.46159934997559 18.89940071105957 C 20.14817047119141 18.89940071105957 20.36433982849121 18.38689041137695 20.4254093170166 18.16654014587402 C 20.48646926879883 17.94622039794922 20.56494903564453 17.39563941955566 19.97646903991699 17.04231071472168 L 18.75629997253418 16.3097095489502 L 18.75629997253418 9.254700660705566 C 18.75629997253418 4.978740215301514 15.27756023406982 1.500000357627869 11.00160026550293 1.500000357627869 C 6.725639820098877 1.500000357627869 3.246899843215942 4.978740215301514 3.246899843215942 9.254700660705566 L 3.246899843215942 16.30801963806152 L 2.024039745330811 17.04230117797852 C 1.435549855232239 17.39563941955566 1.514029860496521 17.94622039794922 1.575089812278748 18.16654014587402 C 1.636159896850586 18.38689041137695 1.852329850196838 18.89940071105957 2.538899898529053 18.89940071105957 L 19.46159934997559 18.89940071105957 M 19.46159934997559 20.39940071105957 L 2.538899898529053 20.39940071105957 C 0.003599862568080425 20.39940071105957 -0.9216001629829407 17.06130027770996 1.251899838447571 15.75629997253418 L 1.746899843215942 15.45907020568848 L 1.746899843215942 9.254700660705566 C 1.746899843215942 4.143600463867188 5.890500068664551 3.555297780621913e-07 11.00160026550293 3.555297780621913e-07 C 16.11269950866699 3.555297780621913e-07 20.25629997253418 4.143600463867188 20.25629997253418 9.254700660705566 L 20.25629997253418 15.46072006225586 L 20.74860000610352 15.75629997253418 C 22.92210006713867 17.06130027770996 21.99690055847168 20.39940071105957 19.46159934997559 20.39940071105957 Z" stroke="none" fill="#333"/>
        </g>
        <path id="Path_93502" data-name="Path 93502" d="M0,0H3.338" transform="translate(15.872 15.938)" fill="none" stroke="#333" stroke-linecap="round" stroke-width="1.5"/>
      </g>
    </g>
  </g>
</svg>
