<svg xmlns="http://www.w3.org/2000/svg" width="20" height="20" viewBox="0 0 20 20">
  <g id="ic_전체메뉴_고객센터" transform="translate(0 1.001)">
    <rect id="Rectangle_152777" data-name="Rectangle 152777" width="20" height="20" transform="translate(0 -1.001)" fill="red" opacity="0"/>
    <g id="Group_38133" data-name="Group 38133" transform="translate(0.499 1.219)">
      <g id="Union_116" data-name="Union 116" transform="translate(19 16.558) rotate(180)" fill="none">
        <path d="M2.655.479l.151,2.514A8.084,8.084,0,0,0,0,9.038c0,4.705,4.253,8.519,9.5,8.519S19,13.743,19,9.038,14.745.518,9.5.518a10.363,10.363,0,0,0-4.173.864L3.351.075A.443.443,0,0,0,3.105,0,.451.451,0,0,0,2.655.479Z" stroke="none"/>
        <path d="M 9.4990234375 2.018145561218262 C 8.24410343170166 2.018145561218262 7.043143272399902 2.266265869140625 5.929503440856934 2.755596160888672 L 5.180453300476074 3.084735870361328 L 4.278201103210449 2.487554550170898 L 4.346743583679199 3.629035949707031 L 3.803593635559082 4.112885475158691 C 2.318103790283203 5.436165809631348 1.500003814697266 7.185396194458008 1.500003814697266 9.038325309753418 C 1.500003814697266 12.90877532958984 5.088353157043457 16.05761528015137 9.4990234375 16.05761528015137 C 13.90969276428223 16.05761528015137 17.49804306030273 12.90877532958984 17.49804306030273 9.038325309753418 C 17.49804306030273 5.167386054992676 13.90969276428223 2.018145561218262 9.4990234375 2.018145561218262 M 3.105323791503906 -3.814697265625e-06 C 3.188053131103516 5.7220458984375e-06 3.273003578186035 0.02343559265136719 3.351433753967285 0.07534599304199219 L 5.326083183288574 1.382326126098633 C 6.58574390411377 0.8288249969482422 8.001863479614258 0.5181465148925781 9.4990234375 0.5181465148925781 C 14.74486351013184 0.5181465148925781 18.99804306030273 4.333195686340332 18.99804306030273 9.038325309753418 C 18.99804306030273 13.74346542358398 14.74486351013184 17.55761528015137 9.4990234375 17.55761528015137 C 4.253183364868164 17.55761528015137 3.814697265625e-06 13.74346542358398 3.814697265625e-06 9.038325309753418 C 3.814697265625e-06 6.675135612487793 1.073112487792969 4.536365509033203 2.805843353271484 2.992835998535156 L 2.654863357543945 0.478546142578125 C 2.638753890991211 0.20196533203125 2.862483978271484 -3.814697265625e-06 3.105323791503906 -3.814697265625e-06 Z" stroke="none" fill="#0072ff"/>
      </g>
      <g id="Group_38134" data-name="Group 38134" transform="translate(-0.5 0.449)">
        <circle id="Ellipse_9857" data-name="Ellipse 9857" cx="1" cy="1" r="1" transform="translate(5.002 6.103)" fill="#0072ff"/>
        <circle id="Ellipse_9858" data-name="Ellipse 9858" cx="1" cy="1" r="1" transform="translate(9.002 6.103)" fill="#0072ff"/>
        <circle id="Ellipse_9859" data-name="Ellipse 9859" cx="1" cy="1" r="1" transform="translate(13.002 6.103)" fill="#0072ff"/>
      </g>
    </g>
  </g>
</svg>
