<svg xmlns="http://www.w3.org/2000/svg" xmlns:xlink="http://www.w3.org/1999/xlink" width="21.049" height="23.1" viewBox="0 0 21.049 23.1">
  <defs>
    <linearGradient id="linear-gradient" x1="0.119" y1="0.213" x2="0.971" y2="0.953" gradientUnits="objectBoundingBox">
      <stop offset="0" stop-color="#59cdf3"/>
      <stop offset="1" stop-color="#1a92b1"/>
    </linearGradient>
    <linearGradient id="linear-gradient-2" x1="0.079" y1="0.035" x2="0.862" y2="0.962" xlink:href="#linear-gradient"/>
    <linearGradient id="linear-gradient-3" x1="0.119" y1="0.213" x2="0.971" y2="0.953" gradientUnits="objectBoundingBox">
      <stop offset="0" stop-color="#ffed4d"/>
      <stop offset="1" stop-color="#f8a34f"/>
    </linearGradient>
    <filter id="Union_113" x="0" y="0" width="19.279" height="23.1" filterUnits="userSpaceOnUse">
      <feOffset dx="2" input="SourceAlpha"/>
      <feGaussianBlur stdDeviation="1" result="blur"/>
      <feFlood flood-opacity="0.059"/>
      <feComposite operator="in" in2="blur"/>
      <feComposite in="SourceGraphic"/>
    </filter>
    <filter id="Union_113-2" x="0" y="0" width="19.279" height="23.1" filterUnits="userSpaceOnUse">
      <feOffset dx="1" dy="1" input="SourceAlpha"/>
      <feGaussianBlur stdDeviation="1.5" result="blur-2"/>
      <feFlood flood-color="#fff" flood-opacity="0.18" result="color"/>
      <feComposite operator="out" in="SourceGraphic" in2="blur-2"/>
      <feComposite operator="in" in="color"/>
      <feComposite operator="in" in2="SourceGraphic"/>
    </filter>
  </defs>
  <g id="ic_20px_notice" transform="translate(16196 20404.551)">
    <g id="Group_37847" data-name="Group 37847" transform="translate(-80)">
      <g id="area" transform="translate(-16115 -20403)" fill="red" stroke="#707070" stroke-width="1.5" opacity="0">
        <rect width="20" height="20" stroke="none"/>
        <rect x="0.75" y="0.75" width="18.5" height="18.5" fill="none"/>
      </g>
      <g id="icon" transform="translate(-16115.498 -20403)">
        <g id="Group_1" data-name="Group 1" transform="translate(-1)">
          <path id="Union_112" data-name="Union 112" d="M16202.644,20420.1a.338.338,0,0,1-.045,0h-1a.5.5,0,0,1-.5-.5v-.2l-5.1-3.857v-8l5.1-3.857v-.2a.5.5,0,0,1,.5-.5h1a.553.553,0,0,1,.059,0,2.225,2.225,0,0,1,2.407,2.16v12.775a2.214,2.214,0,0,1-2.273,2.16C16202.742,20420.1,16202.693,20420.1,16202.644,20420.1Z" transform="translate(-16189 -20401.551)" fill="#d49a00"/>
          <path id="Path_89807" data-name="Path 89807" d="M5.389.473,0,4.551v8l5.389,4.078a2.278,2.278,0,0,0,3.677-1.689V2.161A2.278,2.278,0,0,0,5.389.473" transform="translate(5.708 1.45)" fill="url(#linear-gradient)"/>
          <path id="Rectangle_1" data-name="Rectangle 1" d="M3,0H5.5a0,0,0,0,1,0,0V10a0,0,0,0,1,0,0H3A3,3,0,0,1,0,7V3A3,3,0,0,1,3,0Z" transform="translate(1.5 5)" fill="url(#linear-gradient-2)"/>
          <g data-type="innerShadowGroup">
            <g transform="matrix(1, 0, 0, 1, 0.5, -1.55)" filter="url(#Union_113)">
              <path id="Union_113-3" data-name="Union 113" d="M16205.6,20419.627l-4.1-3.1v.023h-2.5a3,3,0,0,1-3-3v-4a3,3,0,0,1,3-3h2.5v.018l4.1-3.1a2.279,2.279,0,0,1,3.68,1.691v12.775a2.217,2.217,0,0,1-2.278,2.16A2.3,2.3,0,0,1,16205.6,20419.627Z" transform="translate(-16195 -20400)" fill="url(#linear-gradient-3)"/>
            </g>
            <g transform="matrix(1, 0, 0, 1, 0.5, -1.55)" filter="url(#Union_113-2)">
              <path id="Union_113-4" data-name="Union 113" d="M16205.6,20419.627l-4.1-3.1v.023h-2.5a3,3,0,0,1-3-3v-4a3,3,0,0,1,3-3h2.5v.018l4.1-3.1a2.279,2.279,0,0,1,3.68,1.691v12.775a2.217,2.217,0,0,1-2.278,2.16A2.3,2.3,0,0,1,16205.6,20419.627Z" transform="translate(-16195 -20400)" fill="#fff"/>
            </g>
          </g>
          <g id="Ellipse_9827" data-name="Ellipse 9827" transform="translate(12.838 6.305)" fill="#fff" stroke="#fff" stroke-width="1">
            <circle cx="0.574" cy="0.574" r="0.574" stroke="none"/>
            <circle cx="0.574" cy="0.574" r="0.074" fill="none"/>
          </g>
          <path id="Path_93363" data-name="Path 93363" d="M77.966,327.924V326.7c-.052-.569-.134-.795-.482-1.021a1.023,1.023,0,0,0-1.045.162c-.469.418-.937.859-.937.859" transform="translate(-64.578 -322.648)" fill="none" stroke="#fff" stroke-linecap="round" stroke-width="1"/>
          <rect id="Rectangle_152676" data-name="Rectangle 152676" width="1" height="10" transform="translate(6 5)" fill="#d49a00"/>
        </g>
      </g>
      <g id="Group_37848" data-name="Group 37848" transform="translate(-16115.767 -20403)">
        <line id="Line_1" data-name="Line 1" x2="2.2" transform="translate(17.866 10)" fill="none" stroke="#ffcd46" stroke-linecap="round" stroke-width="1.5"/>
        <line id="Line_2" data-name="Line 2" y1="0.27" x2="2.032" transform="translate(17.066 6.516) rotate(-30)" fill="none" stroke="#ffcd46" stroke-linecap="round" stroke-width="1.5"/>
        <line id="Line_3" data-name="Line 3" x2="2.032" y2="0.27" transform="translate(17.201 13.25) rotate(30)" fill="none" stroke="#ffcd46" stroke-linecap="round" stroke-width="1.5"/>
      </g>
    </g>
  </g>
</svg>
