<svg xmlns="http://www.w3.org/2000/svg" width="20" height="20" viewBox="0 0 20 20">
  <g id="ic_20px_tel" transform="translate(-56.957 -233.5)">
    <rect id="area" width="20" height="20" transform="translate(56.957 233.5)" fill="#c4c4c4" opacity="0"/>
    <path id="Path_89812" data-name="Path 89812" d="M9.928,11.259l1.04-1.1a1.466,1.466,0,0,1,1.712-.312c.208.078.68.257.784.289a2.871,2.871,0,0,0,.936.1A1.536,1.536,0,0,1,16,11.8v2.643A1.536,1.536,0,0,1,14.4,16,14.584,14.584,0,0,1,0,1.559,1.536,1.536,0,0,1,1.6,0H4.392c.952,0,2,.593,2,1.559a5.653,5.653,0,0,0,.44,2.175,1.683,1.683,0,0,1-.256,1.458.825.825,0,0,1-.16.172L5,6.487A16.423,16.423,0,0,0,9.928,11.259Z" transform="translate(58.957 235.5)" fill="none" stroke="#333" stroke-width="1.5"/>
  </g>
</svg>
