<svg xmlns="http://www.w3.org/2000/svg" xmlns:xlink="http://www.w3.org/1999/xlink" width="94" height="18" viewBox="0 0 94 18">
  <defs>
    <clipPath id="clip-path">
      <rect id="사각형_152792" data-name="사각형 152792" width="94" height="18" transform="translate(133 1423.08)" fill="#fff"/>
    </clipPath>
    <clipPath id="clip-path-2">
      <rect id="사각형_153440" data-name="사각형 153440" width="360" height="84" transform="translate(0 -0.139)" fill="#fff" stroke="#eee" stroke-width="1"/>
    </clipPath>
  </defs>
  <g id="FOOTER_CUT" transform="translate(-133 -1423.08)" clip-path="url(#clip-path)">
    <g id="마스크_그룹_37800" data-name="마스크 그룹 37800" transform="translate(0 1422.22)" clip-path="url(#clip-path-2)">
      <g id="합치기_128" data-name="합치기 128" transform="translate(125.723 0.785)" fill="#fff">
        <path d="M 54.28124618530273 54.67556381225586 C 47.04523086547852 54.67556381225586 40.14641571044922 52.09514999389648 34.85565948486328 47.40966415405273 C 29.59847259521484 42.75391006469727 26.40504455566406 36.45369338989258 25.86364364624023 29.66962242126465 L 25.82351493835449 29.16678047180176 L 25.32105827331543 29.21135139465332 L 12.12461948394775 30.38186836242676 L 1.14516282081604 18.62909317016602 C 5.615213394165039 18.60301208496094 11.90780162811279 18.56331825256348 12.40410900115967 18.54391098022461 L 12.37500190734863 18.54557991027832 C 23.56793022155762 18.54557991027832 31.22982978820801 11.38289451599121 32.65210342407227 9.947036743164062 L 32.65999984741211 9.939051628112793 L 32.66754531860352 9.930737495422363 C 35.28253173828125 7.042180061340332 38.57550048828125 4.663280010223389 42.19046020507812 3.05120849609375 C 45.98658752441406 1.358351469039917 50.05451583862305 0.4999942779541016 54.28124618530273 0.4999942779541016 C 62.69321441650391 0.4999942779541016 70.63259887695312 4.006722927093506 76.06367492675781 10.12102317810059 L 76.07534790039062 10.13413715362549 L 76.087890625 10.14642238616943 C 78.1024169921875 12.11676597595215 85.50397491455078 18.54557991027832 96.166015625 18.54557991027832 L 96.13446807861328 18.54370880126953 C 96.59880828857422 18.56246948242188 102.2358322143555 18.59906578063965 107.3884124755859 18.62909698486328 L 96.41436767578125 30.38186836242676 L 83.23947143554688 29.21360778808594 L 82.73709869384766 29.16905212402344 L 82.6968994140625 29.67180824279785 C 82.15458679199219 36.45587921142578 78.96099090576172 42.75570678710938 73.70439910888672 47.41079330444336 C 68.41431427001953 52.09555053710938 61.516357421875 54.67556381225586 54.28124618530273 54.67556381225586 Z" stroke="none"/>
        <path d="M 54.28124618530273 54.17556381225586 C 61.39411544799805 54.17556381225586 68.17434692382812 51.64017868041992 73.37291717529297 47.03647994995117 C 78.53221893310547 42.46753692626953 81.66652679443359 36.28649520874023 82.19850158691406 29.63196563720703 L 82.27886962890625 28.62646484375 L 96.21547698974609 29.86227226257324 L 106.2437438964844 19.12239265441895 C 98.18766021728516 19.07460403442383 96.53829193115234 19.05467224121094 96.166015625 19.04446029663086 L 96.166015625 19.04557991027832 C 85.3148193359375 19.04557991027832 77.7869873046875 12.50766563415527 75.73827362060547 10.50386524200439 L 75.68985748291016 10.45306587219238 C 70.35358428955078 4.445508480072021 62.55045700073242 0.9999942779541016 54.28124618530273 0.9999942779541016 C 50.12512969970703 0.9999942779541016 46.12571716308594 1.843765735626221 42.39408874511719 3.50786566734314 C 38.84212875366211 5.091836929321289 35.60691452026367 7.428865909576416 33.03821563720703 10.26629447937012 L 33.00733184814453 10.29890823364258 C 31.5605583190918 11.75949382781982 23.76637268066406 19.04557991027832 12.37500190734863 19.04557991027832 L 12.37500190734863 19.04451560974121 C 12.00810241699219 19.05437278747559 10.36538696289062 19.07446670532227 2.290239334106445 19.12238693237305 L 12.32345199584961 29.86227035522461 L 26.28180122375488 28.62416648864746 L 26.36205863952637 29.62983703613281 C 26.89311599731445 36.28436660766602 30.02725791931152 42.46576690673828 35.18716049194336 47.03535079956055 C 40.38640213012695 51.63979339599609 47.16747283935547 54.17556381225586 54.28124618530273 54.17556381225586 M 54.28124618530273 55.17556381225586 C 39.013671875 55.17556381225586 26.5019588470459 43.95340728759766 25.36523056030273 29.70939445495605 L 11.9257869720459 30.90146636962891 L 1.56249996052793e-06 18.13570785522461 C 1.56249996052793e-06 18.13570785522461 12.19921588897705 18.06585121154785 12.37500190734863 18.04557991027832 C 23.36914443969727 18.04557991027832 30.8906307220459 11.01483726501465 32.29687118530273 9.595165252685547 C 37.61523056030273 3.720437049865723 45.49023056030273 -5.715506631531753e-06 54.28124618530273 -5.715506631531753e-06 C 63.166015625 -5.715506631531753e-06 71.119140625 3.801565647125244 76.4375 9.788966178894043 C 78.24610137939453 11.55790901184082 85.59961700439453 18.04557991027832 96.166015625 18.04557991027832 C 96.33594512939453 18.06585121154785 108.533203125 18.13570785522461 108.533203125 18.13570785522461 L 96.61328887939453 30.90146636962891 L 83.1953125 29.71165084838867 C 82.056640625 43.95566558837891 69.546875 55.17556381225586 54.28124618530273 55.17556381225586 Z" stroke="none" fill="#eee"/>
      </g>
    </g>
  </g>
</svg>
