<svg xmlns="http://www.w3.org/2000/svg" width="24" height="24" viewBox="0 0 24 24">
  <g id="item" transform="translate(-211 -1331)">
    <rect id="Rectangle_152561" data-name="Rectangle 152561" width="24" height="24" transform="translate(211 1331)" fill="#eef1f6" opacity="0"/>
    <g id="Group_37672" data-name="Group 37672">
      <g id="Path_92859" data-name="Path 92859" transform="translate(212 1332)" fill="none">
        <path d="M6.111,0h9.778a4.765,4.765,0,0,1,4.889,4.632L22,17.368A4.765,4.765,0,0,1,17.111,22H4.889A4.765,4.765,0,0,1,0,17.368L1.222,4.632A4.765,4.765,0,0,1,6.111,0Z" stroke="none"/>
        <path d="M 6.111109733581543 1.5 C 4.242469787597656 1.5 2.722219467163086 2.904819488525391 2.722219467163086 4.631580352783203 L 2.722219467163086 4.703380584716797 L 1.500707626342773 17.43284034729004 C 1.537914276123047 19.13001823425293 3.043516159057617 20.5 4.888889312744141 20.5 L 17.11111068725586 20.5 C 18.95648384094238 20.5 20.46208572387695 19.13001823425293 20.49929237365723 17.43284034729004 L 19.27778053283691 4.703380584716797 L 19.27778053283691 4.631580352783203 C 19.27778053283691 2.904819488525391 17.75753021240234 1.5 15.88888931274414 1.5 L 6.111109733581543 1.5 M 6.111109733581543 0 L 15.88888931274414 0 C 18.58894920349121 0 20.77778053283691 2.073629379272461 20.77778053283691 4.631580352783203 L 22 17.3684196472168 C 22 19.92637062072754 19.81117057800293 22 17.11111068725586 22 L 4.888889312744141 22 C 2.18882942199707 22 0 19.92637062072754 0 17.3684196472168 L 1.222219467163086 4.631580352783203 C 1.222219467163086 2.073629379272461 3.411050796508789 0 6.111109733581543 0 Z" stroke="none" fill="#333"/>
      </g>
      <path id="Path_92860" data-name="Path 92860" d="M217.264,1337s3.426,4.2,7.176,0" transform="translate(2.111 1.174)" fill="none" stroke="#0072ff" stroke-linecap="round" stroke-width="1.5"/>
    </g>
  </g>
</svg>
