<svg xmlns="http://www.w3.org/2000/svg" xmlns:xlink="http://www.w3.org/1999/xlink" width="16" height="16" viewBox="0 0 16 16">
  <defs>
    <clipPath id="clip-path">
      <rect id="사각형_153453" data-name="사각형 153453" width="16" height="16" transform="translate(94 405)" fill="none"/>
    </clipPath>
  </defs>
  <g id="마스크_그룹_37798" data-name="마스크 그룹 37798" transform="translate(110 421) rotate(180)" clip-path="url(#clip-path)">
    <g id="다각형_61" data-name="다각형 61" transform="translate(107 415) rotate(180)" fill="#707070" stroke-linejoin="round">
      <path d="M 11.42539024353027 4.5 L 10 4.5 L 0 4.5 L -1.425390005111694 4.5 L -0.3123500049114227 3.609570026397705 L 4.687650203704834 -0.3904300034046173 L 5 -0.6403099894523621 L 5.312349796295166 -0.3904300034046173 L 10.31235027313232 3.609570026397705 L 11.42539024353027 4.5 Z" stroke="none"/>
      <path d="M 5 0 L 0 4 L 10 4 L 5 0 M 5 -0.999997615814209 C 5.221045017242432 -0.999997615814209 5.442090034484863 -0.9269552230834961 5.62470006942749 -0.7808699607849121 L 10.62469959259033 3.219130039215088 C 10.95631980895996 3.484430074691772 11.08419990539551 3.930259943008423 10.94363021850586 4.331009864807129 C 10.80305004119873 4.731750011444092 10.42469024658203 5 10 5 L 0 5 C -0.4246902465820312 5 -0.8030500411987305 4.731750011444092 -0.9436302185058594 4.331009864807129 C -1.084199905395508 3.930259943008423 -0.9563198089599609 3.484430074691772 -0.624699592590332 3.219130039215088 L 4.37529993057251 -0.7808699607849121 C 4.557909965515137 -0.9269552230834961 4.778954982757568 -0.999997615814209 5 -0.999997615814209 Z" stroke="none" fill="#707070"/>
    </g>
  </g>
</svg>
