<svg xmlns="http://www.w3.org/2000/svg" width="16" height="16.001" viewBox="0 0 16 16.001">
  <g id="ic_검색" transform="translate(-2.001 -2.435)">
    <rect id="area" width="16" height="16" transform="translate(2.001 2.436)" fill="#e94a6b" opacity="0"/>
    <g id="Union_93" data-name="Union 93" transform="translate(2.001 2.435)" fill="none">
      <path d="M14.711,15.773l-2.894-2.894a7.249,7.249,0,1,1,1.061-1.061l2.894,2.894a.75.75,0,1,1-1.061,1.06Z" stroke="none"/>
      <path d="M 7.249500274658203 12.99900531768799 C 8.585060119628906 12.99900531768799 9.837560653686523 12.55502510070801 10.87159061431885 11.71506500244141 L 11.33638763427734 11.33750438690186 L 11.71413040161133 10.87275505065918 C 12.55469989776611 9.838555335998535 12.99900054931641 8.585655212402344 12.99900054931641 7.249505043029785 C 12.99900054931641 4.079215049743652 10.41979026794434 1.500005125999451 7.249500274658203 1.500005125999451 C 4.07921028137207 1.500005125999451 1.500000238418579 4.079215049743652 1.500000238418579 7.249505043029785 C 1.500000238418579 10.41979503631592 4.07921028137207 12.99900531768799 7.249500274658203 12.99900531768799 M 15.24195003509521 15.9934549331665 C 15.05003070831299 15.9934549331665 14.85809993743896 15.92010498046875 14.71140003204346 15.77340507507324 L 11.81735038757324 12.87934494018555 C 10.57068061828613 13.89203548431396 8.981010437011719 14.49900531768799 7.249500274658203 14.49900531768799 C 3.245400190353394 14.49900531768799 2.670288097306184e-07 11.25360488891602 2.670288097306184e-07 7.249505043029785 C 2.670288097306184e-07 3.245405197143555 3.245400190353394 5.082397365185898e-06 7.249500274658203 5.082397365185898e-06 C 11.25360012054443 5.082397365185898e-06 14.49900054931641 3.245405197143555 14.49900054931641 7.249505043029785 C 14.49900054931641 8.981744766235352 13.89160060882568 10.57192516326904 12.87814044952393 11.81883525848389 L 15.77250003814697 14.71320533752441 C 16.06500053405762 15.00570487976074 16.06500053405762 15.48090553283691 15.77250003814697 15.77340507507324 C 15.62580013275146 15.92010498046875 15.43387985229492 15.9934549331665 15.24195003509521 15.9934549331665 Z" class="has-fill" stroke="none" fill="#0072ff"/>
    </g>
  </g>
</svg>
