<svg id="icon_32px_home" xmlns="http://www.w3.org/2000/svg" width="32" height="32" viewBox="0 0 32 32">
  <rect id="Rectangle_34" data-name="Rectangle 34" width="32" height="32" fill="none"/>
  <g id="home" transform="translate(-41.998 -1321)">
    <g id="Union_102" data-name="Union 102" transform="translate(50 1328.6)" fill="none" stroke-linecap="round" stroke-linejoin="round">
      <path d="M4,16.8a4,4,0,0,1-4-4V6.612H.006a1.462,1.462,0,0,1,.477-.9L6.429.592a2.391,2.391,0,0,1,3.15,0l5.946,5.118A1.165,1.165,0,0,1,16,6.668V12.8a4,4,0,0,1-4,4Z" stroke="none"/>
      <path d="M 11.99879932403564 14.79759979248047 C 13.10137939453125 14.79759979248047 13.99839973449707 13.90057945251465 13.99839973449707 12.79799938201904 L 13.99839973449707 7.035342693328857 L 8.273959159851074 2.108009576797485 C 8.255379676818848 2.092009544372559 8.237089157104492 2.075669527053833 8.219099044799805 2.058999538421631 C 8.188549041748047 2.03067946434021 8.108749389648438 2.000199556350708 8.005739212036133 2.000199556350708 C 7.889259338378906 2.000199556350708 7.810149669647217 2.038689613342285 7.79008960723877 2.057329416275024 C 7.771529674530029 2.074579477310181 7.752639293670654 2.091469526290894 7.733439445495605 2.108009576797485 L 1.999999403953552 7.043089389801025 L 1.999999403953552 12.79799938201904 C 1.999999403953552 13.90057945251465 2.897019386291504 14.79759979248047 3.999599456787109 14.79759979248047 L 11.99879932403564 14.79759979248047 M 11.99879932403564 16.79759979248047 L 3.999599456787109 16.79759979248047 C 1.790999412536621 16.79759979248047 -5.43518069662241e-07 15.00659942626953 -5.43518069662241e-07 12.79799938201904 L -5.43518069662241e-07 6.61229944229126 L 0.005619456525892019 6.61229944229126 C 0.03129945695400238 6.320599555969238 0.1791494637727737 6.008059501647949 0.4823994636535645 5.71049976348877 L 6.428699493408203 0.5921995043754578 C 7.267499446868896 -0.1872004419565201 8.716498374938965 -0.2070004492998123 9.578699111938477 0.5921995043754578 L 15.52499961853027 5.71049976348877 C 15.87047958374023 5.992089748382568 16.01183891296387 6.33743953704834 15.99839973449707 6.668079376220703 L 15.99839973449707 12.79799938201904 C 15.99839973449707 15.00659942626953 14.20739936828613 16.79759979248047 11.99879932403564 16.79759979248047 Z" stroke="none" fill="#333"/>
    </g>
  </g>
</svg>
