<svg xmlns="http://www.w3.org/2000/svg" width="24" height="24" viewBox="0 0 24 24">
  <g id="home" transform="translate(-49.141 -1327.723)">
    <rect id="Rectangle_152559" data-name="Rectangle 152559" width="24" height="24" transform="translate(49.141 1327.723)" fill="#eef1f6" opacity="0"/>
    <g id="Group_37670" data-name="Group 37670">
      <g id="Union_102" data-name="Union 102" transform="translate(49.641 1327.723)" fill="none" stroke-linecap="round" stroke-linejoin="round">
        <path d="M4,24a4,4,0,0,1-4-4V9.447H0A1.861,1.861,0,0,1,.694,8.031l8.547-7a3.57,3.57,0,0,1,4.529,0l8.548,7a1.541,1.541,0,0,1,.672,1.417H23V20a4,4,0,0,1-4,4Z" stroke="none"/>
        <path d="M 18.99899864196777 22.50030136108398 C 20.37727928161621 22.50030136108398 21.49859809875488 21.37858009338379 21.49859809875488 19.99979972839355 L 21.49859809875488 9.608613014221191 C 21.48789978027344 9.50974178314209 21.48698806762695 9.409368515014648 21.49630737304688 9.308871269226074 C 21.48221588134766 9.290379524230957 21.45350074768066 9.258292198181152 21.39941787719727 9.21638011932373 C 21.38872909545898 9.208100318908691 21.37814903259277 9.199670791625977 21.36768913269043 9.191100120544434 L 12.81948852539062 2.189100503921509 C 12.80529880523682 2.177480459213257 12.7913179397583 2.165590524673462 12.77755832672119 2.153450489044189 C 12.46440887451172 1.877140522003174 12.00189876556396 1.718670606613159 11.5086088180542 1.718670606613159 C 11.01079845428467 1.718670606613159 10.54653835296631 1.876740574836731 10.23487854003906 2.152350664138794 C 10.22073841094971 2.164860486984253 10.2063684463501 2.177090644836426 10.19176864624023 2.189050436019897 L 1.687907099723816 9.155465126037598 C 1.562156796455383 9.278902053833008 1.513757228851318 9.369123458862305 1.502408027648926 9.402985572814941 C 1.503782391548157 9.449580192565918 1.50295877456665 9.496023178100586 1.499998450279236 9.542165756225586 L 1.499998450279236 19.99979972839355 C 1.499998450279236 21.37858009338379 2.621318340301514 22.50030136108398 3.999598503112793 22.50030136108398 L 18.99899864196777 22.50030136108398 M 18.99899864196777 24.00030136108398 L 3.999598503112793 24.00030136108398 C 1.790098428726196 24.00030136108398 -1.597290065546986e-06 22.20930099487305 -1.597290065546986e-06 19.99979972839355 L -1.597290065546986e-06 9.447300910949707 L 0.003068402642384171 9.447300910949707 C -0.01575159654021263 8.998140335083008 0.1900984048843384 8.500730514526367 0.6938983798027039 8.03070068359375 L 9.241198539733887 1.028700590133667 C 10.44719886779785 -0.03779935091733932 12.53069877624512 -0.06479962915182114 13.76999855041504 1.028700590133667 L 22.31819915771484 8.03070068359375 C 22.85434913635254 8.446160316467285 23.04850769042969 8.963440895080566 22.98990821838379 9.447300910949707 L 22.99859809875488 9.447300910949707 L 22.99859809875488 19.99979972839355 C 22.99859809875488 22.20930099487305 21.20849800109863 24.00030136108398 18.99899864196777 24.00030136108398 Z" stroke="none" fill="#333"/>
      </g>
      <line id="Line_288" data-name="Line 288" x2="7" transform="translate(57.641 1346.723)" fill="none" stroke="#0072ff" stroke-linecap="round" stroke-width="1.5"/>
    </g>
  </g>
</svg>
