<svg xmlns="http://www.w3.org/2000/svg" width="20" height="20" viewBox="0 0 20 20">
  <g id="ic_전체메뉴_상품몰" transform="translate(-211 -1331.166)">
    <rect id="Rectangle_152561" data-name="Rectangle 152561" width="20" height="20" transform="translate(211 1331.166)" fill="none" opacity="0"/>
    <g id="Group_37672" data-name="Group 37672" transform="translate(211.84 1331.508)">
      <g id="Path_92859" data-name="Path 92859" fill="none">
        <path d="M5.135,0h8.216a4.07,4.07,0,0,1,4.108,4.032l1.027,11.087a4.07,4.07,0,0,1-4.108,4.032H4.108A4.07,4.07,0,0,1,0,15.119L1.027,4.032A4.07,4.07,0,0,1,5.135,0Z" stroke="none"/>
        <path d="M 5.134867668151855 1.499998092651367 C 3.696867942810059 1.499998092651367 2.5269775390625 2.635717391967773 2.5269775390625 4.031698226928711 L 2.5269775390625 4.101017951965332 L 1.500749588012695 15.18012237548828 C 1.534332275390625 16.5479564666748 2.690961837768555 17.65057754516602 4.107897758483887 17.65057754516602 L 14.37762832641602 17.65057754516602 C 15.79456329345703 17.65057754516602 16.95118522644043 16.5479564666748 16.98476600646973 15.18012237548828 L 15.95853805541992 4.101017951965332 L 15.95853805541992 4.031698226928711 C 15.95853805541992 2.635717391967773 14.78864765167236 1.499998092651367 13.35064792633057 1.499998092651367 L 5.134867668151855 1.499998092651367 M 5.134867668151855 -1.9073486328125e-06 L 13.35064792633057 -1.9073486328125e-06 C 15.61937808990479 -1.9073486328125e-06 17.45853805541992 1.805057525634766 17.45853805541992 4.031698226928711 L 18.48551750183105 15.11887741088867 C 18.48551750183105 17.34552764892578 16.64634704589844 19.15057754516602 14.37762832641602 19.15057754516602 L 4.107897758483887 19.15057754516602 C 1.839168548583984 19.15057754516602 -1.9073486328125e-06 17.34552764892578 -1.9073486328125e-06 15.11887741088867 L 1.0269775390625 4.031698226928711 C 1.0269775390625 1.805057525634766 2.866137504577637 -1.9073486328125e-06 5.134867668151855 -1.9073486328125e-06 Z" stroke="none" fill="#0072ff"/>
      </g>
      <path id="Path_92860" data-name="Path 92860" d="M217.264,1337s3.21,4.159,6.722,0" transform="translate(-211.382 -1331.958)" fill="none" stroke="#0072ff" stroke-linecap="round" stroke-width="1.5"/>
    </g>
  </g>
</svg>
