<svg xmlns="http://www.w3.org/2000/svg" xmlns:xlink="http://www.w3.org/1999/xlink" width="156" height="102" viewBox="0 0 156 102">
  <defs>
    <clipPath id="clip-path">
      <path id="Path_94341" data-name="Path 94341" d="M.213,1.019C-1.106,3.1,3.512,7.95,19.164,5.527l-1.3-3.943A85.047,85.047,0,0,1,9,.892,62.635,62.635,0,0,0,2.616,0a2.567,2.567,0,0,0-2.4,1.019" transform="translate(0 0)" fill="none"/>
    </clipPath>
    <clipPath id="clip-path-2">
      <rect id="Rectangle_153403" data-name="Rectangle 153403" width="20.472" height="7.41" fill="none"/>
    </clipPath>
    <clipPath id="clip-path-3">
      <path id="Path_94272" data-name="Path 94272" d="M421,487.017l.483.881v-1.416c-.3.342-.483.535-.483.535" transform="translate(-421.005 -486.482)" fill="none"/>
    </clipPath>
    <clipPath id="clip-path-4">
      <path id="Path_94275" data-name="Path 94275" d="M408.21,528.47m-.108-.178c.313.405,1.953,4.289,5.637,5.962l-.147-9.358Z" transform="translate(-408.102 -524.896)" fill="none"/>
    </clipPath>
    <clipPath id="clip-path-5">
      <rect id="Rectangle_153379" data-name="Rectangle 153379" width="8.092" height="10.771" fill="#0091d2"/>
    </clipPath>
    <clipPath id="clip-path-6">
      <path id="Path_94281" data-name="Path 94281" d="M390.335,497.472s2.29,11.314,10.592,9.764a6.462,6.462,0,0,0,1.869-.543V487.4c-.79-.652-1.708,2.989-2.758,2.434Z" transform="translate(-390.335 -487.321)" fill="none"/>
    </clipPath>
    <clipPath id="clip-path-7">
      <path id="Path_94321" data-name="Path 94321" d="M.147,4.865S-1.844,18.454,8.81,18.208C18.047,17.994,22.781,8.355,13.97,0Z" fill="none"/>
    </clipPath>
    <clipPath id="clip-path-8">
      <path id="Path_94288" data-name="Path 94288" d="M390.534,495.091s2.351,13.044,12.021,9.547l.233-.087v-17.6q-.529-.287-1.1-.554Z" transform="translate(-390.534 -486.397)" fill="none"/>
    </clipPath>
    <clipPath id="clip-path-9">
      <path id="Path_94291" data-name="Path 94291" d="M392.023,422a3.63,3.63,0,0,0,.42,1.978l3.841,1.012a2.9,2.9,0,0,0-1.331-5.554h-.065A2.879,2.879,0,0,0,392.023,422" transform="translate(-392.006 -419.433)" fill="none"/>
    </clipPath>
    <clipPath id="clip-path-10">
      <rect id="Rectangle_153380" data-name="Rectangle 153380" width="7.592" height="7.243" fill="none"/>
    </clipPath>
    <clipPath id="clip-path-11">
      <path id="Path_94294" data-name="Path 94294" d="M330.992,458.828a2.9,2.9,0,0,0,4.284,3.778l.9-3.868a3.632,3.632,0,0,0-1.551-1.3,3.013,3.013,0,0,0-1.078-.191,2.761,2.761,0,0,0-2.559,1.579" transform="translate(-330.587 -457.249)" fill="none"/>
    </clipPath>
    <clipPath id="clip-path-12">
      <rect id="Rectangle_153381" data-name="Rectangle 153381" width="7.897" height="6.192" fill="none"/>
    </clipPath>
    <clipPath id="clip-path-13">
      <path id="Path_94297" data-name="Path 94297" d="M350.1,433.989c-6.057,3.881-10.431,10.87-7.01,19.446,3.8,9.525,13.634,11.719,24.324,4.1a23.95,23.95,0,0,0,5.522-5.255V436.665a14.574,14.574,0,0,0-11.813-6.4c-3.129,0-6.8,1.018-11.023,3.721" transform="translate(-341.893 -430.267)" fill="none"/>
    </clipPath>
    <clipPath id="clip-path-14">
      <rect id="Rectangle_153382" data-name="Rectangle 153382" width="17.356" height="32.546" fill="none"/>
    </clipPath>
    <clipPath id="clip-path-15">
      <rect id="Rectangle_153383" data-name="Rectangle 153383" width="10.476" height="9.212" fill="none"/>
    </clipPath>
    <clipPath id="clip-path-16">
      <rect id="Rectangle_153384" data-name="Rectangle 153384" width="6.742" height="5.78" fill="none"/>
    </clipPath>
  </defs>
  <g id="image" transform="translate(37.603 8.691)">
    <rect id="area" width="156" height="100" transform="translate(-37.603 -6.692)" fill="#fff" opacity="0"/>
    <g id="Group_39949" data-name="Group 39949" transform="translate(-37.165 33.35)">
      <g id="Group_39947" data-name="Group 39947" transform="translate(0 0)">
        <g id="Group_39910" data-name="Group 39910" transform="translate(0)">
          <g id="Group_40003" data-name="Group 40003" transform="translate(6.445 36.921) rotate(-13)" clip-path="url(#clip-path)">
            <path id="Path_94339" data-name="Path 94339" d="M17.864,1.585A85.1,85.1,0,0,1,9,.891C4.463.256,1.371-.81.214,1.019c-1.32,2.085,3.3,6.931,18.95,4.508" transform="translate(0 0)" fill="#f99800"/>
            <g id="Group_40002" data-name="Group 40002" transform="translate(-0.264 1.263)">
              <g id="Group_40001" data-name="Group 40001" transform="translate(0 0)">
                <g id="Group_40000" data-name="Group 40000" clip-path="url(#clip-path-2)">
                  <path id="Path_94340" data-name="Path 94340" d="M18.462,0S7.1,5.526,0,2.536L10.142,7.41l10.33-2.3Z" transform="translate(0 0)" fill="#ee8c00"/>
                </g>
              </g>
            </g>
          </g>
          <g id="Group_39870" data-name="Group 39870" transform="translate(34.932 25.903)" clip-path="url(#clip-path-3)">
            <path id="Path_94270" data-name="Path 94270" d="M421,467.908a77.488,77.488,0,0,0,5.34-6.565c2.534-3.558,3.8-6.417,5.883-5.95,2.37.532,2.814,7.049-9.243,16.129" transform="translate(-421.004 -467.372)" fill="#009ddf"/>
            <path id="Path_94271" data-name="Path 94271" d="M421.285,461.844l6.623,4.076-11,12.221-5.78-7.4Z" transform="translate(-414.946 -471.362)" fill="#efefef"/>
          </g>
          <g id="Group_39875" data-name="Group 39875" transform="translate(29.924 40.744)" clip-path="url(#clip-path-4)">
            <path id="Path_94273" data-name="Path 94273" d="M408.136,527.85c.017-.8,1.48,4.263,6.326,5.988a5.089,5.089,0,0,0,1.9-1.872s-2.226-4.35-2.139-8.159Z" transform="translate(-408.1 -524.228)" fill="#f99800"/>
            <g id="Group_39874" data-name="Group 39874" transform="translate(2.005 -1.691)">
              <g id="Group_39873" data-name="Group 39873">
                <g id="Group_39872" data-name="Group 39872" clip-path="url(#clip-path-5)">
                  <path id="Path_94274" data-name="Path 94274" d="M419.481,531.291s-6.13-2.345-6.246-8.077l5.511-2.694,2.581,8.389Z" transform="translate(-413.235 -520.52)" fill="#ee8c00"/>
                </g>
              </g>
            </g>
          </g>
          <g id="Group_39881" data-name="Group 39881" transform="translate(22.953 24.649)" clip-path="url(#clip-path-6)">
            <g id="Group_40005" data-name="Group 40005" transform="matrix(0.956, -0.292, 0.292, 0.956, -1.514, 4.655)">
              <g id="Group_39970" data-name="Group 39970" transform="translate(0 0)" clip-path="url(#clip-path-7)">
                <path id="Path_94319" data-name="Path 94319" d="M.113,4.823S-1.673,18.429,8.981,18.208c9.782-.2,13.972-9.854,5.161-18.208" transform="translate(-0.171 0)" fill="#f99800"/>
                <path id="Path_94320" data-name="Path 94320" d="M5.334,3.405S5.24.2,8.164.006s4.6,4.969-.9,8.94C.494,9.253-1.418,4.172,1,2.5s4.331.9,4.331.9" transform="translate(3.952 4.213)" fill="#fff"/>
              </g>
            </g>
          </g>
          <g id="Group_39888" data-name="Group 39888" transform="translate(23.728)" clip-path="url(#clip-path-9)">
            <path id="Path_94289" data-name="Path 94289" d="M392.443,423.975a3.63,3.63,0,0,1-.42-1.978,2.94,2.94,0,1,1,4.261,2.991" transform="translate(-392.006 -419.433)" fill="#f99800"/>
            <g id="Group_39887" data-name="Group 39887" transform="translate(1.441 -0.8)">
              <g id="Group_39886" data-name="Group 39886">
                <g id="Group_39885" data-name="Group 39885" clip-path="url(#clip-path-10)">
                  <path id="Path_94290" data-name="Path 94290" d="M397.977,417.473s1.452,4.569-2.242,5.908l4.837,1.223,2.754-5.647-2.453-1.6Z" transform="translate(-395.735 -417.36)" fill="#ee8c00"/>
                </g>
              </g>
            </g>
          </g>
          <g id="Group_39893" data-name="Group 39893" transform="translate(0 14.61)" clip-path="url(#clip-path-11)">
            <path id="Path_94292" data-name="Path 94292" d="M336.18,458.738a3.631,3.631,0,0,0-1.552-1.3,2.94,2.94,0,1,0,.647,5.165" transform="translate(-330.587 -457.249)" fill="#f99800"/>
            <g id="Group_39892" data-name="Group 39892" transform="translate(-1.029 0.834)">
              <g id="Group_39891" data-name="Group 39891">
                <g id="Group_39890" data-name="Group 39890" clip-path="url(#clip-path-12)">
                  <path id="Path_94293" data-name="Path 94293" d="M335.82,460.365s-4.616,2.856-7.2-.958l-.7,4.225L333.5,465.6Z" transform="translate(-327.923 -459.407)" fill="#ee8c00"/>
                </g>
              </g>
            </g>
          </g>
          <g id="Group_39898" data-name="Group 39898" transform="translate(4.368 4.186)" clip-path="url(#clip-path-13)">
            <path id="Path_94295" data-name="Path 94295" d="M350.1,433.989c-6.057,3.881-10.431,10.87-7.01,19.446,3.8,9.525,13.823,11.13,24.879,4.054,11.551-7.392,7.457-16.647,5.639-19.78-2.39-4.118-10.289-12.19-23.508-3.72" transform="translate(-341.893 -430.267)" fill="#f99800"/>
            <g id="Group_39897" data-name="Group 39897" transform="translate(20.372 -1.518)">
              <g id="Group_39896" data-name="Group 39896">
                <g id="Group_39895" data-name="Group 39895" clip-path="url(#clip-path-14)">
                  <path id="Path_94296" data-name="Path 94296" d="M394.625,458.884s19.782-16.578.395-32.545l11.7,3.916,5.263,18.633-10.552,7.733Z" transform="translate(-394.625 -426.339)" fill="#ee8c00"/>
                </g>
              </g>
            </g>
          </g>
          <g id="Group_39948" data-name="Group 39948" transform="translate(9.202 12.61)">
            <path id="Path_94298" data-name="Path 94298" d="M364.313,473.918a.784.784,0,1,1-1.1-.107.785.785,0,0,1,1.1.107" transform="translate(-359.633 -465.303)" fill="#2a0e1a"/>
            <path id="Path_94299" data-name="Path 94299" d="M396.841,454.115a.784.784,0,1,1-1.1-.107.785.785,0,0,1,1.1.107" transform="translate(-379.594 -453.151)" fill="#2a0e1a"/>
            <g id="Group_39902" data-name="Group 39902" transform="translate(7.878 4.628)">
              <g id="Group_39901" data-name="Group 39901">
                <g id="Group_39900" data-name="Group 39900" clip-path="url(#clip-path-15)">
                  <path id="Path_94300" data-name="Path 94300" d="M377.458,465.656c-2.48,1.73-3.433,3.985-1.969,6.168,1.175,1.753,3.273,1.978,6.178.277,2.165-1.268,4.41-3.321,3.324-5.945-1.15-2.78-4.443-2.655-7.532-.5" transform="translate(-374.797 -464.053)" fill="#ee8d00"/>
                </g>
              </g>
            </g>
            <path id="Path_94301" data-name="Path 94301" d="M375.358,463.96c-2.48,1.73-3.433,3.985-1.969,6.168,1.175,1.753,3.273,1.978,6.178.277,2.165-1.268,4.41-3.32,3.324-5.945-1.15-2.78-4.443-2.655-7.532-.5" transform="translate(-365.631 -458.384)" fill="#fff"/>
            <path id="Path_94302" data-name="Path 94302" d="M380.619,474.218a1.1,1.1,0,1,1-1.519-.342,1.1,1.1,0,0,1,1.519.342" transform="translate(-369.245 -465.348)" fill="#e48200"/>
            <path id="Path_94303" data-name="Path 94303" d="M389.322,468.71a1.1,1.1,0,1,1-1.519-.342,1.1,1.1,0,0,1,1.519.342" transform="translate(-374.586 -461.968)" fill="#e48200"/>
            <g id="Group_39905" data-name="Group 39905" transform="translate(0 11.49)" opacity="0.7">
              <g id="Group_39904" data-name="Group 39904" transform="translate(0)">
                <g id="Group_39903" data-name="Group 39903" clip-path="url(#clip-path-16)">
                  <path id="Path_94304" data-name="Path 94304" d="M356.8,482.587h0a4.67,4.67,0,0,0-2.363,2.821,1.759,1.759,0,0,0,.532,1.595c1.2,1.214,3.016.338,4.322-.609,1.2-.87,2.444-2.2,1.565-3.577-.8-1.249-2.274-1.333-4.057-.23" transform="translate(-354.406 -481.815)" fill="#ed7737"/>
                </g>
              </g>
            </g>
            <g id="Group_39908" data-name="Group 39908" transform="translate(18.315)" opacity="0.7">
              <g id="Group_39907" data-name="Group 39907" transform="translate(0)">
                <g id="Group_39906" data-name="Group 39906" clip-path="url(#clip-path-16)">
                  <path id="Path_94305" data-name="Path 94305" d="M404.2,452.844h0a4.669,4.669,0,0,0-2.362,2.821,1.759,1.759,0,0,0,.532,1.595c1.2,1.214,3.016.338,4.322-.609,1.2-.87,2.444-2.2,1.565-3.577-.8-1.249-2.274-1.333-4.057-.23" transform="translate(-401.812 -452.073)" fill="#ed7737"/>
                </g>
              </g>
            </g>
          </g>
        </g>
      </g>
    </g>
    <g id="Group_39198" data-name="Group 39198" transform="translate(-1.397 -7.199)">
      <rect id="Rectangle_153390" data-name="Rectangle 153390" width="91" height="50" rx="12" transform="translate(-0.205 38.507)" fill="#bbb"/>
      <rect id="Rectangle_153404" data-name="Rectangle 153404" width="69" height="66" rx="9" transform="translate(12.795 -1.492)" fill="#ddd"/>
      <rect id="Rectangle_152871" data-name="Rectangle 152871" width="69" height="66" rx="8" transform="translate(10.795 0.507)" fill="#fff"/>
      <path id="Rectangle_153389" data-name="Rectangle 153389" d="M0,0H79A12,12,0,0,1,91,12V44A12,12,0,0,1,79,56H12A12,12,0,0,1,0,44V0A0,0,0,0,1,0,0Z" transform="translate(-0.205 44.507)" fill="#ccc"/>
      <path id="Path_94306" data-name="Path 94306" d="M5.059,0H25.3c3.119,0,5.949,2.527,11.438,11.29H0V5.645C0,2.527,2.265,0,5.059,0Z" transform="translate(-0.206 35.863)" fill="#ccc"/>
      <line id="Line_28" data-name="Line 28" x2="17" transform="translate(27.795 17.508)" fill="none" stroke="#aaa" stroke-linecap="round" stroke-width="3"/>
      <line id="Line_29" data-name="Line 29" x2="34" transform="translate(27.795 28.508)" fill="none" stroke="#aaa" stroke-linecap="round" stroke-width="3"/>
      <g id="Group_39199" data-name="Group 39199" transform="translate(41.813 59.565)">
        <path id="Path_93550" data-name="Path 93550" d="M3.12,0h0A3.2,3.2,0,0,1,6.227,3.552L4.983,17.836A1.9,1.9,0,0,1,3.12,19.612a1.9,1.9,0,0,1-1.863-1.776L.013,3.552A3.2,3.2,0,0,1,3.12,0" transform="translate(0 0)" fill="#fff"/>
        <circle id="Ellipse_9871" data-name="Ellipse 9871" cx="2.229" cy="2.229" r="2.229" transform="translate(0.892 22.287)" fill="#fff"/>
      </g>
    </g>
  </g>
</svg>
