<svg xmlns="http://www.w3.org/2000/svg" width="95.001" height="18" viewBox="0 0 95.001 18">
  <g id="BI_리온브랜치" transform="translate(-163.056 -429.387)">
    <rect id="area" width="91" height="18" transform="translate(167.057 429.387)" fill="none"/>
    <g id="Group_38090" data-name="Group 38090" transform="translate(218.405 435.963)">
      <path id="패스_93525" data-name="패스 93525" d="M130.068,44.062a.629.629,0,0,1-.629-.629V41.021a3.041,3.041,0,1,1,6.082,0,.629.629,0,0,1-1.258,0,1.783,1.783,0,1,0-3.567,0v2.412A.629.629,0,0,1,130.068,44.062Z" transform="translate(-122.594 -36.057)" fill="#555"/>
      <path id="패스_93526" data-name="패스 93526" d="M184.45,44.062a.629.629,0,0,1-.629-.629V41.021a1.783,1.783,0,1,0-3.567,0v2.412a.629.629,0,1,1-1.258,0V41.021a3.041,3.041,0,1,1,6.082,0v2.412A.629.629,0,0,1,184.45,44.062Z" transform="translate(-158.627 -36.064)" fill="#555"/>
      <g id="Group_38118" data-name="Group 38118" transform="translate(33.569 0)">
        <path id="패스_4" data-name="패스 4" d="M234.331,44.062a.629.629,0,0,1-.629-.629V41.021a1.783,1.783,0,1,0-3.567,0v2.412a.629.629,0,0,1-1.258,0V41.021a3.041,3.041,0,0,1,6.082,0v2.412A.629.629,0,0,1,234.331,44.062Z" transform="translate(-228.878 -36.057)" fill="#555"/>
        <path id="선_2" data-name="선 2" d="M-2.371,2.592A.629.629,0,0,1-3,1.964V-2.371A.629.629,0,0,1-2.371-3a.629.629,0,0,1,.629.629V1.964A.629.629,0,0,1-2.371,2.592Z" transform="translate(3 3)" fill="#555"/>
      </g>
      <g id="Group_38119" data-name="Group 38119" transform="translate(13.607 1.916)">
        <path id="패스_6" data-name="패스 6" d="M157.259,44.062a3.041,3.041,0,1,1,3.041-3.041A3.044,3.044,0,0,1,157.259,44.062Zm0-4.824a1.783,1.783,0,1,0,1.783,1.783A1.785,1.785,0,0,0,157.259,39.238Z" transform="translate(-154.218 -37.98)" fill="#555"/>
        <path id="선_3" data-name="선 3" d="M-2.371.67A.629.629,0,0,1-3,.041V-2.371A.629.629,0,0,1-2.371-3a.629.629,0,0,1,.629.629V.041A.629.629,0,0,1-2.371.67Z" transform="translate(7.824 5.412)" fill="#555"/>
      </g>
      <path id="패스_93527" data-name="패스 93527" d="M206.817,44.062a3.041,3.041,0,1,1,2.631-4.562.629.629,0,0,1-1.088.63,1.783,1.783,0,1,0,0,1.782.629.629,0,0,1,1.088.63A3.051,3.051,0,0,1,206.817,44.062Z" transform="translate(-176.644 -36.057)" fill="#555"/>
      <g id="Group_38120" data-name="Group 38120" transform="translate(0 0)">
        <path id="패스_96233" data-name="패스 96233" d="M-1.371,6.25H1.846a2.314,2.314,0,1,1,0,4.628H-.146A1.856,1.856,0,0,1-2,9.024V6.879A.629.629,0,0,1-1.371,6.25ZM1.846,9.62a1.056,1.056,0,0,0,0-2.113H-.742V9.024a.6.6,0,0,0,.6.6Z" transform="translate(2 -2.88)" fill="#555"/>
        <path id="패스_96234" data-name="패스 96234" d="M-.146-2H1.437A2.317,2.317,0,0,1,3.751.314,2.317,2.317,0,0,1,1.437,2.628H-1.371A.629.629,0,0,1-2,2V-.146A1.856,1.856,0,0,1-.146-2ZM1.437,1.37a1.056,1.056,0,0,0,0-2.113H-.146a.6.6,0,0,0-.6.6V1.37Z" transform="translate(2 2)" fill="#555"/>
      </g>
    </g>
    <path id="Path_96235" data-name="Path 96235" d="M23.757,6.464h0a.955.955,0,1,0,.954-.921.937.937,0,0,0-.954.921m0-2.98v0a.955.955,0,1,0,.954-.922.937.937,0,0,0-.954.922M2.358,2.9a.442.442,0,0,1,.452-.431H6.9A1.131,1.131,0,0,1,8.052,3.571,1.131,1.131,0,0,1,6.9,4.677H2.358ZM2.81.258A2.691,2.691,0,0,0,.069,2.9V5.587s-.019.129,0,4.623a1.124,1.124,0,0,0,1.144,1.1,1.125,1.125,0,0,0,1.145-1.1V6.886H6.511a1.509,1.509,0,0,1,1.534,1.48V10.21a1.145,1.145,0,0,0,2.289,0V8.365A3.6,3.6,0,0,0,9.346,5.9a3.241,3.241,0,0,0,1-2.329A3.379,3.379,0,0,0,6.9.258ZM33.5.256A5.629,5.629,0,0,0,27.774,5.78a3.88,3.88,0,0,0,.688,2.179l0,.005a1.172,1.172,0,0,0,1.592.29,1.08,1.08,0,0,0,.3-1.535,1.7,1.7,0,0,1-.294-.94h0a3.44,3.44,0,0,1,6.875,0A3.405,3.405,0,0,1,33.5,9.124l-18.673,0a1.149,1.149,0,0,1-1.143-1.134v-1.1h6.832a1.105,1.105,0,1,0,0-2.21H13.684v-1.1A1.126,1.126,0,0,1,14.83,2.466h5.694a1.125,1.125,0,0,0,1.141-1.108,1.126,1.126,0,0,0-1.149-1.1H14.83a3.38,3.38,0,0,0-3.437,3.314V7.987a3.4,3.4,0,0,0,3.434,3.344H18.34l15.159,0A5.657,5.657,0,0,0,39.231,5.78,5.629,5.629,0,0,0,33.5.256h0m15.941,0a1.124,1.124,0,0,0-1.144,1.1V8.715a.452.452,0,0,1-.12.331A.17.17,0,0,1,48,9.1a.363.363,0,0,1-.26-.25L45.33,2.006A2.612,2.612,0,0,0,43.395.314,2.516,2.516,0,0,0,41.072,1a2.618,2.618,0,0,0-.752,1.854v7.356a1.145,1.145,0,0,0,2.289,0V2.856a.453.453,0,0,1,.12-.331A.171.171,0,0,1,42.9,2.47a.364.364,0,0,1,.26.25l2.413,6.845a2.611,2.611,0,0,0,1.935,1.692,2.517,2.517,0,0,0,2.323-.689,2.618,2.618,0,0,0,.752-1.853V1.359A1.124,1.124,0,0,0,49.443.257Z" transform="translate(162.995 432.549)" fill="#348fff"/>
  </g>
</svg>
