<svg id="그룹_39694" data-name="그룹 39694" xmlns="http://www.w3.org/2000/svg" xmlns:xlink="http://www.w3.org/1999/xlink" width="172.68" height="202.406" viewBox="0 0 172.68 202.406">
  <defs>
    <clipPath id="clip-path">
      <path id="패스_94558" data-name="패스 94558" d="M7.944,33.486a13.777,13.777,0,0,0,9.844-2.8s-4.25-12.908,9.328-25.245L2.012.2C1.76,2.354-5.064,20.966,7.944,33.486M1.791.16,2.012.2c.017-.134.006-.2-.036-.2s-.1.053-.184.16" transform="translate(0 0)" fill="none"/>
    </clipPath>
    <clipPath id="clip-path-2">
      <rect id="사각형_153064" data-name="사각형 153064" width="24.28" height="42.317" fill="none"/>
    </clipPath>
    <clipPath id="clip-path-3">
      <path id="패스_94558-2" data-name="패스 94558" d="M7.944.08a13.776,13.776,0,0,1,9.844,2.8s-4.25,12.908,9.328,25.245l-25.1,5.233C1.76,31.212-5.064,12.6,7.944.08M1.792,33.406l.22-.045c.017.134.006.2-.036.2s-.1-.053-.184-.16" fill="none"/>
    </clipPath>
    <clipPath id="clip-path-5">
      <path id="패스_94159" data-name="패스 94159" d="M82.952,163.183c-4.053,2.8-4.835,9.719,1.218,19.661,4.5,7.393,21.877,32.7,56.509,36.012l6.2-12.14s-24.52-4.95-45.106-31.672c-4.777-6.2-7.188-10.089-9.944-11.818a8.494,8.494,0,0,0-4.547-1.386,7.675,7.675,0,0,0-4.333,1.343" transform="translate(-79.77 -161.84)" fill="none"/>
    </clipPath>
    <clipPath id="clip-path-6">
      <rect id="사각형_152970" data-name="사각형 152970" width="74.635" height="38.294" fill="none"/>
    </clipPath>
    <clipPath id="clip-path-7">
      <path id="패스_94163" data-name="패스 94163" d="M341.2,176.212c-2.928,1.42-5.745,5.024-11.167,10.67-23.363,24.331-48.275,26.595-48.275,26.595l4.851,12.741c34.787.464,54.805-22.81,60.081-29.671,7.1-9.226,7.069-16.191,3.343-19.413a7.676,7.676,0,0,0-5-1.85,8.74,8.74,0,0,0-3.835.929" transform="translate(-281.762 -175.283)" fill="none"/>
    </clipPath>
    <clipPath id="clip-path-8">
      <rect id="사각형_152971" data-name="사각형 152971" width="77.994" height="46.815" fill="none"/>
    </clipPath>
    <clipPath id="clip-path-9">
      <path id="패스_94167" data-name="패스 94167" d="M213.748,298.951h0m-14.286-69.137s-24.062,22.153-17.113,48.75c3.946,15.1,18.685,20.363,31.484,20.386,12.8-.023,27.538-5.283,31.484-20.386,6.949-26.6-17.114-48.75-17.114-48.75Z" transform="translate(-181.089 -229.814)" fill="none"/>
    </clipPath>
    <clipPath id="clip-path-10">
      <rect id="사각형_152972" data-name="사각형 152972" width="26.515" height="60.665" fill="none"/>
    </clipPath>
    <clipPath id="clip-path-11">
      <path id="패스_94170" data-name="패스 94170" d="M271.783,249.841a134.573,134.573,0,0,1,7.2,40.71l15.467-.722s1.562-18.163-11.417-44Z" transform="translate(-271.783 -245.826)" fill="none"/>
    </clipPath>
    <clipPath id="clip-path-12">
      <path id="패스_94173" data-name="패스 94173" d="M176.139,288.339l15.468.722a134.565,134.565,0,0,1,7.2-40.711l-11.252-4.014c-12.979,25.84-11.417,44-11.417,44" transform="translate(-176.081 -244.336)" fill="none"/>
    </clipPath>
    <clipPath id="clip-path-13">
      <path id="패스_94176" data-name="패스 94176" d="M222.291,15.52,213.981,39.3S237.79,52.485,262.455,45.4l-3.026-24.859c.346-2.555-7.688-5.751-17.942-7.139a67.509,67.509,0,0,0-8.925-.639c-5.9,0-10.033,1-10.271,2.753" transform="translate(-213.981 -12.767)" fill="none"/>
    </clipPath>
    <clipPath id="clip-path-14">
      <path id="패스_94185" data-name="패스 94185" d="M154.41,69.743c-11.389,7.148-18.7,18.32-21.14,32.309-2.661,15.256.36,28.559,8.739,38.471,10.889,12.881,29.872,19.616,54.9,19.48,45.958-.253,52.829-31.221,53.65-44.524.4-6.416.013-22.777-12.053-36.1-8.483-9.369-20.97-15.219-37.214-17.456q-5.26-.724-11.045-.943c-.926-.035-1.851-.052-2.771-.052-12.295,0-23.944,3.093-33.065,8.817" transform="translate(-132.331 -60.926)" fill="none"/>
    </clipPath>
    <clipPath id="clip-path-15">
      <rect id="사각형_152975" data-name="사각형 152975" width="72.737" height="80.816" fill="none"/>
    </clipPath>
    <clipPath id="clip-path-16">
      <rect id="사각형_152976" data-name="사각형 152976" width="34.25" height="24.907" fill="none"/>
    </clipPath>
    <clipPath id="clip-path-17">
      <rect id="사각형_152977" data-name="사각형 152977" width="23.185" height="14.667" fill="none"/>
    </clipPath>
    <clipPath id="clip-path-18">
      <rect id="사각형_152978" data-name="사각형 152978" width="23.185" height="14.668" fill="none"/>
    </clipPath>
  </defs>
  <g id="그룹_39960" data-name="그룹 39960" transform="translate(59.062 164.283) rotate(11)">
    <g id="그룹_39959" data-name="그룹 39959" transform="translate(0 0)" clip-path="url(#clip-path)">
      <path id="패스_94556" data-name="패스 94556" d="M1.791.159c1.826-2.22-8.369,19.351,6.153,33.326a13.773,13.773,0,0,0,9.843-2.8S13.54,17.775,27.116,5.437Z" transform="translate(0 0.001)" fill="#eea8c9"/>
      <g id="그룹_39958" data-name="그룹 39958" transform="translate(-6.49 -3.594)">
        <g id="그룹_39957" data-name="그룹 39957" transform="translate(0)">
          <g id="그룹_39956" data-name="그룹 39956" clip-path="url(#clip-path-2)">
            <path id="패스_94557" data-name="패스 94557" d="M13.539,7.1S6.62,30.952,24.279,39.672L8.549,42.317,0,5.747,6.9,0Z" transform="translate(0 0)" fill="#eb99bf"/>
          </g>
        </g>
      </g>
    </g>
  </g>
  <g id="그룹_39970" data-name="그룹 39970" transform="translate(115.868 197.232) rotate(169)">
    <g id="그룹_39959-2" data-name="그룹 39959" transform="translate(0 0)" clip-path="url(#clip-path-3)">
      <path id="패스_94556-2" data-name="패스 94556" d="M1.791,33.406C3.617,35.626-6.578,14.055,7.944.08a13.772,13.772,0,0,1,9.843,2.8S13.54,15.789,27.116,28.128Z" transform="translate(0 0)" fill="#eea8c9"/>
      <g id="그룹_39958-2" data-name="그룹 39958" transform="translate(-6.49 -5.157)">
        <g id="그룹_39957-2" data-name="그룹 39957" transform="translate(0)">
          <g id="그룹_39956-2" data-name="그룹 39956" clip-path="url(#clip-path-2)">
            <path id="패스_94557-2" data-name="패스 94557" d="M13.538,35.215S6.62,11.364,24.279,2.645L8.549,0,0,36.57l6.9,5.747Z" transform="translate(0 0)" fill="#eb99bf"/>
          </g>
        </g>
      </g>
    </g>
  </g>
  <g id="그룹_39558" data-name="그룹 39558" transform="translate(0 75.22)">
    <g id="그룹_39557" data-name="그룹 39557" clip-path="url(#clip-path-5)">
      <path id="패스_94156" data-name="패스 94156" d="M146.883,206.717s-24.52-4.951-45.106-31.673c-4.777-6.2-7.187-10.089-9.944-11.818a7.89,7.89,0,0,0-8.881-.043c-4.053,2.8-4.835,9.72,1.218,19.662,4.5,7.393,21.877,32.7,56.509,36.012" transform="translate(-79.77 -161.84)" fill="#eea8c9"/>
      <g id="그룹_39556" data-name="그룹 39556" transform="translate(-3.886 25.928)" opacity="0.5">
        <g id="그룹_39555" data-name="그룹 39555">
          <g id="그룹_39554" data-name="그룹 39554" clip-path="url(#clip-path-6)">
            <path id="패스_94157" data-name="패스 94157" d="M129.175,226.163s-18.579,8.5-47.838-12.937l-9.269,13.8,44.6,24.5L146.7,238.975Z" transform="translate(-72.068 -213.226)" fill="#e98cb7"/>
          </g>
        </g>
      </g>
      <path id="패스_94158" data-name="패스 94158" d="M106.566,181.03c.981,1.356,1.959,2.773,2.932,4.233-8.69,6.339-15.872,12.414-18.466,14.654-1.882-2.937-3.741-5.736-5.491-8.359,2.424-2.638,9.528-9.881,18.211-14.332.957,1.261,1.9,2.536,2.815,3.8" transform="translate(-82.629 -169.462)" fill="#ffc600"/>
    </g>
  </g>
  <g id="그룹_39563" data-name="그룹 39563" transform="translate(101.922 82.003)">
    <g id="그룹_39562" data-name="그룹 39562" transform="translate(0)" clip-path="url(#clip-path-7)">
      <path id="패스_94160" data-name="패스 94160" d="M281.762,213.477s24.912-2.263,48.275-26.595c5.422-5.646,8.239-9.249,11.167-10.67a7.889,7.889,0,0,1,8.833.92c3.726,3.223,3.753,10.187-3.343,19.414-5.276,6.861-25.294,30.135-60.081,29.671" transform="translate(-281.762 -175.283)" fill="#eea8c9"/>
      <g id="그룹_39561" data-name="그룹 39561" transform="translate(-4.352 13.474)" opacity="0.5">
        <g id="그룹_39560" data-name="그룹 39560">
          <g id="그룹_39559" data-name="그룹 39559" clip-path="url(#clip-path-8)">
            <path id="패스_94161" data-name="패스 94161" d="M283.012,227.088s43.659,2.812,68.118-25.1l-2.5,27.3-47,19.518-28.494-15.728Z" transform="translate(-273.136 -201.986)" fill="#e98cb7"/>
          </g>
        </g>
      </g>
      <path id="패스_94162" data-name="패스 94162" d="M383.323,207.872c-1.185,1.182-2.431,2.37-3.721,3.559-7.623-7.588-14.75-13.727-17.368-15.938,2.6-2.32,5.078-4.595,7.394-6.735,2.986,1.98,11.253,7.861,17.012,15.737-1.1,1.143-2.207,2.271-3.316,3.377" transform="translate(-321.629 -181.959)" fill="#ffc600"/>
    </g>
  </g>
  <g id="그룹_39568" data-name="그룹 39568" transform="translate(51.124 109.518)">
    <g id="그룹_39567" data-name="그룹 39567" clip-path="url(#clip-path-9)">
      <path id="패스_94164" data-name="패스 94164" d="M199.462,229.814s-24.063,22.154-17.114,48.75c3.955,15.136,18.75,20.387,31.569,20.387h-.169c12.818,0,27.614-5.25,31.568-20.387,6.949-26.6-17.113-48.75-17.113-48.75" transform="translate(-181.089 -229.814)" fill="#eea8c9"/>
      <g id="그룹_39566" data-name="그룹 39566" transform="translate(48.02 1.56)" opacity="0.5">
        <g id="그룹_39565" data-name="그룹 39565">
          <g id="그룹_39564" data-name="그룹 39564" clip-path="url(#clip-path-10)">
            <path id="패스_94165" data-name="패스 94165" d="M277.63,242.03a38.781,38.781,0,0,1-1.374,40.03l1.75,11.511,24.765-30.607-12.482-30.058Z" transform="translate(-276.257 -232.906)" fill="#e98cb7"/>
          </g>
        </g>
      </g>
      <path id="패스_94166" data-name="패스 94166" d="M227.3,273.578s3.359-10.129,12.529-7.351c9.2,2.788,8.4,20.894-12.929,26.934-21.067-6.906-21.128-25.031-11.818-27.44,9.277-2.4,12.218,7.856,12.218,7.856" transform="translate(-194.991 -247.423)" fill="#fff"/>
    </g>
  </g>
  <g id="그룹_39570" data-name="그룹 39570" transform="translate(96.887 117.597)">
    <g id="그룹_39569" data-name="그룹 39569" transform="translate(0)" clip-path="url(#clip-path-11)">
      <path id="패스_94168" data-name="패스 94168" d="M271.783,249.841a134.589,134.589,0,0,1,7.2,40.711l15.467-.722s1.562-18.163-11.417-44Z" transform="translate(-271.783 -245.827)" fill="#002867"/>
      <path id="패스_94169" data-name="패스 94169" d="M253.329,252.376a134.582,134.582,0,0,1,4.424,41.105l15.481.328s2.79-18.015-8.406-44.676Z" transform="translate(-262.641 -247.465)" fill="#fff691"/>
    </g>
  </g>
  <g id="그룹_39572" data-name="그룹 39572" transform="translate(48.597 116.846)">
    <g id="그룹_39571" data-name="그룹 39571" clip-path="url(#clip-path-12)">
      <path id="패스_94171" data-name="패스 94171" d="M198.809,248.35a134.579,134.579,0,0,0-7.2,40.711l-15.467-.722s-1.562-18.163,11.417-44Z" transform="translate(-176.081 -244.336)" fill="#002867"/>
      <path id="패스_94172" data-name="패스 94172" d="M219.731,250.885a134.583,134.583,0,0,0-4.424,41.105l-15.481.329s-2.79-18.015,8.406-44.676Z" transform="translate(-187.691 -245.974)" fill="#fff691"/>
    </g>
  </g>
  <g id="그룹_39574" data-name="그룹 39574" transform="translate(67.721)">
    <g id="그룹_39573" data-name="그룹 39573" clip-path="url(#clip-path-13)">
      <path id="패스_94174" data-name="패스 94174" d="M259.429,20.544c.346-2.555-7.688-5.751-17.943-7.139s-18.85-.441-19.2,2.114L213.981,39.3S237.79,52.484,262.455,45.4Z" transform="translate(-213.981 -12.767)" fill="#c4181f"/>
      <path id="패스_94175" data-name="패스 94175" d="M276.4,10.281s1.087,24.661-21.649,30.105l2.036,3.967,33.467.4L288.1,0Z" transform="translate(-234.179 -6.442)" fill="#a61319"/>
    </g>
  </g>
  <g id="그룹_39589" data-name="그룹 39589" transform="translate(26.522 24.3)">
    <g id="그룹_39588" data-name="그룹 39588" clip-path="url(#clip-path-14)">
      <path id="패스_94183" data-name="패스 94183" d="M250.557,115.479c.4-6.416.013-22.777-12.053-36.1-8.483-9.369-20.969-15.219-37.213-17.456q-5.26-.724-11.046-.943c-13.306-.5-26.032,2.612-35.835,8.765-11.39,7.148-18.7,18.321-21.14,32.309-2.661,15.256.361,28.559,8.74,38.471,10.889,12.881,29.872,19.616,54.9,19.48,45.959-.253,52.83-31.221,53.65-44.524" transform="translate(-132.331 -60.926)" fill="#eea8c9"/>
      <g id="그룹_39587" data-name="그룹 39587" transform="translate(56.673 27.393)" opacity="0.5">
        <g id="그룹_39586" data-name="그룹 39586">
          <g id="그룹_39585" data-name="그룹 39585" clip-path="url(#clip-path-15)">
            <path id="패스_94184" data-name="패스 94184" d="M300.76,115.214s6.845,60.55-56.112,74.239l20,6.577L302,186.34l15.382-42.127Z" transform="translate(-244.648 -115.214)" fill="#e98cb7"/>
          </g>
        </g>
      </g>
    </g>
  </g>
  <g id="그룹_39600" data-name="그룹 39600" transform="translate(39.371 54.836)">
    <g id="그룹_39695" data-name="그룹 39695" transform="translate(0 0)">
      <g id="그룹_39592" data-name="그룹 39592" transform="translate(28.143 5.338)" opacity="0.5">
        <g id="그룹_39591" data-name="그룹 39591">
          <g id="그룹_39590" data-name="그룹 39590" clip-path="url(#clip-path-16)">
            <path id="패스_94188" data-name="패스 94188" d="M225.782,156.441c-7.8-1.328-12.1-5.356-12.207-11.549-.141-7.918,5.63-12.728,15.437-12.867,7.235-.1,13.2,2.032,16.371,5.859a10.824,10.824,0,0,1,2.235,9.085c-.893,5-4.823,10.778-18.476,9.862a33.343,33.343,0,0,1-3.36-.39" transform="translate(-213.573 -132.021)" fill="#e98cb7"/>
          </g>
        </g>
      </g>
      <path id="패스_94189" data-name="패스 94189" d="M225.931,149.159c-7.8-1.328-12.1-5.356-12.207-11.549-.141-7.917,5.63-12.728,15.437-12.867,7.235-.1,13.2,2.032,16.371,5.859a10.824,10.824,0,0,1,2.235,9.085c-.893,5-4.823,10.778-18.476,9.862a33.354,33.354,0,0,1-3.36-.39" transform="translate(-185.503 -123.075)" fill="#fff"/>
      <path id="패스_94190" data-name="패스 94190" d="M229.8,146.883a3.774,3.774,0,1,1,4.327-3.125,3.774,3.774,0,0,1-4.327,3.125" transform="translate(-191.896 -130.33)" fill="#d46f83"/>
      <path id="패스_94191" data-name="패스 94191" d="M258.248,140.881a3.774,3.774,0,1,1-4.327,3.125,3.775,3.775,0,0,1,4.327-3.125" transform="translate(-205.394 -131.049)" fill="#d46f83"/>
      <g id="그룹_39595" data-name="그룹 39595" transform="translate(0 7.277)" opacity="0.7">
        <g id="그룹_39594" data-name="그룹 39594">
          <g id="그룹_39593" data-name="그룹 39593" clip-path="url(#clip-path-17)">
            <path id="패스_94192" data-name="패스 94192" d="M171.121,136.006h0c-5.016-.518-9.21.4-11.5,2.53a5.623,5.623,0,0,0-1.768,5.08c.679,5.43,6.978,6.749,12.138,6.9,4.738.14,10.484-.789,10.954-6,.427-4.72-3.155-7.823-9.827-8.511" transform="translate(-157.797 -135.865)" fill="#e6697a"/>
          </g>
        </g>
      </g>
      <g id="그룹_39598" data-name="그룹 39598" transform="translate(68.801 10.077)" opacity="0.7">
        <g id="그룹_39597" data-name="그룹 39597">
          <g id="그룹_39596" data-name="그룹 39596" clip-path="url(#clip-path-18)">
            <path id="패스_94193" data-name="패스 94193" d="M307.473,141.554h0c-5.016-.518-9.21.4-11.5,2.53a5.623,5.623,0,0,0-1.768,5.08c.679,5.43,6.978,6.749,12.138,6.9,4.738.14,10.484-.789,10.954-6,.427-4.72-3.155-7.823-9.827-8.511" transform="translate(-294.15 -141.413)" fill="#e6697a"/>
          </g>
        </g>
      </g>
    </g>
  </g>
</svg>
