<svg id="그룹_39579" data-name="그룹 39579" xmlns="http://www.w3.org/2000/svg" xmlns:xlink="http://www.w3.org/1999/xlink" width="19.731" height="16.796" viewBox="0 0 19.731 16.796">
  <defs>
    <clipPath id="clip-path">
      <path id="패스_94179" data-name="패스 94179" d="M349.471,81.93c-3.51,1.9-6.037,5.181-7.92,10.27l2.79,4.235c1.571.448,6.665,1.7,10.653.463,4.6-1.431,6.644-4.337,6.237-8.884a9.266,9.266,0,0,0-4.368-6.65,6.107,6.107,0,0,0-2.922-.729,9.456,9.456,0,0,0-4.47,1.3" transform="translate(-341.551 -80.634)" fill="none"/>
    </clipPath>
    <clipPath id="clip-path-2">
      <rect id="사각형_152973" data-name="사각형 152973" width="22.941" height="23.083" fill="none"/>
    </clipPath>
  </defs>
  <g id="그룹_39578" data-name="그룹 39578" clip-path="url(#clip-path)">
    <path id="패스_94177" data-name="패스 94177" d="M344.341,96.435c1.571.448,6.665,1.7,10.653.463,4.6-1.431,6.645-4.337,6.237-8.884a9.265,9.265,0,0,0-4.368-6.651c-2.119-1.134-4.6-.945-7.392.567-3.511,1.9-6.037,5.181-7.92,10.27" transform="translate(-341.551 -80.634)" fill="#eea8c9"/>
    <g id="그룹_39577" data-name="그룹 39577" transform="translate(1.505 -0.216)" opacity="0.5">
      <g id="그룹_39576" data-name="그룹 39576">
        <g id="그룹_39575" data-name="그룹 39575" clip-path="url(#clip-path-2)">
          <path id="패스_94178" data-name="패스 94178" d="M344.533,93.18s15.014-1.628,17.118-12.974l5.823,9.123-14.968,13.96Z" transform="translate(-344.533 -80.206)" fill="#e98cb7"/>
        </g>
      </g>
    </g>
  </g>
</svg>
